<?xml version="1.0" standalone="no"?>
<!DOCTYPE svg PUBLIC "-//W3C//DTD SVG 1.1//EN" "http://www.w3.org/Graphics/SVG/1.1/DTD/svg11.dtd" >
<svg xmlns="http://www.w3.org/2000/svg" xmlns:xlink="http://www.w3.org/1999/xlink" version="1.1">
<metadata>
Created by FontForge 20201107 at Tue Jun 10 10:09:20 2025
 By 
Copyright 2014-2024 Typotheque. All rights reserved.
</metadata>
<defs>
<font id="ParmigianoHeadlineL-Regular" horiz-adv-x="1054" >
  <font-face 
    font-family="Parmigiano Headline xsTRIAL Regular"
    font-weight="400"
    font-stretch="normal"
    units-per-em="2048"
    panose-1="0 0 0 0 0 0 0 0 0 0"
    ascent="1638"
    descent="-410"
    x-height="944"
    cap-height="1481"
    bbox="-10 -508 1642 1700"
    underline-thickness="102"
    underline-position="-255"
    unicode-range="U+0020-F8FF"
  />
<missing-glyph horiz-adv-x="1458" 
d="M1239 1438h55v-56h-55v56zM1085 1438h56v-56h-56v56zM932 1438h55v-56h-55v56zM164 1438h55v-56h-55v56zM317 1438h56v-56h-56v56zM471 1438h55v-56h-55v56zM778 1438h56v-56h-56v56zM625 1438h55v-56h-55v56zM164 1284h55v-55h-55v55zM1239 1284h55v-55h-55v55z
M932 1130h55v-55h-55v55zM164 1130h55v-55h-55v55zM1239 1130h55v-55h-55v55zM471 1130h55v-55h-55v55zM625 1130h55v-55h-55v55zM778 1130h56v-55h-56v55zM932 977h55v-55h-55v55zM164 977h55v-55h-55v55zM1239 977h55v-55h-55v55zM164 823h55v-55h-55v55zM932 823h55v-55
h-55v55zM625 823h55v-55h-55v55zM1239 823h55v-55h-55v55zM778 823h56v-55h-56v55zM625 670h55v-56h-55v56zM1239 670h55v-56h-55v56zM164 670h55v-56h-55v56zM164 516h55v-55h-55v55zM1239 516h55v-55h-55v55zM625 362h55v-55h-55v55zM164 362h55v-55h-55v55zM1239 362h55
v-55h-55v55zM164 209h55v-55h-55v55zM1239 209h55v-55h-55v55zM1239 55h55v-55h-55v55zM1085 55h56v-55h-56v55zM932 55h55v-55h-55v55zM164 55h55v-55h-55v55zM625 55h55v-55h-55v55zM471 55h55v-55h-55v55zM317 55h56v-55h-56v55zM778 55h56v-55h-56v55z" />
    <glyph glyph-name="uniFB01" unicode="fi" horiz-adv-x="1171" 
d="M68 -4q-13 5 -13 16q0 14 13 19h94q14 0 14 14v862l-82 -8q-31 0 -31 23q0 24 31 24l82 -10v182q0 177 79.5 283t211.5 106q108 0 168 -75q49 -53 49 -123q0 -43 -26 -75t-68 -32q-36 0 -58 23t-22 51q0 32 36 70t36 59q0 33 -33.5 55.5t-83.5 22.5q-82 0 -127 -54
t-45 -137q0 -50 38 -131t38 -141v-84l176 10q28 0 28 -24q0 -23 -28 -23l-176 8v-862q0 -14 14 -14h119q12 -5 12 -19q0 -11 -12 -16l-230 4zM905 1227q-46 0 -78 31t-32 77t32 77.5t78 31.5t78.5 -31.5t32.5 -77.5q0 -45 -32.5 -76.5t-78.5 -31.5zM702 -2q-14 2 -14 16
t14 19h95q12 0 12 14v848q0 14 -14 14h-95q-14 3 -14 17q0 13 14 16q110 -4 150 -4q24 0 61 7t52 7q21 0 29.5 -9t8.5 -30v-866q0 -14 15 -14h94q14 -5 14 -19t-14 -16l-205 4z" />
    <glyph glyph-name="uniFB02" unicode="fl" horiz-adv-x="1150" 
d="M68 -4q-13 5 -13 16q0 14 13 19h94q14 0 14 14v862l-82 -8q-31 0 -31 23q0 24 31 24l82 -10v182q0 177 79.5 283t211.5 106q108 0 168 -75q49 -53 49 -123q0 -43 -26 -75t-68 -32q-36 0 -58 23t-22 51q0 32 36 70t36 59q0 33 -33.5 55.5t-83.5 22.5q-82 0 -127 -54
t-45 -137q0 -50 38 -131t38 -141v-84l176 10q28 0 28 -24q0 -23 -28 -23l-176 8v-862q0 -14 14 -14h119q12 -5 12 -19q0 -11 -12 -16l-230 4zM682 -2q-14 3 -14 16t14 19h96q15 0 15 14v1385q0 14 -15 14h-96q-14 6 -14 16q0 13 14 19q110 -4 147 -4q24 0 61.5 6t53.5 6
q21 0 30 -9t9 -30v-1403q0 -14 14 -14h95q14 -5 14 -19t-14 -16l-205 4z" />
    <glyph glyph-name="uni27E6" unicode="[[" horiz-adv-x="927" 
d="M897 -369q10 -7 10 -16t-10 -16h-707q-20 0 -20 22v1880q0 8 5.5 13.5t12.5 5.5h709q10 -3 10 -15q0 -13 -10 -16h-322v-1858h322zM297 -369h154v1858h-154v-1858z" />
    <glyph glyph-name="uni27E7" unicode="]]" horiz-adv-x="929" 
d="M352 -369v1858h-321q-8 3 -8 16q0 12 8 15h708q7 0 13 -6t6 -13v-1880q0 -22 -21 -22h-706q-8 5 -8 16t8 16h321zM633 -369v1858h-156v-1858h156z" />
    <glyph glyph-name="uni2E28" unicode="&#x28;&#x28;" horiz-adv-x="1110" 
d="M256 559q0 -243 35 -408.5t115 -271.5q51 -69 107 -116.5t163 -104.5q16 -6 16 -16q0 -6 -4 -11.5t-10 -5.5q-2 0 -14 4q-89 40 -172.5 102.5t-159 150t-132 189.5t-89.5 228.5t-33 259.5q0 166 50 319t134.5 269.5t187 202.5t214.5 137q12 4 14 4q14 0 14 -16
q0 -9 -16 -15q-106 -56 -162 -104t-108 -117q-80 -106 -115 -272t-35 -408zM662 559q0 -244 34.5 -409t114.5 -271q51 -69 107 -116.5t163 -104.5q17 -7 17 -16q0 -6 -4.5 -11.5t-10.5 -5.5q-2 0 -14 4q-89 40 -172.5 102.5t-159 150t-132 189.5t-89.5 228.5t-33 259.5
q0 166 50 319t134.5 269.5t187 202.5t214.5 137q12 4 14 4q15 0 15 -16q0 -8 -17 -15q-106 -56 -162 -104t-108 -117q-79 -106 -114 -271.5t-35 -408.5z" />
    <glyph glyph-name="uni2E29" unicode="&#x29;&#x29;" horiz-adv-x="1114" 
d="M449 559q0 242 -35 408t-115 272q-52 69 -108 117t-162 104q-17 7 -17 15q0 16 15 16q2 0 14 -4q112 -51 214.5 -137t187 -202.5t134.5 -269.5t50 -319q0 -133 -33 -259.5t-89.5 -228.5t-132 -189.5t-159 -150t-172.5 -102.5q-12 -4 -14 -4q-6 0 -10.5 5.5t-4.5 11.5
q0 9 17 16q107 57 163 104.5t107 116.5q80 106 115 271.5t35 408.5zM856 559q0 244 -34.5 409.5t-114.5 270.5q-52 69 -108 117t-163 104q-14 7 -14 15q0 16 12 16q3 0 15 -4q89 -40 173 -102t159.5 -149.5t132 -189t89.5 -228t33 -259.5q0 -166 -50.5 -319.5t-134.5 -270
t-187 -203t-215 -137.5q-12 -4 -15 -4q-4 0 -8 5.5t-4 11.5q0 9 14 16q108 57 164 104t107 117q81 105 115 269.5t34 410.5z" />
    <glyph glyph-name=".notdef" horiz-adv-x="1458" 
d="M1239 1438h55v-56h-55v56zM1085 1438h56v-56h-56v56zM932 1438h55v-56h-55v56zM164 1438h55v-56h-55v56zM317 1438h56v-56h-56v56zM471 1438h55v-56h-55v56zM778 1438h56v-56h-56v56zM625 1438h55v-56h-55v56zM164 1284h55v-55h-55v55zM1239 1284h55v-55h-55v55z
M932 1130h55v-55h-55v55zM164 1130h55v-55h-55v55zM1239 1130h55v-55h-55v55zM471 1130h55v-55h-55v55zM625 1130h55v-55h-55v55zM778 1130h56v-55h-56v55zM932 977h55v-55h-55v55zM164 977h55v-55h-55v55zM1239 977h55v-55h-55v55zM164 823h55v-55h-55v55zM932 823h55v-55
h-55v55zM625 823h55v-55h-55v55zM1239 823h55v-55h-55v55zM778 823h56v-55h-56v55zM625 670h55v-56h-55v56zM1239 670h55v-56h-55v56zM164 670h55v-56h-55v56zM164 516h55v-55h-55v55zM1239 516h55v-55h-55v55zM625 362h55v-55h-55v55zM164 362h55v-55h-55v55zM1239 362h55
v-55h-55v55zM164 209h55v-55h-55v55zM1239 209h55v-55h-55v55zM1239 55h55v-55h-55v55zM1085 55h56v-55h-56v55zM932 55h55v-55h-55v55zM164 55h55v-55h-55v55zM625 55h55v-55h-55v55zM471 55h55v-55h-55v55zM317 55h56v-55h-56v55zM778 55h56v-55h-56v55z" />
    <glyph glyph-name=".null" horiz-adv-x="0" 
 />
    <glyph glyph-name="nonmarkingreturn" horiz-adv-x="682" 
 />
    <glyph glyph-name="space" unicode=" " horiz-adv-x="423" 
 />
    <glyph glyph-name="exclam" unicode="!" horiz-adv-x="468" 
d="M236 344q-14 0 -17 16q0 211 -23 417.5t-46 362t-23 242.5q0 58 28 91.5t78 33.5q51 0 80 -33t29 -90q0 -89 -22 -245t-44 -362t-22 -417q-3 -16 -18 -16zM236 -14q-43 0 -73 32.5t-30 81.5q0 47 30 79t73 32t73.5 -32t30.5 -79q0 -49 -30.5 -81.5t-73.5 -32.5z" />
    <glyph glyph-name="quotedbl" unicode="&#x22;" horiz-adv-x="624" 
d="M176 1507q40 0 64 -20t24 -49q0 -11 -11.5 -43t-25.5 -72t-25.5 -117t-11.5 -168q0 -16 -14 -16q-16 0 -16 16q0 91 -11.5 168t-25.5 117t-25.5 72t-11.5 43q0 29 24.5 49t65.5 20zM449 1507q40 0 64 -20t24 -49q0 -11 -11.5 -43t-25.5 -72t-25.5 -117t-11.5 -168
q0 -16 -14 -16q-15 0 -15 16q0 91 -12 168t-26 117t-26 72t-12 43q0 29 25.5 49t65.5 20z" />
    <glyph glyph-name="numbersign" unicode="#" 
d="M45 453q-14 11 -14 24q0 26 22 39h219l50 449h-220q-12 9 -12 24q0 26 23 39h215l47 420q12 18 37 18q19 0 28 -18l-47 -420h334l47 420q12 18 35 18q22 0 31 -18l-47 -420h217q14 -11 14 -27q0 -21 -23 -36h-215l-51 -449h217q13 -10 13 -27q0 -23 -23 -36h-213
l-47 -437q-13 -18 -37 -18t-29 18l48 437h-334l-47 -437q-10 -18 -37 -18q-21 0 -29 18l49 437h-221zM338 516h332l51 449h-334z" />
    <glyph glyph-name="dollar" unicode="$" horiz-adv-x="1009" 
d="M528 -233q-4 -13 -22 -13q-19 0 -23 13v204q-101 2 -192.5 45t-151 122.5t-59.5 176.5q0 51 27.5 85t72.5 34q41 0 65.5 -24.5t24.5 -59.5q0 -31 -20.5 -61.5t-41 -56t-20.5 -46.5q0 -60 87 -123t208 -63v641l-100 47q-135 62 -201.5 156t-66.5 229q0 164 105.5 273
t262.5 120v183q4 12 23 12q18 0 22 -12v-181q93 -3 174 -40.5t133 -108.5t52 -160q0 -46 -27.5 -79t-73.5 -33q-40 0 -64 24.5t-24 56.5q0 31 20 61t40 55t20 46q0 53 -76 100t-174 46v-592l109 -51q143 -69 216 -170.5t73 -245.5q0 -176 -109.5 -284.5t-288.5 -119.5v-206z
M455 879l28 -15v572q-107 -12 -167 -89.5t-60 -191.5q0 -104 45.5 -164.5t153.5 -111.5zM559 606l-31 15v-619q114 13 185 91t71 214q0 109 -57 179t-168 120z" />
    <glyph glyph-name="percent" unicode="%" horiz-adv-x="1339" 
d="M276 -61q-10 -19 -30 -19q-15 0 -26 11t-11 26q0 12 10 29l815 1421q-69 -41 -106.5 -60.5t-98.5 -39t-118 -19.5q-110 0 -199 66q61 -103 61 -254q0 -167 -66.5 -271t-180.5 -104q-116 0 -188 103.5t-72 265.5q0 167 71 271.5t187 104.5h4q4 0 6 -2h6h6h4q4 0 6 -2h2
q32 -6 60 -18q23 -11 71.5 -47t97.5 -56t115 -20q43 0 80.5 6t79 23.5t64 28t75 40.5t72.5 41v-2q6 6 17 6q17 0 26.5 -10t9.5 -26q0 -12 -10 -29zM240 1094q0 -310 145 -310q71 0 114.5 92.5t43.5 221.5q0 128 -44 220.5t-116 92.5q-143 0 -143 -317zM764 340
q0 166 71 270.5t187 104.5t183 -105t67 -266q0 -167 -67 -270t-181 -103q-116 0 -188 103.5t-72 265.5zM938 340q0 -311 145 -311q71 0 114.5 92.5t43.5 220.5q0 127 -44.5 220t-115.5 93q-143 0 -143 -315z" />
    <glyph glyph-name="ampersand" unicode="&#x26;" horiz-adv-x="1499" 
d="M1055 274q60 -86 111.5 -123.5t109.5 -37.5q63 0 104.5 36t77.5 127l19 -8q-39 -133 -112 -209.5t-177 -76.5q-91 0 -158 51t-162 188q-152 -250 -385 -250q-177 0 -283 115t-106 281q0 147 80 265t217 199q36 18 41 21q-53 72 -78.5 112.5t-48 102.5t-22.5 125
q0 128 89.5 221.5t231.5 93.5q129 0 208 -76t79 -188q0 -109 -71 -186t-208 -142l328 -477l96 215q77 181 199 181q62 0 101.5 -42.5t39.5 -105.5q0 -57 -31 -98t-83 -41q-45 0 -74 33t-29 88q0 39 -26 39q-42 0 -107 -148l-65 -149zM565 985l31 -47q96 59 136 129t40 186
q0 107 -44.5 166.5t-117.5 59.5q-78 0 -123 -60t-45 -153q0 -51 16 -97.5t36.5 -79t70.5 -104.5zM293 434q0 -168 68 -277.5t198 -109.5q171 0 291 201l-379 549q-6 10 -18 26q-2 -1 -4 -2.5t-5.5 -4t-5.5 -3.5q-69 -53 -107 -154.5t-38 -224.5z" />
    <glyph glyph-name="quotesingle" unicode="'" horiz-adv-x="352" 
d="M176 1507q40 0 64 -20t24 -49q0 -11 -11.5 -43t-25.5 -72t-25.5 -117t-11.5 -168q0 -16 -14 -16q-16 0 -16 16q0 91 -11.5 168t-25.5 117t-25.5 72t-11.5 43q0 29 24.5 49t65.5 20z" />
    <glyph glyph-name="parenleft" unicode="(" horiz-adv-x="704" 
d="M256 559q0 -243 35 -408.5t115 -271.5q51 -69 107 -116.5t163 -104.5q16 -6 16 -16q0 -6 -4 -11.5t-10 -5.5q-2 0 -14 4q-89 40 -172.5 102.5t-159 150t-132 189.5t-89.5 228.5t-33 259.5q0 166 50 319t134.5 269.5t187 202.5t214.5 137q12 4 14 4q14 0 14 -16
q0 -9 -16 -15q-106 -56 -162 -104t-108 -117q-80 -106 -115 -272t-35 -408z" />
    <glyph glyph-name="parenright" unicode=")" horiz-adv-x="704" 
d="M449 559q0 242 -35 408t-115 272q-52 69 -108 117t-162 104q-17 7 -17 15q0 16 15 16q2 0 14 -4q112 -51 214.5 -137t187 -202.5t134.5 -269.5t50 -319q0 -133 -33 -259.5t-89.5 -228.5t-132 -189.5t-159 -150t-172.5 -102.5q-12 -4 -14 -4q-6 0 -10.5 5.5t-4.5 11.5
q0 9 17 16q107 57 163 104.5t107 116.5q80 106 115 271.5t35 408.5z" />
    <glyph glyph-name="asterisk" unicode="*" horiz-adv-x="952" 
d="M219 1014q17 14 47.5 21.5t79.5 24.5t105 54q-61 31 -111.5 43.5t-80 17.5t-48.5 19q-23 14 -31.5 30.5t-16.5 47t-22 57.5q30 -1 62 5t51.5 5.5t42.5 -14.5q19 -13 35 -39.5t47.5 -67t85.5 -81.5q12 82 7 121.5t-10.5 73t-0.5 54.5q8 25 22.5 38.5t41 30t48.5 38.5
q6 -25 16.5 -48t16.5 -33.5t10 -29.5t-2 -36q-5 -22 -25 -45.5t-48.5 -66t-51.5 -104.5q53 8 94.5 22t62 25.5t42 20.5t39.5 10q26 2 43 -7t42 -29.5t52 -34.5q-26 -16 -48 -39.5t-38 -34.5t-43 -12q-23 -1 -51.5 11t-78 26.5t-118.5 17.5q26 -48 53 -84.5t44 -52.5
t32.5 -33.5t22.5 -34.5q9 -17 7 -37t-7 -30.5t-14 -35t-13 -48.5q-23 18 -52.5 31.5t-45 26t-25.5 38.5q-9 35 -4.5 54.5t2.5 74.5t-20 121q-39 -39 -65.5 -75.5t-36 -57.5t-21.5 -41t-27 -31q-20 -17 -42 -20.5t-45.5 0t-63.5 -2.5q10 28 14.5 60t11 50.5t27.5 35.5z" />
    <glyph glyph-name="plus" unicode="+" 
d="M133 586q-22 4 -22 32q0 25 22 29h361v385q7 25 34 25q26 0 33 -25v-385h361q22 -4 22 -29q0 -28 -22 -32h-361v-420q-7 -23 -33 -23q-27 0 -34 23v420h-361z" />
    <glyph glyph-name="comma" unicode="," horiz-adv-x="493" 
d="M313 70q-2 -28 -29 -55t-67 -27q-46 0 -76 32.5t-30 83.5q0 52 32.5 87.5t85.5 35.5q66 0 116 -65.5t50 -171.5q0 -176 -162 -293q-34 -27 -45 -27q-6 0 -11 7t-5 12t18 16q160 111 160 266q0 71 -37 99z" />
    <glyph glyph-name="hyphen" unicode="-" horiz-adv-x="741" 
d="M135 424q-37 18 -37 63q0 51 37 66h471q37 -15 37 -66q0 -45 -37 -63h-471z" />
    <glyph glyph-name="period" unicode="." horiz-adv-x="446" 
d="M225 -14q-50 0 -83 36t-33 93q0 53 33.5 89t82.5 36q47 0 80 -36.5t33 -88.5q0 -56 -32.5 -92.5t-80.5 -36.5z" />
    <glyph glyph-name="slash" unicode="/" horiz-adv-x="569" 
d="M518 1645q-6 -21 -100 -479.5t-101 -495.5q-4 -18 -53 -256t-99 -485t-50 -248q-1 -11 -10.5 -18t-20.5 -7q-18 0 -27.5 9t-9.5 22q0 6 4 22q5 20 98.5 475.5t102.5 501.5q5 20 102 496t101 493q6 25 30 25q15 0 25 -9.5t10 -21.5q0 -14 -2 -24z" />
    <glyph glyph-name="zero" unicode="0" horiz-adv-x="1107" 
d="M102 719q0 222 48 388t151.5 263.5t251.5 97.5q113 0 199.5 -55.5t141.5 -156t82.5 -236t27.5 -301.5q0 -222 -47.5 -387t-151 -263t-252.5 -98q-148 0 -251.5 97.5t-151.5 263.5t-48 387zM324 719q0 -270 24 -426.5t73 -223.5t132 -67q84 0 133.5 67t73.5 223.5
t24 426.5q0 271 -24 427.5t-73.5 223t-133.5 66.5q-83 0 -132 -66.5t-73 -223.5t-24 -427z" />
    <glyph glyph-name="one" unicode="1" horiz-adv-x="784" 
d="M117 -2q-15 2 -15 16t15 19h190q15 0 15 14v1303q0 6 -4.5 11t-10.5 5h-231q-15 2 -15 16t15 17l280 -2q28 0 51.5 11t36 24.5t27 24.5t27.5 11q29 0 32 -30v-1391q0 -14 15 -14h190q15 -5 15 -19t-15 -16l-311 4z" />
    <glyph glyph-name="two" unicode="2" horiz-adv-x="999" 
d="M698 162q81 6 117 52t41 136l4 92q5 15 17 15q13 0 18 -15l-10 -432q0 -16 -17 -16q-3 0 -183.5 1.5t-370 3t-212.5 1.5q-15 0 -23.5 8.5t-8.5 22.5q0 9 16 37q121 151 195 249t147.5 210t111.5 199t61.5 183.5t23.5 196.5q0 319 -195 319q-103 0 -170 -59.5t-67 -130.5
q0 -38 40.5 -102.5t40.5 -92.5q0 -32 -24 -52.5t-62 -20.5q-43 0 -67.5 30.5t-24.5 85.5q0 162 106 273.5t281 111.5q167 0 267 -99.5t100 -262.5q0 -78 -29.5 -159.5t-75.5 -152t-117 -156.5t-138 -156.5t-156.5 -170t-155.5 -180.5z" />
    <glyph glyph-name="three" unicode="3" horiz-adv-x="1005" 
d="M479 768q60 -7 119 -26.5t116 -53.5t100.5 -79.5t70 -109.5t26.5 -137q0 -170 -124 -280.5t-302 -110.5q-93 0 -171 31t-128 82t-78 116.5t-28 135.5q0 59 26 89t70 30q38 0 62 -21t24 -53q0 -30 -38 -88.5t-38 -95.5q0 -72 73.5 -128.5t178.5 -56.5q114 0 181 100
t67 261q0 182 -79.5 276t-203.5 94q-18 0 -82.5 -4t-66.5 -4q-39 0 -39 31q0 27 39 27q2 0 66.5 -3.5t82.5 -3.5q75 0 130 51.5t81.5 132t26.5 177.5q0 127 -53.5 202.5t-147.5 75.5q-75 0 -136.5 -42.5t-61.5 -100.5q0 -26 29.5 -81t29.5 -83q0 -31 -23.5 -52.5
t-60.5 -21.5q-44 0 -69 28.5t-25 78.5q0 124 110 220.5t265 96.5q92 0 174 -35.5t137 -109t55 -170.5q0 -137 -113 -246t-272 -139z" />
    <glyph glyph-name="four" unicode="4" horiz-adv-x="1058" 
d="M365 -2q-15 2 -15 16t15 19h180q14 0 14 14v330h-475q-17 0 -27 10.5t-10 26.5q0 12 16 32l625 998q17 24 41 24q35 0 35 -34v-959h207q26 0 26 -22v-52q0 -10 -7.5 -17t-18.5 -7h-207v-330q0 -14 16 -14h160q12 -5 12 -19t-12 -16l-278 4zM559 475v701l-432 -701h432z
" />
    <glyph glyph-name="five" unicode="5" horiz-adv-x="995" 
d="M205 776q104 76 282 76q81 0 157 -28.5t137 -80.5t97.5 -135t36.5 -184q0 -194 -126.5 -323.5t-321.5 -129.5q-166 0 -273.5 102t-107.5 244q0 58 24.5 88.5t67.5 30.5q38 0 62 -21t24 -53q0 -34 -40 -88.5t-40 -89.5q0 -66 67.5 -119t160.5 -53q133 0 208.5 110.5
t75.5 301.5q0 175 -79 280t-185 105q-121 0 -211 -57q-28 -17 -33 -17h-6q-16 0 -16 21v647q0 12 7.5 21.5t19.5 9.5h569q56 0 59 63l4 62q2 14 17 14q14 0 16 -14l-8 -287q0 -31 -31 -31q-3 0 -142.5 3t-288 6t-171.5 3q-12 0 -12 -14v-463z" />
    <glyph glyph-name="six" unicode="6" horiz-adv-x="1044" 
d="M537 -29q-210 0 -326.5 159.5t-116.5 428.5q0 203 81 392t233 331t346 199q18 6 26 6t12.5 -5.5t4.5 -11.5q0 -11 -15 -16q-105 -39 -189 -115t-137.5 -171.5t-85 -197.5t-42.5 -208q18 30 36 52t47.5 46.5t72 37.5t94.5 13q74 0 143.5 -29t126 -84.5t91 -146
t34.5 -202.5q0 -216 -125.5 -347t-310.5 -131zM537 0q211 0 211 446q0 218 -48.5 323t-156.5 105q-224 0 -224 -413q0 -221 55 -341t163 -120z" />
    <glyph glyph-name="seven" unicode="7" horiz-adv-x="931" 
d="M270 1255q-150 -3 -157 -188l-7 -94q-2 -15 -16 -15t-16 15l10 446q0 17 14 17q3 0 181.5 -1.5t367 -3t215.5 -1.5q16 0 26.5 -10t10.5 -27q0 -14 -10 -31l-488 -1034q-28 -68 -28 -99q0 -29 17.5 -47t42 -27l49 -18t42 -28t17.5 -50q0 -38 -28 -63t-71 -25
q-64 0 -104.5 49.5t-40.5 131.5q0 63 41 153l453 952z" />
    <glyph glyph-name="eight" unicode="8" horiz-adv-x="1110" 
d="M555 -29q-195 0 -325 110.5t-130 293.5q0 151 98.5 253.5t245.5 137.5q-135 33 -225 123.5t-90 222.5q0 161 125 258.5t301 97.5q180 0 303 -97t123 -259q0 -132 -90 -222.5t-225 -123.5q147 -35 246.5 -137.5t99.5 -253.5q0 -183 -130 -293.5t-327 -110.5zM555 778
q95 0 152 82.5t57 247.5q0 330 -209 330q-207 0 -207 -330q0 -165 56.5 -247.5t150.5 -82.5zM555 0q120 0 176.5 94.5t56.5 282.5q0 371 -233 371q-112 0 -171.5 -93.5t-59.5 -277.5q0 -377 231 -377z" />
    <glyph glyph-name="nine" unicode="9" horiz-adv-x="1040" 
d="M504 1468q209 0 325.5 -159t116.5 -426q0 -211 -89 -402t-249 -329t-362 -195q-24 -6 -27 -6q-16 0 -16 16q0 12 14 17q109 38 200 114t151.5 172.5t98 203.5t48.5 216q-31 -59 -91.5 -104t-154.5 -45q-77 0 -146.5 28t-126.5 81.5t-90.5 141.5t-33.5 199
q0 108 34.5 198.5t94 151t138 94t165.5 33.5zM506 1438q-211 0 -211 -445q0 -214 49.5 -316t155.5 -102q223 0 223 406q0 220 -55 338.5t-162 118.5z" />
    <glyph glyph-name="colon" unicode=":" horiz-adv-x="487" 
d="M242 717q-50 0 -83.5 36t-33.5 91q0 54 33.5 90.5t83.5 36.5q49 0 81.5 -36.5t32.5 -90.5q0 -55 -32 -91t-82 -36zM246 -14q-50 0 -83.5 36.5t-33.5 92.5q0 53 34 89t83 36t81.5 -36t32.5 -89q0 -57 -32 -93t-82 -36z" />
    <glyph glyph-name="semicolon" unicode=";" horiz-adv-x="530" 
d="M254 717q-50 0 -83.5 36t-33.5 91q0 54 33.5 90.5t83.5 36.5q48 0 81.5 -36.5t33.5 -90.5q0 -55 -33.5 -91t-81.5 -36zM336 70q-2 -28 -29 -55t-67 -27q-46 0 -76.5 32.5t-30.5 83.5q0 52 33 87.5t86 35.5q66 0 116 -65.5t50 -171.5q0 -176 -162 -293q-34 -27 -45 -27
q-6 0 -11 7t-5 12t18 16q160 111 160 266q0 71 -37 99z" />
    <glyph glyph-name="less" unicode="&#x3c;" 
d="M836 289q6 -9 6 -19q0 -18 -10 -27.5t-25 -9.5l-598 351q-19 15 -19 34q0 22 19 33l598 353q14 0 24.5 -10.5t10.5 -28.5q0 -7 -6 -19l-562 -328z" />
    <glyph glyph-name="equal" unicode="=" 
d="M143 729q-22 4 -22 31t22 31h768q23 -4 23 -31t-23 -31h-768zM143 438q-22 4 -22 33q0 13 6.5 21t15.5 8h768q9 0 16 -8t7 -21q0 -29 -23 -33h-768z" />
    <glyph glyph-name="greater" unicode="&#x3e;" 
d="M219 289l561 329l-561 328q-6 12 -6 19q0 18 10.5 28.5t24.5 10.5l598 -353q18 -11 18 -33q0 -20 -18 -34l-598 -351q-15 0 -25 9.5t-10 27.5q0 10 6 19z" />
    <glyph glyph-name="question" unicode="?" horiz-adv-x="755" 
d="M324 342q-14 0 -19 16q-55 170 -55 299q0 159 100 261l82 88q92 92 92 223q0 120 -53.5 185t-142.5 65q-54 0 -105 -29.5t-51 -69.5q0 -23 30.5 -72.5t30.5 -80.5t-20.5 -54.5t-60.5 -23.5q-45 0 -70 31t-25 75q0 74 54 142q85 110 233 110q100 0 180 -52.5t121 -131.5
t41 -166q0 -165 -127 -297l-113 -117q-56 -58 -83 -105t-27 -116q0 -14 2 -74t2 -88q0 -18 -16 -18zM336 -14q-43 0 -74 32.5t-31 81.5q0 47 31 79t74 32t72.5 -32t29.5 -79q0 -49 -29.5 -81.5t-72.5 -32.5z" />
    <glyph glyph-name="at" unicode="@" horiz-adv-x="1677" 
d="M1313 -182q-222 -127 -492 -127q-149 0 -283.5 55t-235.5 153t-160.5 245t-59.5 321q0 203 67.5 378.5t182.5 296.5t270.5 190t329.5 69q186 0 336.5 -90t235.5 -249.5t85 -357.5q0 -137 -38.5 -260t-101.5 -207.5t-143.5 -134t-162.5 -49.5q-188 0 -207 193
q-92 -183 -225 -183q-93 0 -149 73t-56 208q0 165 53.5 309t145.5 230t198 86q68 0 115 -37.5t63 -93.5q36 49 84.5 85.5t83.5 36.5q9 0 16 -5.5t7 -14.5q0 -5 -2.5 -18.5t-3.5 -18.5l-152 -600q-10 -55 -10 -84q3 -102 94 -102q65 0 130.5 47t117 125t83.5 189t32 229
q0 279 -164 454.5t-420 175.5q-162 0 -301.5 -78.5t-234 -211t-148 -308t-53.5 -368.5q0 -138 38.5 -255t111 -204t183.5 -136.5t248 -49.5q267 0 482 122q4 2 12 2q14 0 14 -14q0 -8 -16 -16zM686 317q0 -190 86 -190q48 0 98 64.5t91 166.5l104 424q-9 60 -42 96.5
t-77 36.5q-62 0 -123.5 -93t-99 -232.5t-37.5 -272.5z" />
    <glyph glyph-name="A" unicode="A" horiz-adv-x="1177" 
d="M4 -2q-14 2 -14 16t14 19h76q52 0 70 63l411 1374q9 27 29 27q19 0 28 -27l422 -1421q3 -16 17 -16h104q13 -7 13 -19q0 -13 -13 -16l-229 4l-283 -4q-14 4 -14 16t14 19h162q5 0 8.5 3.5t3.5 8.5q0 3 -2.5 11.5t-6.5 21t-5 16.5l-127 447h-360l-123 -412
q-2 -9 -5.5 -19.5t-5.5 -17.5t-2 -12q0 -20 14.5 -33.5t35.5 -13.5h116q15 -6 15 -19t-15 -16l-190 4zM332 575h340l-166 588z" />
    <glyph glyph-name="B" unicode="B" horiz-adv-x="1181" 
d="M694 -4l-364 6l-256 -4q-13 3 -13 16q0 14 13 19h135q14 0 14 14v1385q0 14 -14 14h-135q-13 5 -13 16q0 14 13 19l256 -4l358 6q161 0 267 -102t106 -253q0 -145 -84 -244.5t-207 -125.5q-10 0 -10 -6q0 -11 10 -11q142 -23 232 -121.5t90 -259.5q0 -175 -109.5 -269.5
t-288.5 -94.5zM606 762q104 0 163.5 82.5t59.5 257.5t-52 259.5t-167 84.5h-157q-15 0 -15 -14v-670h168zM621 33q127 0 182 85.5t55 270.5q0 173 -69 258.5t-181 85.5h-170v-700h183z" />
    <glyph glyph-name="C" unicode="C" horiz-adv-x="1169" 
d="M655 -29q-115 0 -217 53t-179.5 149.5t-123 242.5t-45.5 321q0 172 45.5 318.5t122.5 244t178.5 152.5t212.5 55q57 0 111 -14t84.5 -28.5t77.5 -41.5q34 -18 57 -18q29 0 29 33v45q3 12 14 12t14 -12l17 -520q-5 -15 -17 -15q-14 0 -16 15l-6 88q-4 61 -20 120.5
t-46 115t-69.5 97.5t-95.5 67.5t-121 25.5q-174 0 -254 -176.5t-80 -565.5q0 -266 38 -428t112 -233.5t192 -71.5q80 0 145 39.5t106.5 104t65 141.5t27.5 159l6 103q2 14 16 14q15 0 17 -14l-13 -553q-3 -12 -14 -12q-12 0 -14 12v49q0 33 -29 33q-14 0 -59 -25
q-51 -27 -82 -41t-83 -27.5t-104 -13.5z" />
    <glyph glyph-name="D" unicode="D" horiz-adv-x="1300" 
d="M74 -2q-13 3 -13 16q0 14 13 19h135q14 0 14 14v1385q0 14 -14 14h-135q-13 5 -13 16q0 14 13 19l256 -4q33 -1 119 1.5t110 2.5q204 0 353.5 -97t224.5 -263.5t75 -383.5q0 -161 -42.5 -296t-123 -234t-205.5 -154t-282 -55q-24 0 -110 2.5t-119 1.5zM557 31
q97 0 167.5 27.5t118.5 81t77 140.5t41 197.5t12 261.5q0 188 -20.5 316t-69 218t-129.5 131.5t-201 41.5h-100q-15 0 -15 -14v-1387q0 -14 15 -14h104z" />
    <glyph glyph-name="E" unicode="E" horiz-adv-x="1148" 
d="M74 -2q-13 3 -13 16q0 14 13 19h135q14 0 14 14v1385q0 14 -14 14h-135q-13 5 -13 16q0 14 13 19l256 -4l643 8q5 0 8.5 -4.5t3.5 -10.5l19 -428q-3 -14 -17 -14q-10 0 -16 14l-6 76q-24 321 -269 324l-243 4q-15 0 -15 -14v-670l129 6q166 10 166 168v45q5 12 19 12
q11 0 16 -12l-4 -238l4 -239q-5 -15 -16 -15q-14 0 -19 15v59q0 152 -166 162l-129 8v-665q0 -35 35 -35l264 4q265 3 275 342l4 92q6 14 16 14q13 0 19 -14l-13 -461q0 -16 -14 -16l-694 8z" />
    <glyph glyph-name="F" unicode="F" horiz-adv-x="1040" 
d="M74 -2q-13 3 -13 16q0 14 13 19h135q14 0 14 14v1385q0 14 -14 14h-135q-13 5 -13 16q0 14 13 19l256 -4l624 8q5 0 9 -4.5t4 -10.5l20 -426q-2 -14 -16 -14q-12 0 -17 14l-6 70q-5 69 -23.5 126.5t-51 103t-84 71.5t-117.5 27l-219 4q-15 0 -15 -14v-699l131 6
q166 6 166 160v49q5 15 17 15q13 0 18 -15l-6 -233l6 -258q-6 -15 -18 -15q-11 0 -17 15v80q0 150 -166 159l-131 6v-655q0 -14 15 -14h159q13 -5 13 -19q0 -13 -13 -16l-282 4z" />
    <glyph glyph-name="G" unicode="G" horiz-adv-x="1261" 
d="M1217 569q14 -6 14 -18q0 -10 -14 -16h-113q-14 0 -14 -15l-7 -393q-99 -71 -200 -113.5t-221 -42.5q-113 0 -216 53t-183 149t-127.5 242t-47.5 320q0 171 49 318t130.5 245t187 153.5t219.5 55.5q58 0 113.5 -14.5t83.5 -28t81 -41.5q34 -18 56 -18q30 0 30 33v45
q3 12 15 12q9 0 12 -12l18 -520q-5 -13 -16 -13q-13 0 -18 13l-5 86q-5 81 -30.5 156t-69 136.5t-111 98.5t-149.5 37q-178 0 -268 -179.5t-90 -562.5q0 -382 84.5 -557.5t248.5 -175.5q96 0 161 51.5t65 145.5v321q0 6 -4.5 10.5t-10.5 4.5h-149q-12 5 -12 16q0 13 12 18
l266 -6z" />
    <glyph glyph-name="H" unicode="H" horiz-adv-x="1415" 
d="M74 -2q-13 3 -13 16q0 14 13 19h135q14 0 14 14v1385q0 14 -14 14h-135q-13 5 -13 16q0 14 13 19l256 -4l258 4q14 -5 14 -19q0 -11 -14 -16h-135q-15 0 -15 -14v-668h539v668q0 14 -14 14h-136q-14 5 -14 16q0 14 14 19l256 -4l258 4q15 -6 15 -19q0 -10 -15 -16h-137
q-14 0 -14 -14v-1385q0 -14 14 -14h137q15 -6 15 -19t-15 -16l-258 4l-256 -4q-14 2 -14 16t14 19h136q14 0 14 14v684h-539v-684q0 -14 15 -14h135q14 -5 14 -19t-14 -16l-258 4z" />
    <glyph glyph-name="I" unicode="I" horiz-adv-x="663" 
d="M74 -2q-13 3 -13 16q0 14 13 19h135q14 0 14 14v1385q0 14 -14 14h-135q-13 5 -13 16q0 14 13 19l256 -4l258 4q14 -5 14 -19q0 -11 -14 -16h-135q-15 0 -15 -14v-1385q0 -14 15 -14h135q14 -5 14 -19t-14 -16l-258 4z" />
    <glyph glyph-name="J" unicode="J" horiz-adv-x="663" 
d="M606 1481q15 -5 15 -19q0 -11 -15 -16h-133q-14 0 -14 -14v-1080q0 -158 -23.5 -253.5t-68.5 -180.5q-31 -63 -92.5 -104t-129.5 -41q-67 0 -106 35.5t-39 89.5q0 42 27 72t71 30q32 0 55 -19.5t34 -43t30 -43t45 -19.5q38 0 68 43t30 107q0 49 -18 90.5t-40 69t-40 76
t-18 108.5v1063q0 14 -15 14h-137q-14 6 -14 16q0 13 14 19l258 -4z" />
    <glyph glyph-name="K" unicode="K" horiz-adv-x="1236" 
d="M74 -2q-13 3 -13 16q0 14 13 19h135q14 0 14 14v1385q0 14 -14 14h-135q-13 5 -13 16q0 14 13 19l256 -4l258 4q14 -5 14 -19q0 -11 -14 -16h-135q-15 0 -15 -14v-1385q0 -14 15 -14h133q14 -5 14 -19t-14 -16l-256 4zM780 -2q-14 2 -14 16t14 19h90q7 0 12 4.5t5 9.5
q0 3 -5 10.5t-13.5 20t-14.5 22.5l-412 639v19l473 620q21 24 21 37q0 12 -10 21.5t-23 9.5h-129q-14 5 -14 16q0 14 14 19l211 -4l170 4q14 -5 14 -19q0 -11 -14 -16h-82q-57 0 -94 -49l-391 -500l536 -848q12 -16 29 -16h88q12 -5 12 -19t-12 -16l-235 4z" />
    <glyph glyph-name="L" unicode="L" horiz-adv-x="1069" 
d="M74 -2q-13 3 -13 16q0 14 13 19h135q14 0 14 14v1385q0 14 -14 14h-135q-13 5 -13 16q0 14 13 19l256 -4l278 4q15 -5 15 -19q0 -11 -15 -16h-155q-15 0 -15 -14v-1364q0 -35 35 -35l213 4q74 1 127.5 26.5t86 73.5t49.5 109.5t22 142.5l6 109q5 14 18 14q12 0 17 -14
l-19 -488q0 -16 -14 -16l-649 8z" />
    <glyph glyph-name="M" unicode="M" horiz-adv-x="1581" 
d="M59 -2q-14 3 -14 16t14 19h115q23 0 38 19t15 50v1330q0 14 -14 14h-137q-15 8 -15 16q0 12 15 19l188 -4l193 4q17 0 29.5 -10t15.5 -27l286 -1043q3 -8 9 -8q5 0 8 8l270 1043q8 37 43 37l133 -4l256 4q15 -6 15 -19q0 -10 -15 -16h-139q-12 0 -12 -14v-1385
q0 -14 12 -14h139q15 -6 15 -19t-15 -16l-258 4l-260 -4q-14 3 -14 16t14 19h139q13 0 13 14v1376q0 19 -15 19q-12 0 -18 -15l-369 -1425q-6 -25 -26 -25q-23 0 -29 25l-387 1428q-2 12 -16 12q-15 0 -15 -19v-1321q0 -31 15 -50t38 -19h138q14 -6 14 -19t-14 -16l-209 4z
" />
    <glyph glyph-name="N" unicode="N" horiz-adv-x="1323" 
d="M78 -2q-12 2 -12 16t12 19h115q24 0 39.5 19.5t15.5 49.5v1184q0 68 -27.5 114t-66.5 46h-109q-12 5 -12 16q0 14 12 19l244 -4l92 4q28 0 47 -35l602 -1038q10 -17 21 -17q16 0 16 21v964q0 30 -15.5 50t-37.5 20h-137q-15 6 -15 16q0 13 15 19l210 -4l187 4
q12 -5 12 -19q0 -11 -12 -16h-115q-23 0 -39 -20t-16 -50v-1366q0 -33 -25 -33q-22 0 -41 31l-719 1229q-11 14 -18 14q-16 0 -16 -22v-1127q0 -30 15.5 -49.5t37.5 -19.5h137q14 -5 14 -19t-14 -16l-209 4z" />
    <glyph glyph-name="O" unicode="O" horiz-adv-x="1347" 
d="M674 -29q-122 0 -228.5 54t-185.5 151.5t-124.5 243t-45.5 319.5q0 173 45.5 318t124 243t185.5 152.5t229 54.5q121 0 227.5 -54.5t185.5 -152.5t124.5 -243t45.5 -318q0 -174 -45 -319.5t-123.5 -243t-185 -151.5t-229.5 -54zM674 2q183 0 263.5 170.5t80.5 566.5
q0 394 -82 566t-262 172q-181 0 -263.5 -172.5t-82.5 -565.5q0 -396 81.5 -566.5t264.5 -170.5z" />
    <glyph glyph-name="P" unicode="P" horiz-adv-x="1130" 
d="M74 -2q-13 3 -13 16q0 14 13 19h135q14 0 14 14v1385q0 14 -14 14h-135q-13 5 -13 16q0 14 13 19l256 -4l340 6q183 0 298 -111.5t115 -306.5q0 -196 -116.5 -306t-315.5 -110h-213v-602q0 -14 15 -14h176q14 -5 14 -19t-14 -16l-299 4zM618 680q228 0 228 385
q0 198 -56 289.5t-176 91.5h-161q-15 0 -15 -14v-752h180z" />
    <glyph glyph-name="Q" unicode="Q" horiz-adv-x="1347" 
d="M1147 -369q-77 -30 -182 -30q-198 0 -308 102.5t-110 284.5q-204 51 -330.5 251t-126.5 500q0 173 45.5 318t124 243t185.5 152.5t229 54.5q121 0 227.5 -54.5t185.5 -152.5t124.5 -243t45.5 -318q0 -309 -134 -512t-345 -245q1 -191 61 -269t169 -78q44 0 88.5 11.5
t46.5 11.5q14 0 14 -14q0 -10 -10 -13zM674 2q183 0 263.5 170.5t80.5 566.5q0 394 -82 566t-262 172q-181 0 -263.5 -172.5t-82.5 -565.5q0 -396 81.5 -566.5t264.5 -170.5z" />
    <glyph glyph-name="R" unicode="R" horiz-adv-x="1251" 
d="M74 -2q-13 3 -13 16q0 14 13 19h135q14 0 14 14v1385q0 14 -14 14h-135q-13 5 -13 16q0 14 13 19l256 -4l377 6q165 1 269.5 -103t104.5 -268q0 -150 -97.5 -259.5t-215.5 -117.5q-10 0 -10 -8t10 -8q80 -1 149 -43.5t108.5 -112t39.5 -147.5q0 -74 -12.5 -166
t-12.5 -131q0 -111 97 -111q53 0 82 37q5 6 10.5 14.5t9.5 12.5t8 4q10 0 10 -13q0 -29 -43 -60.5t-116 -31.5q-66 0 -114.5 24.5t-77 64t-45 103t-22 128.5t-5.5 153q0 78 -18 132t-51 82.5t-71.5 40.5t-87.5 12h-168v-664q0 -14 15 -14h155q15 -5 15 -19t-15 -16l-278 4z
M618 741q106 0 168 90.5t62 264.5q0 173 -59 261.5t-166 88.5h-170q-15 0 -15 -14v-691h180z" />
    <glyph glyph-name="S" unicode="S" horiz-adv-x="1050" 
d="M113 510q3 14 16 14t16 -14l7 -84q5 -80 31.5 -154.5t71.5 -135.5t114.5 -97.5t152.5 -36.5q130 0 200.5 86t70.5 231q0 103 -46 165.5t-141 105.5l-211 98q-143 67 -208.5 169.5t-65.5 242.5q0 177 110.5 292t274.5 115q76 0 138 -22t136 -62q38 -18 62 -18q35 0 35 45
v31q3 14 14 14q8 0 14 -12v-477q-5 -15 -18 -15q-12 0 -17 15l-2 53q-3 77 -29.5 151t-71.5 134t-112 96.5t-145 36.5q-105 0 -165 -83t-60 -200q0 -109 39.5 -167t130.5 -99l217 -103q154 -71 219 -173t65 -251q0 -199 -122 -314.5t-306 -115.5q-124 0 -292 84
q-38 19 -60 19q-20 0 -27.5 -10t-7.5 -33v-37q-3 -14 -14 -14t-14 14v516z" />
    <glyph glyph-name="T" unicode="T" horiz-adv-x="1132" 
d="M289 -2q-15 2 -15 16t15 19h155q15 0 15 14v1385q0 14 -15 14l-110 -4q-215 -12 -234 -318l-6 -90q-3 -14 -16 -14q-14 0 -17 14l11 434q0 6 3.5 10.5t8.5 4.5l483 -6l482 6q5 0 8.5 -4.5t3.5 -10.5l8 -434q-3 -14 -16 -14q-14 0 -17 14l-6 90q-15 306 -231 318l-113 4
q-12 0 -12 -14v-1385q0 -14 14 -14h156q12 -5 12 -19t-12 -16l-277 4z" />
    <glyph glyph-name="U" unicode="U" horiz-adv-x="1271" 
d="M561 1481q12 -5 12 -19q0 -11 -12 -16h-137q-14 0 -14 -16v-967q0 -440 284 -440q167 0 255.5 127t88.5 337v889q0 31 -15 50.5t-38 19.5h-104q-15 6 -15 16q0 13 15 19l176 -4l162 4q12 -5 12 -19q0 -11 -12 -16h-89q-23 0 -39 -20t-16 -50v-889q0 -110 -23.5 -200
t-72.5 -162.5t-134.5 -113t-201.5 -40.5q-69 0 -130 13.5t-120.5 48.5t-101.5 89.5t-68 143.5t-26 203v961q0 16 -15 16h-125q-14 5 -14 16q0 14 14 19l246 -4z" />
    <glyph glyph-name="V" unicode="V" horiz-adv-x="1165" 
d="M539 1481q14 -6 14 -19q0 -10 -14 -16h-164q-15 0 -15 -12l13 -50l295 -1065l288 1027q13 44 13 55q0 19 -13.5 32t-33.5 13h-125q-15 8 -15 16q0 12 15 19l198 -4l164 4q15 -7 15 -19q0 -8 -15 -16h-84q-53 0 -69 -64l-394 -1380q-9 -25 -28 -25q-20 0 -29 25l-414 1425
q-3 19 -16 19h-107q-14 6 -14 16q0 13 14 19l232 -4z" />
    <glyph glyph-name="W" unicode="W" horiz-adv-x="1638" 
d="M1178 1481q14 -5 14 -19q0 -10 -14 -16h-48q-47 0 -69 -64l-115 -397l195 -684l289 1047q10 50 10 53q0 19 -13.5 32t-33.5 13h-76q-14 6 -14 16q0 13 14 19l156 -4l155 4q14 -6 14 -19q0 -10 -14 -16h-82q-54 0 -69 -66l-385 -1378q-8 -25 -31 -25q-21 0 -27 25
l-207 707l-215 -707q-8 -25 -30 -25q-21 0 -27 25l-416 1428q-6 16 -16 16h-109q-14 6 -14 16q0 13 14 19l594 -6zM674 299l135 469l-195 664q-3 14 -16 14h-233q-5 0 -9 -4t-4 -10q0 -2 3 -11t7 -21.5t5 -17.5zM1014 1352q12 32 12 53q0 18 -12.5 29.5t-30.5 11.5h-152
q-12 0 -12 -14q0 -2 3 -11t6.5 -21.5t5.5 -19.5l94 -336z" />
    <glyph glyph-name="X" unicode="X" horiz-adv-x="1236" 
d="M10 -2q-14 2 -14 16q0 13 12 19h88q66 0 92 51l340 631l-354 712q-6 19 -22 19h-103q-14 6 -14 16q0 13 14 19l262 -4l228 4q14 -6 14 -19q0 -11 -14 -16h-119q-10 0 -10 -12q0 -10 18 -48l256 -524l268 512q15 24 15 37t-10.5 24t-24.5 11h-105q-14 6 -14 16q0 13 14 19
l164 -4l185 4q14 -7 14 -19q0 -10 -14 -16h-80q-63 0 -90 -53l-299 -566l391 -780q7 -14 18 -14h117q14 -6 14 -19t-14 -16l-279 4l-260 -4q-14 7 -14 16q0 12 14 19h158q12 0 12 14q0 9 -20 49l-293 586l-309 -578q-15 -24 -15 -36q0 -15 10 -25t25 -10h139q15 -7 15 -19
q0 -13 -15 -16l-202 4z" />
    <glyph glyph-name="Y" unicode="Y" horiz-adv-x="1177" 
d="M336 -2q-14 3 -14 16t14 19h135q14 0 14 14v608l-333 777q-6 14 -21 14h-106q-13 6 -13 16q0 12 13 19l254 -4l272 4q12 -6 12 -19q0 -10 -12 -16h-156q-14 0 -14 -16q0 -1 18 -50l277 -659l272 637q3 7 7.5 17t7 16.5t2.5 11.5q0 20 -11.5 31.5t-29.5 11.5h-125
q-15 6 -15 16q0 13 15 19l192 -4l168 4q15 -6 15 -19q0 -10 -15 -16h-84q-52 0 -71 -51l-304 -707v-641q0 -14 15 -14h133q14 -5 14 -19t-14 -16l-256 4z" />
    <glyph glyph-name="Z" unicode="Z" horiz-adv-x="1110" 
d="M719 37q71 1 121.5 25.5t80.5 71.5t45 106t19 137l4 94q0 14 17 14q18 0 18 -14l-12 -461q0 -16 -15 -16l-714 8q-13 0 -83 -4t-87 -4q-45 0 -45 29q0 6 14 43l692 1380l-356 -4q-136 -1 -196.5 -83t-71.5 -237l-7 -80q-3 -14 -18 -14q-16 0 -16 14l18 426q0 17 14 17
l658 -8q11 0 78 3t81 3q41 0 41 -29q0 -15 -8 -31l-698 -1392z" />
    <glyph glyph-name="bracketleft" unicode="[" horiz-adv-x="649" 
d="M618 -369q9 -6 9 -16t-9 -16h-428q-20 0 -20 22v1880q0 8 5.5 13.5t12.5 5.5h430q9 -3 9 -15q0 -13 -9 -16h-321v-1858h321z" />
    <glyph glyph-name="backslash" unicode="\" horiz-adv-x="675" 
d="M35 1552q-4 16 -4 21q0 12 11 21.5t26 9.5q23 0 30 -25q4 -11 134.5 -464t138.5 -476q4 -14 134 -464t136 -466q4 -16 4 -22q0 -14 -11 -22.5t-28 -8.5q-22 0 -33 25q-4 19 -132.5 465t-137.5 475q-8 25 -137 474t-131 457z" />
    <glyph glyph-name="bracketright" unicode="]" horiz-adv-x="649" 
d="M31 -369h321v1858h-321q-8 3 -8 16q0 12 8 15h428q7 0 12.5 -5.5t5.5 -13.5v-1880q0 -22 -20 -22h-426q-8 5 -8 16t8 16z" />
    <glyph glyph-name="asciicircum" unicode="^" 
d="M231 989q-9 -6 -18 -6q-18 0 -29.5 11t-11.5 26l322 428q14 18 34 18q19 0 33 -18l322 -428q0 -15 -11.5 -26t-29.5 -11q-10 0 -19 6l-295 397z" />
    <glyph glyph-name="underscore" unicode="_" horiz-adv-x="1052" 
d="M96 -227q-18 0 -18 20v55q0 21 18 21h860q8 0 13.5 -6t5.5 -15v-55q0 -9 -5.5 -14.5t-13.5 -5.5h-860z" />
    <glyph glyph-name="grave" unicode="`" horiz-adv-x="491" 
d="M119 1468h104l178 -364q5 -15 5 -17q0 -12 -15 -12q-9 0 -16 10l-35 45q-19 26 -48.5 54.5t-62.5 54.5t-58.5 44.5t-52.5 36.5t-28 19q-31 25 -31 66q0 25 17 44t43 19z" />
    <glyph glyph-name="a" unicode="a" horiz-adv-x="929" 
d="M571 133h-8q-35 -66 -100 -108.5t-152 -42.5q-98 0 -163.5 58t-65.5 161q0 78 43.5 137.5t115.5 92t152 48t166 15.5v325q0 60 -27 90.5t-90 30.5q-79 0 -141.5 -29t-62.5 -67q0 -24 19 -63t19 -62q0 -28 -20.5 -49t-60.5 -21t-64.5 26t-24.5 70q0 87 109.5 156.5
t245.5 69.5q140 0 215.5 -49.5t75.5 -169.5v-646q0 -31 10.5 -45t34.5 -14q28 0 51 24.5t37 67.5q8 23 18 23t10 -15q0 -9 -5 -25.5t-18.5 -40t-33 -44t-52.5 -35t-73 -14.5q-75 0 -117.5 42.5t-42.5 102.5zM270 221q0 -82 29 -131t92 -49q56 0 106 48.5t62 111.5v266
q-55 0 -105 -14t-92 -42.5t-67 -77.5t-25 -112z" />
    <glyph glyph-name="b" unicode="b" horiz-adv-x="1003" 
d="M922 471q0 -212 -107 -356t-272 -144q-131 0 -195 84q-2 3 -9.5 11.5t-11.5 12.5t-10.5 10t-12.5 8.5t-13 2.5q-12 0 -29 -20l-82 -82q-14 -18 -24 -18q-14 0 -17 14v1438q0 14 -14 14h-94q-13 5 -13 16q0 14 13 19q106 -4 147 -4q22 0 60 6t55 6q21 0 30 -9t9 -30v-641
q47 73 111.5 117.5t136.5 44.5q104 0 182.5 -67t119 -180t40.5 -253zM332 190q0 -86 56.5 -135t129.5 -49q105 0 148 106t43 359q0 250 -34 354.5t-124 104.5q-58 0 -115 -45.5t-104 -124.5v-570z" />
    <glyph glyph-name="c" unicode="c" horiz-adv-x="892" 
d="M80 467q0 209 115 356.5t290 147.5q183 0 281 -158q41 -62 41 -131q0 -47 -25 -79t-73 -32q-40 0 -63 24.5t-23 57.5q0 36 33.5 87t33.5 71q0 52 -50.5 88.5t-117.5 36.5q-117 0 -170 -112.5t-53 -350.5q0 -241 52 -345.5t169 -104.5q104 0 179 83t89 197q3 23 17 23
t14 -19q0 -28 -26 -108q-39 -103 -124.5 -165.5t-197.5 -62.5q-170 0 -280.5 135.5t-110.5 360.5z" />
    <glyph glyph-name="d" unicode="d" horiz-adv-x="1030" 
d="M674 1432q0 14 -15 14h-94q-14 6 -14 16q0 13 14 19q110 -4 148 -4q24 0 61 6t53 6q21 0 30 -9t9 -30v-1403q0 -14 15 -14h94q14 -6 14 -19t-14 -16q-110 4 -141 4q-24 0 -58.5 -7t-50.5 -7q-21 0 -30 9.5t-9 31.5v133q-47 -85 -114 -138t-148 -53q-104 0 -182.5 66.5
t-119 179t-40.5 252.5t48 254t135.5 181t197.5 67q126 0 211 -105v566zM295 469q0 -249 34.5 -354t123.5 -105q60 0 117.5 49.5t103.5 133.5v624q-77 119 -193 119q-102 0 -144 -107.5t-42 -359.5z" />
    <glyph glyph-name="e" unicode="e" horiz-adv-x="901" 
d="M80 467q0 134 51 249.5t143.5 185t206.5 69.5q102 0 182 -50.5t120 -127.5t40 -164q0 -41 -41 -41h-481q-6 -44 -6 -123q0 -243 53 -342.5t172 -99.5q109 0 188 83t93 197q3 23 16 23q5 0 9.5 -5.5t4.5 -13.5q0 -30 -28 -108q-40 -102 -127 -165t-201 -63
q-174 0 -284.5 133t-110.5 363zM610 621q29 0 29 32q0 65 -5.5 111.5t-21 89.5t-47 65.5t-78.5 22.5q-83 0 -127.5 -77.5t-56.5 -243.5h307z" />
    <glyph glyph-name="f" unicode="f" horiz-adv-x="604" 
d="M68 -4q-13 5 -13 16q0 14 13 19h94q14 0 14 14v862l-82 -8q-31 0 -31 23q0 24 31 24l82 -10v182q0 177 79.5 283t211.5 106q108 0 168 -75q49 -53 49 -123q0 -43 -26 -75t-68 -32q-36 0 -58 23t-22 51q0 32 36 70t36 59q0 33 -33.5 55.5t-83.5 22.5q-82 0 -127 -54
t-45 -137q0 -50 38 -131t38 -141v-84l176 10q28 0 28 -24q0 -23 -28 -23l-176 8v-862q0 -14 14 -14h119q12 -5 12 -19q0 -11 -12 -16l-230 4z" />
    <glyph glyph-name="g" unicode="g" horiz-adv-x="1011" 
d="M449 328q-85 0 -156 30q-60 -18 -95.5 -55t-35.5 -86q0 -57 42 -83.5t132 -29.5l350 -10q268 -10 268 -211q0 -87 -45.5 -161.5t-119.5 -123.5t-165.5 -76.5t-185.5 -27.5q-173 0 -278 55t-105 158q0 73 57.5 132t141.5 89q-87 25 -129.5 83t-42.5 130q0 79 50 141
t128 91q-75 42 -118.5 115t-43.5 163q0 139 99.5 229.5t251.5 90.5q93 0 169.5 -35.5t122.5 -99.5q23 59 64 96t94 37q48 0 85.5 -35t37.5 -84q0 -38 -17.5 -55t-37.5 -17q-25 0 -43.5 17.5t-28.5 39t-26.5 39t-37.5 17.5q-43 0 -73 -80q43 -70 43 -162q0 -141 -99 -231
t-253 -90zM449 354q89 0 125 70t36 225t-36 225t-125 70q-87 0 -123.5 -70t-36.5 -223q0 -154 36.5 -225.5t123.5 -71.5zM184 -270q0 -89 66.5 -149t189.5 -60q158 0 270.5 79t112.5 189q0 59 -37.5 85.5t-111.5 29.5l-318 10q-35 0 -65 6q-53 -27 -80 -78t-27 -112z" />
    <glyph glyph-name="h" unicode="h" horiz-adv-x="1048" 
d="M61 -2q-14 3 -14 16t14 19h95q14 0 14 14v1385q0 14 -14 14h-95q-14 5 -14 16q0 14 14 19q106 -4 146 -4q24 0 62.5 6t54.5 6q20 0 28 -9t8 -30v-631q115 152 281 152q105 0 175.5 -56.5t70.5 -173.5v-694q0 -14 14 -14h96q13 -5 13 -19q0 -13 -13 -16l-204 4l-205 -4
q-15 3 -15 16t15 19h94q14 0 14 14v764q0 113 -108 113q-122 0 -228 -152v-725q0 -14 15 -14h94q14 -5 14 -19t-14 -16l-205 4z" />
    <glyph glyph-name="i" unicode="i" horiz-adv-x="540" 
d="M276 1227q-46 0 -78 31t-32 77t32 77.5t78 31.5q45 0 77 -32t32 -77t-32 -76.5t-77 -31.5zM72 -2q-15 3 -15 16t15 19h94q14 0 14 14v848q0 14 -14 14h-94q-15 3 -15 17q0 13 15 16q106 -4 149 -4q24 0 60.5 7t52.5 7q21 0 30 -9t9 -30v-866q0 -14 12 -14h96
q15 -6 15 -19t-15 -16l-205 4z" />
    <glyph glyph-name="j" unicode="j" horiz-adv-x="499" 
d="M262 1227q-46 0 -78 31t-32 77t32 77.5t78 31.5q47 0 79 -31.5t32 -77.5t-32 -77t-79 -31zM59 909q-14 3 -14 17q0 13 14 16q110 -4 150 -4q24 0 60.5 7t52.5 7q38 0 38 -39v-893q0 -267 -67 -393q-31 -61 -78 -98t-104 -37q-51 0 -80 27t-29 71q0 35 20 57.5t56 22.5
q23 0 41 -12.5t27.5 -27.5t26 -27.5t36.5 -12.5q29 0 51.5 32.5t22.5 80.5q0 39 -28.5 93t-57.5 118t-29 127v854q0 14 -14 14h-95z" />
    <glyph glyph-name="k" unicode="k" horiz-adv-x="956" 
d="M61 -2q-14 3 -14 16t14 19h95q14 0 14 14v1385q0 14 -14 14h-95q-14 5 -14 16q0 14 14 19q106 -4 148 -4q24 0 61.5 6t53.5 6q20 0 28 -9t8 -30v-1403q0 -14 15 -14h92q14 -5 14 -19t-14 -16l-203 4zM582 -2q-11 3 -11 16q0 7 3.5 13t9.5 6h51q16 0 16 12q0 5 -10 25
l-276 426v12l309 336q22 28 22 37q0 12 -8 20t-20 8h-80q-15 3 -15 17q0 6 4.5 12t10.5 6l157 -4l125 4q15 -6 15 -18q0 -14 -15 -17h-49q-40 0 -78 -41l-241 -256l352 -559q14 -20 33 -20h65q15 -7 15 -19t-15 -16l-190 4z" />
    <glyph glyph-name="l" unicode="l" horiz-adv-x="530" 
d="M61 -2q-14 3 -14 16t14 19h95q14 0 14 14v1385q0 14 -14 14h-95q-14 5 -14 16q0 14 14 19q106 -4 148 -4q24 0 61.5 6t53.5 6q20 0 28 -9t8 -30v-1403q0 -14 15 -14h94q14 -5 14 -19t-14 -16l-205 4z" />
    <glyph glyph-name="m" unicode="m" horiz-adv-x="1544" 
d="M70 -2q-15 3 -15 16t15 19h96q14 0 14 14v848q0 14 -14 14h-96q-15 3 -15 17q0 13 15 16q110 -4 143 -4q24 0 58.5 7t50.5 7q20 0 28 -9t8 -30v-90q111 148 277 148q78 0 141.5 -35.5t89.5 -106.5q112 142 271 142q103 0 174 -57.5t71 -174.5v-692q0 -14 15 -14h94
q14 -5 14 -19t-14 -16l-203 4l-198 -4q-15 3 -15 16t15 19h86q14 0 14 14v764q0 58 -29.5 85.5t-77.5 27.5q-111 0 -206 -129q4 -32 4 -56v-692q0 -14 14 -14h88q12 -5 12 -19t-12 -16l-199 4l-196 -4q-15 2 -15 16t15 19h86q14 0 14 14v764q0 113 -106 113
q-111 0 -211 -133v-744q0 -14 14 -14h88q14 -6 14 -19t-14 -16l-199 4z" />
    <glyph glyph-name="n" unicode="n" horiz-adv-x="1058" 
d="M72 -2q-15 3 -15 16t15 19h96q12 0 12 14v848q0 14 -14 14h-94q-15 3 -15 17q0 13 15 16q106 -4 143 -4q22 0 56.5 7t50.5 7q21 0 29.5 -9t8.5 -30v-110q117 168 291 168q104 0 176 -57t72 -175v-692q0 -14 14 -14h95q14 -5 14 -19t-14 -16l-205 4l-205 -4q-12 2 -12 16
t12 19h96q15 0 15 14v764q0 59 -30.5 86t-80.5 27q-120 0 -225 -154v-723q0 -14 14 -14h94q15 -6 15 -19t-15 -16l-205 4z" />
    <glyph glyph-name="o" unicode="o" horiz-adv-x="991" 
d="M80 471q0 212 117 356t299 144q120 0 215 -66.5t147.5 -180.5t52.5 -253q0 -213 -117 -356.5t-298 -143.5q-182 0 -299 143.5t-117 356.5zM291 471q0 -257 44 -366t161 -109q115 0 158.5 109t43.5 366q0 255 -43.5 363t-158.5 108q-117 0 -161 -108t-44 -363z" />
    <glyph glyph-name="p" unicode="p" horiz-adv-x="1032" 
d="M61 -494q-14 5 -14 19q0 11 14 16h95q14 0 14 15v1339q0 14 -14 14h-95q-14 5 -14 17q0 13 14 18q106 -4 142 -4q22 0 56.5 7t51.5 7q37 0 37 -41v-135q46 86 113.5 139.5t148.5 53.5q103 0 181.5 -67t119.5 -180t41 -253t-48 -254t-135 -180t-196 -66q-130 0 -213 103
v-518q0 -6 4.5 -10.5t10.5 -4.5h119q14 -6 14 -16q0 -13 -14 -19l-230 5zM582 930q-60 0 -118.5 -50t-103.5 -135v-620q38 -59 89.5 -90t103.5 -31q102 0 144 108t42 359q0 249 -34 354t-123 105z" />
    <glyph glyph-name="q" unicode="q" horiz-adv-x="1005" 
d="M543 -494q-15 5 -15 19q0 11 15 16h116q6 0 10.5 4.5t4.5 10.5v575q-47 -73 -112 -116.5t-138 -43.5q-104 0 -182.5 66.5t-119 179t-40.5 252.5q0 212 107 357t272 145q125 0 196 -86q2 -2 11.5 -14t14 -16t13.5 -9.5t17 -5.5q10 0 30 20l80 82q19 19 27 19q10 0 16 -15
v-1390q0 -15 13 -15h96q14 -6 14 -16q0 -13 -14 -19l-205 5zM295 469q0 -249 34.5 -354t123.5 -105q59 0 116.5 45t104.5 125v570q0 86 -57 136t-130 50q-106 0 -149 -106t-43 -361z" />
    <glyph glyph-name="r" unicode="r" horiz-adv-x="782" 
d="M373 47q0 -14 14 -14h117q14 -5 14 -19t-14 -16l-228 4l-204 -4q-15 3 -15 16t15 19h96q12 0 12 14v848q0 14 -14 14h-94q-15 3 -15 17q0 13 15 16q106 -4 143 -4q22 0 56.5 7t50.5 7q21 0 29.5 -9t8.5 -30v-153q32 92 94 151.5t146 59.5q73 0 112.5 -46.5t39.5 -101.5
q0 -48 -26 -78t-64 -30q-74 0 -84 106q-5 49 -13.5 67.5t-32.5 18.5q-44 0 -89.5 -52.5t-69.5 -143.5v-664z" />
    <glyph glyph-name="s" unicode="s" horiz-adv-x="802" 
d="M96 309q6 15 17 15q15 0 18 -19q10 -129 87.5 -217t178.5 -88q85 0 136 55.5t51 141.5q0 119 -119 161l-162 54q-99 34 -149 107.5t-50 162.5q0 129 86 209t197 80q87 0 166 -49q42 -25 61 -25q31 0 31 33v12q3 14 12 14q12 0 15 -14v-289q-3 -14 -17 -14q-13 0 -16 20
q-11 119 -79 200t-159 81q-74 0 -118.5 -49.5t-44.5 -128.5q0 -116 116 -156l166 -57q71 -24 118 -72t65 -98.5t18 -104.5q0 -74 -27.5 -133.5t-73 -95.5t-99 -55t-109.5 -19q-103 0 -197 62q-30 20 -55 20q-35 0 -35 -41v-18q-3 -14 -14 -14q-12 0 -15 14v315z" />
    <glyph glyph-name="t" unicode="t" horiz-adv-x="653" 
d="M57 903q-18 0 -18 17q0 18 22 18q111 0 151.5 25.5t55.5 101.5q12 31 21.5 45t23.5 14q31 0 31 -47v-141l231 10q25 -3 25 -24q0 -23 -27 -23l-219 6v-764q0 -63 19.5 -89.5t64.5 -26.5q50 0 92.5 34.5t67.5 85.5q3 5 7.5 17t7.5 16t8 4q12 0 12 -16q0 -19 -19 -53
t-47 -62q-71 -74 -190 -74q-41 0 -77 10.5t-68 33.5t-51 64.5t-19 98.5v719h-105z" />
    <glyph glyph-name="u" unicode="u" horiz-adv-x="1038" 
d="M678 895q0 14 -12 14h-97q-14 3 -14 17q0 12 14 18q135 -6 158 -6q27 0 55.5 5t42.5 5q45 0 45 -53v-850q0 -12 11 -12h96q14 -6 14 -19t-14 -16q-90 4 -133 4q-30 0 -65 -7t-50 -7q-24 0 -31.5 10t-7.5 37v98q-110 -158 -287 -158q-105 0 -173 60.5t-68 161.5v698
q0 14 -15 14h-96q-14 3 -14 17q0 11 14 18q135 -6 158 -6q26 0 55.5 5t44.5 5q24 0 33.5 -12.5t9.5 -38.5v-758q0 -61 29.5 -90t77.5 -29q122 0 219 146v729z" />
    <glyph glyph-name="v" unicode="v" horiz-adv-x="897" 
d="M723 821q10 31 10 47q0 17 -12 29t-29 12h-80q-14 3 -14 17q0 12 14 18l152 -6l108 6q15 -6 15 -18q0 -14 -15 -17h-45q-38 0 -57 -55l-293 -852q-9 -25 -26 -25q-20 0 -29 25l-311 887q-9 20 -21 20h-59q-15 3 -15 17q0 12 15 18l176 -6l223 6q12 -6 12 -18
q0 -14 -12 -17h-111q-12 0 -12 -14q0 -10 6 -25l213 -630z" />
    <glyph glyph-name="w" unicode="w" horiz-adv-x="1310" 
d="M1133 815q14 40 14 53q0 17 -12 29t-31 12h-82q-14 3 -14 17q0 12 14 18l152 -6l112 6q14 -7 14 -18q0 -6 -4 -11.5t-10 -5.5h-43q-40 0 -57 -49l-285 -858q-9 -25 -27 -25q-20 0 -26 25l-189 571l-188 -571q-6 -25 -25 -25t-28 25l-307 883q-5 14 -9 19t-12 5h-61
q-15 3 -15 17q0 12 15 18l411 -6l418 6q14 -6 14 -18q0 -14 -14 -17h-108q-15 0 -15 -16q0 -12 6 -27l203 -635zM516 233l127 398l-84 254q-5 13 -9.5 18.5t-14.5 5.5h-218q-14 0 -14 -16q0 -7 4 -23z" />
    <glyph glyph-name="x" unicode="x" horiz-adv-x="892" 
d="M203 111q-21 -31 -21 -45t10 -23.5t23 -9.5h68q14 -7 14 -19t-14 -16l-140 4l-125 -4q-12 3 -12 16t12 19h54q44 0 71 47l219 377l-225 428q-12 24 -33 24h-53q-14 3 -14 17q0 12 14 18l174 -6l191 6q14 -7 14 -18q0 -14 -14 -17h-66q-14 0 -14 -14q0 -5 10 -25l162 -309
l158 270q20 36 20 43q0 15 -9.5 25t-23.5 10h-51q-6 0 -10 5.5t-4 11.5q0 12 14 18l113 -4l116 4q15 -6 15 -18q0 -17 -15 -17h-36q-44 0 -72 -49l-195 -330l254 -477q11 -20 27 -20h63q15 -6 15 -19t-15 -16l-186 4l-213 -4q-14 3 -14 16t14 19h92q17 0 17 12q0 4 -13 27
l-184 354z" />
    <glyph glyph-name="y" unicode="y" horiz-adv-x="878" 
d="M420 944q14 -6 14 -18q0 -14 -14 -17h-101q-14 0 -14 -14q0 -13 8 -25l203 -596l184 539q15 41 15 55q0 17 -12 29t-31 12h-78q-12 3 -12 17q0 12 12 18l143 -6l115 6q12 -6 12 -18q0 -14 -12 -17h-43q-38 0 -57 -55l-416 -1206q-24 -67 -68 -101t-94 -34t-81.5 26
t-31.5 68q0 31 19 52.5t51 21.5q22 0 39 -12t25 -26t21.5 -26t29.5 -12q37 0 59 61l119 342l-311 877q-9 24 -25 24h-59q-15 4 -15 17q0 10 15 18l186 -6z" />
    <glyph glyph-name="z" unicode="z" horiz-adv-x="839" 
d="M600 33q116 3 123 196l2 74q7 14 16 14q16 0 19 -14l-8 -293q0 -16 -15 -16q-1 0 -239 4t-258 4q-27 0 -80 -3t-60 -3q-15 0 -21.5 5t-6.5 19q0 13 10 33l455 858l-285 -4q-104 -3 -115 -174l-4 -71q-6 -15 -18 -15q-11 0 -17 15l8 268q0 16 17 16q2 0 101.5 -2t208 -4
t130.5 -2q27 0 85 3t63 3q28 0 28 -24q0 -7 -8 -27l-459 -862z" />
    <glyph glyph-name="braceleft" unicode="{" horiz-adv-x="643" 
d="M113 567q47 -12 94.5 -35t94.5 -57.5t76.5 -86t29.5 -109.5q0 -59 -29 -214t-29 -239q0 -205 234 -205h24q10 -7 10 -16q0 -14 -10 -17h-43q-168 -1 -255 76.5t-87 224.5q0 90 26.5 244.5t26.5 210.5q0 137 -184 201l-37 10q-10 3 -10 12q0 10 10 13l37 12
q184 61 184 199q0 56 -26.5 210t-26.5 244q0 147 87 224.5t255 76.5h43q10 -3 10 -16q0 -11 -10 -14h-24q-120 0 -177 -54.5t-57 -152.5q0 -84 29 -239t29 -214q0 -57 -29.5 -108.5t-76.5 -86.5t-95 -58.5t-94 -35.5z" />
    <glyph glyph-name="bar" unicode="|" horiz-adv-x="428" 
d="M213 1604q35 0 35 -39v-942v-930q0 -37 -33 -37q-35 0 -35 37v930v942q0 39 33 39z" />
    <glyph glyph-name="braceright" unicode="}" horiz-adv-x="643" 
d="M528 567q-46 12 -94 35.5t-94 58.5t-75 86.5t-29 108.5q0 59 27.5 214t27.5 239q0 207 -234 207h-22q-10 3 -10 14q0 13 10 16h41q169 1 256.5 -76.5t87.5 -224.5q0 -90 -27.5 -244t-27.5 -210q0 -138 186 -199l35 -12q10 -3 10 -13q0 -9 -10 -12l-35 -10
q-186 -65 -186 -201q0 -56 27.5 -210.5t27.5 -244.5q0 -147 -87.5 -224.5t-256.5 -76.5h-41q-10 3 -10 17q0 9 10 16h22q234 0 234 205q0 84 -27.5 239t-27.5 214q0 58 29 109.5t75.5 86t93.5 57.5t94 35z" />
    <glyph glyph-name="asciitilde" unicode="~" 
d="M338 770q40 0 84 -21t82.5 -51t75.5 -59.5t76.5 -50.5t72.5 -21q37 0 69.5 39.5t73.5 120.5q13 21 25 21q13 0 24 -9t11 -22q0 -7 -4 -15q-49 -103 -96 -150.5t-107 -47.5q-39 0 -83 21t-82.5 51t-76 59.5t-77 50.5t-72.5 21q-37 0 -71 -40t-75 -120q-8 -19 -22 -19
q-13 0 -24 8.5t-11 22.5q0 4 4 12q48 103 96 151t107 48z" />
    <glyph glyph-name="uniF8FF" unicode="&#xf8ff;" horiz-adv-x="1638" 
d="M205 0v1229h1229v-1229h-1229zM528 696h41v287h144v41h-328v-41h143v-287zM897 696h41v123h160q47 0 76.5 29t29.5 74t-29.5 73.5t-76.5 28.5h-201v-328zM938 860v123h160q29 0 47 -16.5t18 -44.5q0 -27 -18 -44.5t-47 -17.5h-160zM1253 143l29 29l-86 86q39 45 39 111
q0 73 -50.5 123.5t-123.5 50.5t-123.5 -50.5t-50.5 -123.5t50.5 -123.5t123.5 -50.5q63 0 106 34zM528 205h41v287h144v40h-328v-40h143v-287zM1061 236q-57 0 -95 38t-38 95t38 95t95 38t95 -38t38 -95t-38 -95t-95 -38z" />
    <glyph glyph-name="uni00690307" horiz-adv-x="540" 
d="M276 1227q-46 0 -78 31t-32 77t32 77.5t78 31.5q45 0 77 -32t32 -77t-32 -76.5t-77 -31.5zM72 -2q-15 3 -15 16t15 19h94q14 0 14 14v848q0 14 -14 14h-94q-15 3 -15 17q0 13 15 16q106 -4 149 -4q24 0 60.5 7t52.5 7q21 0 30 -9t9 -30v-866q0 -14 12 -14h96
q15 -6 15 -19t-15 -16l-205 4z" />
    <glyph glyph-name="fraction" horiz-adv-x="1046" 
d="M942 1425q8 11 25 11q15 0 26 -11.5t11 -25.5l-908 -1491q-5 -8 -24 -8q-15 0 -25 10t-10 24z" />
    <glyph glyph-name="uni200A" horiz-adv-x="143" 
 />
    <glyph glyph-name="colon.cap" horiz-adv-x="518" 
d="M258 958q-50 0 -83.5 36t-33.5 91q0 54 33.5 90.5t83.5 36.5q48 0 81.5 -36.5t33.5 -90.5q0 -55 -33.5 -91t-81.5 -36zM262 227q-50 0 -83.5 36.5t-33.5 92.5q0 53 34 89t83 36q47 0 81 -36.5t34 -88.5q0 -56 -33.5 -92.5t-81.5 -36.5z" />
    <glyph glyph-name="hyphen.cap" horiz-adv-x="745" 
d="M137 424q-37 18 -37 63q0 51 37 66h471q37 -15 37 -66q0 -45 -37 -63h-471z" />
    <glyph glyph-name="zero.numerator" horiz-adv-x="620" 
d="M66 1102q0 154 61.5 244t183.5 90q119 0 181.5 -90.5t62.5 -243.5q0 -152 -62.5 -242t-181.5 -90q-122 0 -183.5 90t-61.5 242zM209 1102q0 -122 11.5 -190.5t32.5 -93.5t58 -25q36 0 57 25t32.5 93.5t11.5 190.5q0 123 -11.5 191.5t-32.5 93t-57 24.5q-37 0 -58 -24.5
t-32.5 -93t-11.5 -191.5z" />
    <glyph glyph-name="one.numerator" horiz-adv-x="448" 
d="M76 782q-10 0 -10 11q0 14 12 14h86q8 0 8 10v553q0 8 -8 8h-107q-5 0 -8.5 4.5t-3.5 8.5q0 12 10 12h144q27 0 52.5 16.5t37.5 16.5q17 0 20 -19v-600q0 -10 8 -10h86q13 0 13 -14q0 -11 -10 -11l-164 2z" />
    <glyph glyph-name="two.numerator" horiz-adv-x="577" 
d="M408 874q72 6 75 74l2 45q0 11 15 11q12 0 12 -11l-6 -207q0 -6 -6 -6l-204 1q-205 1 -222 1q-21 0 -21 17q0 10 10 20q83 89 126 139t81 107t52 104t14 103q0 133 -96 133q-45 0 -76 -20.5t-31 -51.5q0 -18 22.5 -49t22.5 -45q0 -19 -14.5 -31t-38.5 -12q-27 0 -43 16
t-16 45q0 75 57.5 127t155.5 52q87 0 146.5 -44t59.5 -120q0 -52 -35 -106.5t-79.5 -94t-119 -104t-120.5 -113.5z" />
    <glyph glyph-name="three.numerator" horiz-adv-x="585" 
d="M287 1124q92 -7 165.5 -55t73.5 -125q0 -76 -72 -126t-173 -50t-163.5 50.5t-62.5 119.5q0 30 16.5 46.5t43.5 16.5q26 0 40.5 -12t14.5 -31q0 -15 -20.5 -42.5t-20.5 -45.5q0 -30 35.5 -50.5t83.5 -20.5q57 0 92 40t35 109q0 81 -37.5 120.5t-99.5 39.5q-9 0 -44.5 -4
t-37.5 -4q-9 0 -16 6t-7 16q0 9 7 15t16 6q2 0 37.5 -4t44.5 -4q54 0 84 44.5t30 110.5q0 55 -28.5 85t-75.5 30q-35 0 -61.5 -15t-26.5 -40q0 -13 15 -37.5t15 -40.5t-14.5 -28.5t-36.5 -12.5q-28 0 -44.5 15t-16.5 40q0 61 61 105.5t148 44.5t150 -39t63 -103
q0 -63 -63.5 -111t-149.5 -59z" />
    <glyph glyph-name="four.numerator" horiz-adv-x="598" 
d="M209 782q-8 0 -8 11q0 14 10 14h82q8 0 8 8v133h-242q-9 0 -15.5 5.5t-6.5 13.5q0 3 10 18l342 438q10 13 25 13q22 0 22 -19v-420h103q14 0 14 -10v-29q0 -10 -14 -10h-103v-133q0 -8 6 -8h72q12 0 12 -14q0 -11 -10 -11l-147 2zM301 997v271l-209 -271h209z" />
    <glyph glyph-name="five.numerator" horiz-adv-x="571" 
d="M133 1137q58 28 150 28q97 0 166 -52t69 -140t-71 -146.5t-179 -58.5q-91 0 -151 47t-60 117q0 30 17 47.5t45 17.5q23 0 38 -12.5t15 -30.5q0 -19 -22.5 -46.5t-22.5 -43.5q0 -27 32.5 -46t73.5 -19q67 0 104.5 43.5t37.5 126.5q0 76 -39 121t-94 45q-53 0 -105 -25
q-18 -6 -20 -6h-2q-11 0 -11 8v293q0 18 13 18h311q28 0 31 27l2 23q0 12 12 12t12 -12l-4 -150q0 -12 -16 -12q-1 0 -76 1.5t-155 3t-93 1.5q-8 0 -8 -6v-174z" />
    <glyph glyph-name="six.numerator" horiz-adv-x="595" 
d="M307 768q-120 0 -184 72.5t-64 191.5q0 135 99 253.5t264 156.5q8 2 20 2q6 0 10.5 -3.5t4.5 -8.5q0 -9 -15 -15q-59 -18 -103 -50.5t-68.5 -72.5t-37.5 -76.5t-18 -76.5q42 47 117 47q86 0 150.5 -53.5t64.5 -149.5q0 -97 -69.5 -157t-170.5 -60zM303 795q50 0 73 44.5
t23 143.5q0 93 -21.5 134.5t-70.5 41.5q-100 0 -100 -176q0 -98 22.5 -143t73.5 -45z" />
    <glyph glyph-name="seven.numerator" horiz-adv-x="524" 
d="M156 1317q-71 0 -74 -76l-2 -37q-3 -14 -17 -14q-12 0 -12 12l4 213q0 10 8 10q2 0 99.5 -0.5t200.5 -1t118 -0.5q10 0 16.5 -6t6.5 -14q0 -5 -6 -17l-250 -428q-15 -27 -15 -45q0 -17 15.5 -28t34 -16.5t34 -17.5t15.5 -30q0 -22 -17.5 -37.5t-46.5 -15.5q-38 0 -65 27
t-27 71q0 30 25 78l223 375z" />
    <glyph glyph-name="eight.numerator" horiz-adv-x="630" 
d="M315 768q-107 0 -180.5 50t-73.5 132q0 67 54.5 113t130.5 63q-68 15 -117 54.5t-49 95.5q0 72 69 116t166 44q98 0 166 -43.5t68 -116.5q0 -56 -48 -95.5t-118 -56.5q76 -15 131 -61t55 -113q0 -82 -73.5 -132t-180.5 -50zM315 1137q91 0 91 139q0 135 -91 135
q-92 0 -92 -135q0 -139 92 -139zM315 795q107 0 107 157q0 160 -107 160q-106 0 -106 -160q0 -82 26.5 -119.5t79.5 -37.5z" />
    <glyph glyph-name="nine.numerator" horiz-adv-x="598" 
d="M293 1436q118 0 181 -72t63 -190q0 -142 -108 -258t-282 -154q-10 -2 -18 -2q-14 0 -14 12q0 8 14 14q79 22 136.5 71t83 102t32.5 108q-45 -45 -111 -45q-89 0 -154 52t-65 149q0 95 70 154t172 59zM293 1409q-48 0 -71 -43.5t-23 -142.5q0 -95 21 -133.5t71 -38.5
q49 0 73.5 40.5t24.5 131.5q0 98 -23 142t-73 44z" />
    <glyph glyph-name="zero.denominator" horiz-adv-x="620" 
d="M66 496q0 154 61.5 243.5t183.5 89.5q120 0 182 -90t62 -243q0 -152 -62.5 -242t-181.5 -90q-122 0 -183.5 90t-61.5 242zM209 496q0 -122 11.5 -190.5t32.5 -94t58 -25.5q54 0 77.5 65.5t23.5 244.5q0 123 -11.5 191.5t-32.5 93t-57 24.5q-37 0 -58 -24.5t-32.5 -93
t-11.5 -191.5z" />
    <glyph glyph-name="one.denominator" horiz-adv-x="448" 
d="M76 176q-10 0 -10 10q0 15 12 15h86q8 0 8 10v553q0 8 -8 8h-107q-12 0 -12 12q0 13 10 13h144q27 0 52.5 16t37.5 16q17 0 20 -18v-600q0 -10 8 -10h86q6 0 9.5 -5t3.5 -10q0 -10 -10 -10l-164 2z" />
    <glyph glyph-name="two.denominator" horiz-adv-x="577" 
d="M408 268q72 6 75 74l2 45q0 10 15 10q12 0 12 -10l-6 -207q0 -6 -6 -6l-204 1q-205 1 -222 1q-21 0 -21 17q0 10 10 20q83 89 126 139t81 107t52 104t14 103q0 133 -96 133q-45 0 -76 -20.5t-31 -51.5q0 -18 22.5 -49t22.5 -45q0 -19 -14.5 -31t-38.5 -12q-27 0 -43 16
t-16 45q0 75 57.5 126.5t155.5 51.5q88 0 147 -43.5t59 -119.5q0 -52 -35 -106.5t-79.5 -94t-119 -104t-120.5 -113.5z" />
    <glyph glyph-name="three.denominator" horiz-adv-x="585" 
d="M287 518q92 -7 165.5 -55t73.5 -125q0 -76 -72 -126t-173 -50t-163.5 50.5t-62.5 119.5q0 30 16.5 46.5t43.5 16.5q26 0 40.5 -12t14.5 -31q0 -15 -20.5 -42.5t-20.5 -45.5q0 -30 35.5 -50.5t83.5 -20.5q57 0 92 40t35 109q0 81 -37.5 120.5t-99.5 39.5q-9 0 -44.5 -4
t-37.5 -4q-9 0 -16 6t-7 16q0 9 7 15t16 6q2 0 37.5 -4.5t44.5 -4.5q54 0 84 45t30 111q0 55 -28.5 85t-75.5 30q-34 0 -61 -15.5t-27 -40.5q0 -13 15 -37t15 -40t-14.5 -28.5t-36.5 -12.5q-28 0 -44.5 15t-16.5 40q0 61 61 105t148 44t150 -38.5t63 -102.5
q0 -63 -63.5 -111t-149.5 -59z" />
    <glyph glyph-name="four.denominator" horiz-adv-x="598" 
d="M209 176q-8 0 -8 10q0 15 10 15h82q8 0 8 8v133h-242q-9 0 -15.5 5.5t-6.5 12.5q0 4 10 19l342 438q9 12 25 12q22 0 22 -18v-420h103q14 0 14 -10v-29q0 -10 -14 -10h-103v-133q0 -8 6 -8h72q12 0 12 -15q0 -10 -10 -10l-147 2zM301 391v271l-209 -271h209z" />
    <glyph glyph-name="five.denominator" horiz-adv-x="571" 
d="M133 530q60 29 150 29q97 0 166 -52t69 -140t-71 -146.5t-179 -58.5q-91 0 -151 47t-60 117q0 30 17 47.5t45 17.5q23 0 38 -12.5t15 -30.5q0 -19 -22.5 -46.5t-22.5 -43.5q0 -27 32.5 -46t73.5 -19q67 0 104.5 43t37.5 126q0 76 -39 121t-94 45t-105 -24q-18 -6 -20 -6
h-2q-11 0 -11 8v293q0 18 13 18h311q28 0 31 27l2 22q0 13 12 13t12 -13l-4 -149q0 -12 -16 -12q-1 0 -76 1.5t-155 3t-93 1.5q-8 0 -8 -6v-175z" />
    <glyph glyph-name="six.denominator" horiz-adv-x="595" 
d="M307 162q-120 0 -184 72.5t-64 191.5q0 135 99 253.5t264 156.5q8 2 20 2q6 0 10.5 -4t4.5 -9q0 -8 -15 -14q-59 -18 -103 -50.5t-68.5 -72.5t-37.5 -76.5t-18 -76.5q42 47 117 47q86 0 150.5 -53.5t64.5 -149.5q0 -97 -69.5 -157t-170.5 -60zM303 188q50 0 73 45t23 144
q0 93 -21.5 134.5t-70.5 41.5q-100 0 -100 -176q0 -98 22.5 -143.5t73.5 -45.5z" />
    <glyph glyph-name="seven.denominator" horiz-adv-x="524" 
d="M156 711q-71 0 -74 -76l-2 -37q-3 -14 -17 -14q-12 0 -12 12l4 213q0 10 8 10q2 0 99.5 -0.5t200.5 -1t118 -0.5q10 0 16.5 -6t6.5 -14q0 -5 -6 -17l-250 -428q-15 -27 -15 -45q0 -17 15.5 -28t34 -16.5t34 -17.5t15.5 -30q0 -22 -17.5 -37.5t-46.5 -15.5q-38 0 -65 27
t-27 71q0 30 25 78l223 375z" />
    <glyph glyph-name="eight.denominator" horiz-adv-x="630" 
d="M315 162q-107 0 -180.5 50t-73.5 132q0 67 54.5 113t130.5 63q-68 15 -117 54.5t-49 95.5q0 72 69 115.5t166 43.5q98 0 166 -43.5t68 -115.5q0 -56 -48 -95.5t-118 -56.5q76 -15 131 -61t55 -113q0 -82 -73.5 -132t-180.5 -50zM315 530q91 0 91 140q0 135 -91 135
q-92 0 -92 -135q0 -140 92 -140zM315 188q107 0 107 158q0 160 -107 160q-106 0 -106 -160q0 -158 106 -158z" />
    <glyph glyph-name="nine.denominator" horiz-adv-x="598" 
d="M293 829q118 0 181 -72t63 -190q0 -142 -107.5 -257.5t-282.5 -153.5q-10 -2 -18 -2q-14 0 -14 12q0 8 14 14q79 22 136.5 71t83 102t32.5 108q-45 -45 -111 -45q-90 0 -154.5 51.5t-64.5 148.5q0 95 70 154t172 59zM293 803q-48 0 -71 -44t-23 -143q0 -95 21 -133.5
t71 -38.5q49 0 73.5 40.5t24.5 131.5q0 98 -23 142.5t-73 44.5z" />
    </font>
</defs>
</svg>
