<?xml version="1.0" standalone="no"?>
<!DOCTYPE svg PUBLIC "-//W3C//DTD SVG 1.1//EN" "http://www.w3.org/Graphics/SVG/1.1/DTD/svg11.dtd" >
<svg xmlns="http://www.w3.org/2000/svg" xmlns:xlink="http://www.w3.org/1999/xlink" version="1.1">
<metadata>
Created by FontForge 20201107 at Tue Jun 10 10:09:30 2025
 By 
Copyright 2019-2024 Typotheque. All rights reserved.
</metadata>
<defs>
<font id="PingL-Regular" horiz-adv-x="1347" >
  <font-face 
    font-family="Ping xsTRIAL Regular"
    font-weight="400"
    font-stretch="normal"
    units-per-em="2048"
    panose-1="0 0 0 0 0 0 0 0 0 0"
    ascent="1638"
    descent="-410"
    x-height="1069"
    cap-height="1440"
    bbox="-350 -449 1868 1608"
    underline-thickness="102"
    underline-position="-204"
    unicode-range="U+0020-F8FF"
  />
<missing-glyph horiz-adv-x="1458" 
d="M1239 1438h55v-56h-55v56zM1085 1438h56v-56h-56v56zM932 1438h55v-56h-55v56zM164 1438h55v-56h-55v56zM317 1438h56v-56h-56v56zM471 1438h55v-56h-55v56zM778 1438h56v-56h-56v56zM625 1438h55v-56h-55v56zM164 1284h55v-55h-55v55zM1239 1284h55v-55h-55v55z
M932 1130h55v-55h-55v55zM164 1130h55v-55h-55v55zM1239 1130h55v-55h-55v55zM471 1130h55v-55h-55v55zM625 1130h55v-55h-55v55zM778 1130h56v-55h-56v55zM932 977h55v-55h-55v55zM164 977h55v-55h-55v55zM1239 977h55v-55h-55v55zM164 823h55v-55h-55v55zM932 823h55v-55
h-55v55zM625 823h55v-55h-55v55zM1239 823h55v-55h-55v55zM778 823h56v-55h-56v55zM625 670h55v-56h-55v56zM1239 670h55v-56h-55v56zM164 670h55v-56h-55v56zM164 516h55v-55h-55v55zM1239 516h55v-55h-55v55zM625 362h55v-55h-55v55zM164 362h55v-55h-55v55zM1239 362h55
v-55h-55v55zM164 209h55v-55h-55v55zM1239 209h55v-55h-55v55zM1239 55h55v-55h-55v55zM1085 55h56v-55h-56v55zM932 55h55v-55h-55v55zM164 55h55v-55h-55v55zM625 55h55v-55h-55v55zM471 55h55v-55h-55v55zM317 55h56v-55h-56v55zM778 55h56v-55h-56v55z" />
    <glyph glyph-name="uniFB01" unicode="fi" horiz-adv-x="1208" 
d="M850 1395q0 47 33.5 79.5t79.5 32.5t80 -32.5t34 -79.5q0 -46 -34 -79.5t-80 -33.5t-79.5 33.5t-33.5 79.5zM68 1069h159v4q0 195 99 291t276 96q79 0 137 -18l-26 -137q-74 14 -115 14q-107 0 -162 -55.5t-55 -190.5v-4h291v-131h-291v-938h-154v938h-159v131zM885 0
v1069h153v-1069h-153z" />
    <glyph glyph-name="uniFB02" unicode="fl" horiz-adv-x="1206" 
d="M68 1069h159v4q0 195 99 291t276 96q79 0 137 -18l-26 -137q-74 14 -115 14q-107 0 -162 -55.5t-55 -190.5v-4h291v-131h-291v-938h-154v938h-159v131zM883 0v1440h153v-1440h-153z" />
    <glyph glyph-name="uni2E28" unicode="&#x28;&#x28;" horiz-adv-x="983" 
d="M598 1440q-157 -188 -244.5 -439.5t-87.5 -476.5t85 -478t237 -439h-180q-149 184 -226.5 419.5t-77.5 489.5q0 255 81 495.5t237 428.5h176zM969 1440q-158 -188 -246 -439.5t-88 -476.5t85 -478t238 -439h-182q-148 184 -225.5 420t-77.5 489q0 254 81 494.5t237 429.5
h178z" />
    <glyph glyph-name="uni2E29" unicode="&#x29;&#x29;" horiz-adv-x="985" 
d="M385 -393q158 188 246 439.5t88 477.5q0 224 -85.5 477t-238.5 439h180q149 -184 227.5 -420.5t78.5 -489.5t-81 -492.5t-237 -430.5h-178zM16 -393q157 188 244.5 439.5t87.5 477.5q0 224 -84.5 477t-236.5 439h180q149 -183 226 -419t77 -491t-80 -494t-237 -429h-177z
" />
    <glyph glyph-name="uni0030FE00" unicode="0" horiz-adv-x="1206" 
d="M606 -20q-113 0 -197.5 35.5t-138.5 97t-86.5 157t-45.5 204t-13 249.5q0 109 10 201.5t31.5 177t59 148.5t90 112t126 73t164.5 25q111 0 195 -35.5t137 -98t86 -157.5t46 -202t13 -244q0 -743 -477 -743zM291 723q0 -205 22 -326l510 811q-74 103 -221 103
q-74 0 -128.5 -26.5t-89 -74t-55.5 -122.5t-29.5 -162t-8.5 -203zM606 129q170 0 242 147.5t70 442.5q0 223 -35 352l-516 -821q71 -121 239 -121z" />
    <glyph glyph-name="uni301A" unicode="[[" horiz-adv-x="1017" 
d="M193 -393v1833h757v-144h-233v-1546h233v-143h-757zM346 -250h217v1546h-217v-1546z" />
    <glyph glyph-name="uni301B" unicode="]]" horiz-adv-x="1017" 
d="M825 -393h-757v143h233v1546h-233v144h757v-1833zM672 1296h-217v-1546h217v1546z" />
    <glyph glyph-name=".notdef" horiz-adv-x="1458" 
d="M1239 1438h55v-56h-55v56zM1085 1438h56v-56h-56v56zM932 1438h55v-56h-55v56zM164 1438h55v-56h-55v56zM317 1438h56v-56h-56v56zM471 1438h55v-56h-55v56zM778 1438h56v-56h-56v56zM625 1438h55v-56h-55v56zM164 1284h55v-55h-55v55zM1239 1284h55v-55h-55v55z
M932 1130h55v-55h-55v55zM164 1130h55v-55h-55v55zM1239 1130h55v-55h-55v55zM471 1130h55v-55h-55v55zM625 1130h55v-55h-55v55zM778 1130h56v-55h-56v55zM932 977h55v-55h-55v55zM164 977h55v-55h-55v55zM1239 977h55v-55h-55v55zM164 823h55v-55h-55v55zM932 823h55v-55
h-55v55zM625 823h55v-55h-55v55zM1239 823h55v-55h-55v55zM778 823h56v-55h-56v55zM625 670h55v-56h-55v56zM1239 670h55v-56h-55v56zM164 670h55v-56h-55v56zM164 516h55v-55h-55v55zM1239 516h55v-55h-55v55zM625 362h55v-55h-55v55zM164 362h55v-55h-55v55zM1239 362h55
v-55h-55v55zM164 209h55v-55h-55v55zM1239 209h55v-55h-55v55zM1239 55h55v-55h-55v55zM1085 55h56v-55h-56v55zM932 55h55v-55h-55v55zM164 55h55v-55h-55v55zM625 55h55v-55h-55v55zM471 55h55v-55h-55v55zM317 55h56v-55h-56v55zM778 55h56v-55h-56v55z" />
    <glyph glyph-name=".null" horiz-adv-x="0" 
 />
    <glyph glyph-name="nonmarkingreturn" horiz-adv-x="682" 
 />
    <glyph glyph-name="space" unicode=" " horiz-adv-x="501" 
 />
    <glyph glyph-name="exclam" unicode="!" horiz-adv-x="542" 
d="M213 487l-39 953h193l-39 -953h-115zM152 102q0 52 34.5 87.5t85.5 35.5q52 0 87.5 -35.5t35.5 -87.5q0 -51 -35.5 -86.5t-87.5 -35.5q-51 0 -85.5 35.5t-34.5 86.5z" />
    <glyph glyph-name="quotedbl" unicode="&#x22;" horiz-adv-x="770" 
d="M152 909l-19 531h154l-21 -531h-114zM502 909l-19 531h154l-21 -531h-114z" />
    <glyph glyph-name="numbersign" unicode="#" horiz-adv-x="1343" 
d="M170 0l76 395h-150v133h176l74 390h-196v135h223l73 387h136l-74 -387h442l74 387h135l-74 -387h166v-135h-190l-74 -390h213v-133h-237l-76 -395h-139l75 395h-438l-76 -395h-139zM410 528h440l74 390h-441z" />
    <glyph glyph-name="dollar" unicode="$" horiz-adv-x="1052" 
d="M449 -182v221q-97 5 -198.5 31t-162.5 65l51 152q171 -97 346 -97q157 0 239.5 60t82.5 158q0 54 -24 92.5t-64.5 61.5t-92.5 39.5t-110 30t-116 29.5t-110 43t-92.5 64.5t-64.5 99.5t-24 144q0 144 92.5 238.5t247.5 121.5v236h155v-228q97 -5 187 -32t141 -70l-68 -133
q-156 88 -305 88q-141 0 -215 -57.5t-74 -149.5q0 -76 39 -126.5t101 -76t136.5 -44.5t149.5 -41.5t137 -56t101 -99.5t39 -162q0 -147 -102 -244.5t-267 -126.5v-231h-155z" />
    <glyph glyph-name="percent" unicode="%" horiz-adv-x="1826" 
d="M72 1083q0 91 31.5 164t85.5 118.5t121.5 69t142.5 23.5q73 0 138.5 -22t117.5 -65t83 -113.5t31 -159.5q0 -93 -32.5 -167t-87 -120t-122 -70t-141.5 -24q-69 0 -133.5 22.5t-117.5 66t-85 115.5t-32 162zM287 0l1054 1440h187l-1055 -1440h-186zM225 1092
q0 -115 62 -177.5t162 -62.5q99 0 160 61.5t61 171.5q0 108 -64 173t-160 65q-92 0 -156.5 -60t-64.5 -171zM1004 348q0 91 31.5 164t85 118.5t121 69t142.5 23.5q74 0 140 -22.5t118.5 -65.5t83.5 -113.5t31 -159.5q0 -93 -33 -167.5t-87.5 -120t-122.5 -70t-142 -24.5
q-69 0 -133.5 23t-117.5 66.5t-85 116t-32 162.5zM1159 356q0 -115 60.5 -177t160.5 -62q99 0 160.5 61.5t61.5 171.5q0 108 -63.5 173t-160.5 65q-91 0 -155 -60.5t-64 -171.5z" />
    <glyph glyph-name="ampersand" unicode="&#x26;" horiz-adv-x="1452" 
d="M1135 782h165q-3 -274 -176 -501l289 -281h-229l-168 164q-210 -184 -473 -184q-201 0 -321 107t-120 271q0 72 23.5 133t69 110t94 85t114.5 74q-88 86 -138 167t-50 175q0 144 108 251t271 107q160 0 268.5 -97.5t108.5 -236.5q0 -65 -25.5 -121.5t-75 -105
t-98.5 -83.5t-121 -77l363 -352q124 173 121 395zM379 1110q0 -62 40.5 -122.5t127.5 -147.5q63 35 102.5 60.5t80 61t60 75t19.5 85.5q0 85 -59.5 139t-153.5 54q-56 0 -99.5 -19t-68 -49.5t-37 -65.5t-12.5 -71zM270 369q0 -95 77 -164.5t210 -69.5q188 0 348 135
l-395 385q-116 -71 -178 -136.5t-62 -149.5z" />
    <glyph glyph-name="quotesingle" unicode="'" horiz-adv-x="419" 
d="M152 909l-19 531h154l-21 -531h-114z" />
    <glyph glyph-name="parenleft" unicode="(" horiz-adv-x="614" 
d="M598 1440q-157 -188 -244.5 -439.5t-87.5 -476.5t85 -478t237 -439h-180q-149 184 -226.5 419.5t-77.5 489.5q0 255 81 495.5t237 428.5h176z" />
    <glyph glyph-name="parenright" unicode=")" horiz-adv-x="614" 
d="M16 1440h177q156 -188 236.5 -428.5t80.5 -495.5q0 -254 -77 -490t-226 -419h-180q152 186 236.5 439t84.5 478t-87.5 476.5t-244.5 439.5z" />
    <glyph glyph-name="asterisk" unicode="*" horiz-adv-x="997" 
d="M186 799l-67 116l264 144l-264 139l67 121l258 -168l-16 309h135l-8 -301l254 162l70 -121l-277 -139l279 -141l-68 -117l-258 160l12 -304h-139l16 310z" />
    <glyph glyph-name="plus" unicode="+" horiz-adv-x="1236" 
d="M541 150v481h-482v153h482v482h153v-482h482v-153h-482v-481h-153z" />
    <glyph glyph-name="comma" unicode="," horiz-adv-x="440" 
d="M86 -231l70 487h157l-96 -487h-131z" />
    <glyph glyph-name="hyphen" unicode="-" horiz-adv-x="817" 
d="M705 530h-592v121h592v-121z" />
    <glyph glyph-name="period" unicode="." horiz-adv-x="473" 
d="M115 102q0 52 35 87.5t86 35.5q52 0 87 -35t35 -88q0 -51 -35 -86.5t-87 -35.5q-51 0 -86 35.5t-35 86.5z" />
    <glyph glyph-name="slash" unicode="/" horiz-adv-x="698" 
d="M39 -238l471 1678h147l-471 -1678h-147z" />
    <glyph glyph-name="zero" unicode="0" horiz-adv-x="1206" 
d="M606 -20q-113 0 -197.5 35.5t-138.5 97t-86.5 157t-45.5 204t-13 249.5q0 109 10 201.5t31.5 177t59 148.5t90 112t126 73t164.5 25q111 0 195 -35.5t137 -98t86 -157.5t46 -202t13 -244q0 -743 -477 -743zM606 129q71 0 124 25.5t89 73.5t58.5 121.5t32 163.5t8.5 206
q-1 148 -15.5 252t-49.5 183.5t-97 118t-154 38.5q-74 0 -128.5 -26.5t-89 -74t-55.5 -122.5t-29.5 -162t-8.5 -203q0 -123 7.5 -211t28 -164.5t55.5 -122t90.5 -71t133.5 -25.5z" />
    <glyph glyph-name="one" unicode="1" horiz-adv-x="770" 
d="M412 0v1245l-306 -194l-65 127l399 262h131v-1440h-159z" />
    <glyph glyph-name="two" unicode="2" horiz-adv-x="1071" 
d="M106 0v143q97 94 156 152t133 133t117 123.5t92 107.5t75.5 102.5t51 92t34 92t9.5 86.5q0 121 -78.5 199t-212.5 78q-167 0 -331 -150l-60 125q52 49 99.5 83t131 63.5t177.5 29.5q88 0 162 -23.5t125 -64t86.5 -94.5t52 -115t16.5 -127q0 -67 -19.5 -134t-63.5 -140
t-92.5 -137.5t-130.5 -151t-151.5 -154.5t-179.5 -172h662v-147h-861z" />
    <glyph glyph-name="three" unicode="3" horiz-adv-x="1056" 
d="M190 1210l-69 117q64 61 156.5 97t199.5 36q197 0 309.5 -104.5t112.5 -265.5q0 -105 -58.5 -194.5t-170.5 -141.5q129 -37 201.5 -126.5t72.5 -209.5q0 -83 -32 -160.5t-91 -140t-151.5 -100t-204.5 -37.5q-110 0 -211 35t-174 102l72 133q133 -119 309 -119
q144 0 230.5 79.5t86.5 197.5q0 116 -82.5 188t-234.5 72h-158v147h154q128 0 201 71.5t73 176.5t-73 175.5t-207 70.5q-165 0 -261 -99z" />
    <glyph glyph-name="four" unicode="4" horiz-adv-x="1228" 
d="M780 -20v362h-692v119l719 979h133v-951h205v-147h-205v-362h-160zM270 489h510v693z" />
    <glyph glyph-name="five" unicode="5" horiz-adv-x="1062" 
d="M467 -20q-109 0 -215 36t-180 84l43 146q200 -117 356 -117q140 0 234 84t94 227q0 62 -19 115t-59.5 98t-113.5 71t-171 26q-65 0 -116.5 -13t-124.5 -43l-19 15l105 731h632v-144h-505l-66 -424q67 13 131 13q225 0 358.5 -120.5t133.5 -313.5q0 -136 -69.5 -245
t-183 -167.5t-245.5 -58.5z" />
    <glyph glyph-name="six" unicode="6" horiz-adv-x="1140" 
d="M682 1440h186l-399 -555q59 18 125 18q203 0 337 -130.5t134 -328.5q0 -201 -139.5 -332.5t-350.5 -131.5q-208 0 -338.5 127.5t-130.5 332.5q0 114 48.5 231t164.5 275zM274 451q0 -147 85.5 -234.5t222.5 -87.5t226 87t89 228q0 137 -86.5 222.5t-230.5 85.5
q-163 0 -263 -115q-43 -97 -43 -186z" />
    <glyph glyph-name="seven" unicode="7" horiz-adv-x="1030" 
d="M975 1327l-617 -1327h-170l613 1294h-733v146h907v-113z" />
    <glyph glyph-name="eight" unicode="8" horiz-adv-x="1136" 
d="M113 406q0 143 70 235.5t184 134.5q-193 90 -193 307q0 91 34.5 164.5t92.5 118.5t129 68.5t148 23.5q74 0 143 -22t125.5 -65t90.5 -113.5t34 -159.5q0 -118 -55.5 -198.5t-149.5 -123.5q115 -41 186.5 -130.5t71.5 -233.5q0 -103 -40 -187t-106 -136.5t-147.5 -80.5
t-169.5 -28q-84 0 -162 26.5t-143 77t-104 134t-39 188.5zM332 1090q0 -111 74.5 -175.5t166.5 -64.5q91 0 164.5 63.5t73.5 169.5q0 108 -70.5 171t-169.5 63q-96 0 -167.5 -58.5t-71.5 -168.5zM281 410q0 -93 43.5 -158.5t107.5 -94t139 -28.5q114 0 199.5 72.5
t85.5 208.5q0 68 -25.5 123.5t-67.5 89t-92.5 51.5t-103.5 18q-51 0 -99 -15.5t-91 -47t-69.5 -88.5t-26.5 -131z" />
    <glyph glyph-name="nine" unicode="9" horiz-adv-x="1140" 
d="M459 0h-187l400 553q-52 -16 -123 -16q-204 0 -338.5 130t-134.5 328q0 201 138.5 332t350.5 131q208 0 338.5 -127t130.5 -332q0 -115 -49.5 -233t-163.5 -272zM244 999q0 -136 88.5 -223.5t230.5 -87.5q164 0 264 121q41 90 41 180q0 147 -85 232.5t-222 85.5
q-139 0 -228 -86t-89 -222z" />
    <glyph glyph-name="colon" unicode=":" horiz-adv-x="526" 
d="M141 969q0 52 35 87.5t86 35.5q52 0 87.5 -35t35.5 -88q0 -51 -35.5 -87t-87.5 -36q-51 0 -86 36t-35 87zM141 102q0 52 35 87.5t86 35.5q52 0 87.5 -35.5t35.5 -87.5q0 -51 -35.5 -86.5t-87.5 -35.5q-51 0 -86 35.5t-35 86.5z" />
    <glyph glyph-name="semicolon" unicode=";" horiz-adv-x="540" 
d="M168 969q0 52 35 87.5t86 35.5q53 0 88 -35t35 -88q0 -51 -35.5 -87t-87.5 -36q-51 0 -86 36t-35 87zM125 -231l70 487h157l-96 -487h-131z" />
    <glyph glyph-name="less" unicode="&#x3c;" horiz-adv-x="1087" 
d="M940 1229v-182l-645 -336l645 -344v-189l-809 465v129z" />
    <glyph glyph-name="equal" unicode="=" horiz-adv-x="1171" 
d="M1047 901h-922v154h922v-154zM1047 360h-922v154h922v-154z" />
    <glyph glyph-name="greater" unicode="&#x3e;" horiz-adv-x="1087" 
d="M147 1047v182l809 -457v-129l-809 -465v189l646 344z" />
    <glyph glyph-name="question" unicode="?" horiz-adv-x="978" 
d="M481 465l-139 35q10 70 38 128t63.5 97.5t76.5 73.5t80 63.5t70.5 60t51 70.5t19.5 88q0 103 -88.5 167.5t-206.5 64.5q-162 0 -329 -150l-60 119q39 37 73.5 63.5t85.5 55t115 44t136 15.5q107 0 194 -34.5t139 -90.5t79.5 -122t27.5 -134q0 -61 -21 -112t-56 -88
t-77 -71t-86.5 -68t-82.5 -71.5t-66 -89.5t-37 -114zM299 102q0 52 35 87.5t86 35.5q52 0 87.5 -35.5t35.5 -87.5q0 -51 -35.5 -86.5t-87.5 -35.5q-51 0 -86 35.5t-35 86.5z" />
    <glyph glyph-name="at" unicode="@" horiz-adv-x="1728" 
d="M469 461q0 204 113 328t278 124q144 0 211 -139l16 121h152l-74 -551q-7 -50 10 -81.5t60 -31.5q60 0 116 61.5t90 162t34 207.5q0 105 -35.5 199t-103.5 168t-177 117.5t-246 43.5q-128 0 -236 -38.5t-186 -107t-133 -162.5t-81.5 -205.5t-26.5 -234.5
q0 -285 145.5 -432t419.5 -147q168 0 365 57l32 -127q-207 -69 -407 -69q-212 0 -370 81t-246.5 242t-88.5 385q0 144 35.5 277t106 244.5t169 194t230.5 129t283 46.5q166 0 302 -55.5t221 -148t131 -207t46 -238.5q0 -71 -14.5 -146.5t-47.5 -153t-80 -138.5t-119.5 -99.5
t-158.5 -38.5q-98 0 -141.5 44t-50.5 122q-109 -139 -264 -139q-124 0 -201.5 86.5t-77.5 249.5zM627 487q0 -115 47 -168t114 -53q78 0 146.5 71.5t101.5 192.5l2 13q-24 123 -74.5 177t-111.5 54q-96 0 -160.5 -69t-64.5 -218z" />
    <glyph glyph-name="A" unicode="A" horiz-adv-x="1277" 
d="M18 0l543 1440h160l536 -1440h-178l-155 430h-576l-151 -430h-179zM399 578h471l-237 659z" />
    <glyph glyph-name="B" unicode="B" horiz-adv-x="1181" 
d="M195 0v1440h327q101 0 183 -20.5t147.5 -63.5t102 -118t36.5 -177q0 -221 -186 -316q136 -40 211.5 -129.5t75.5 -216.5q0 -181 -139 -290t-353 -109h-405zM520 1292h-166v-493h168q145 0 223 69t78 193q0 120 -76.5 175.5t-226.5 55.5zM575 668h-221v-521h252
q152 0 235 77t83 184q0 113 -94.5 186.5t-254.5 73.5z" />
    <glyph glyph-name="C" unicode="C" horiz-adv-x="1386" 
d="M1221 315l106 -110q-97 -106 -230.5 -165.5t-287.5 -59.5q-316 0 -512.5 205t-196.5 538q0 156 54 293t147.5 234.5t225 153.5t282.5 56q158 0 289.5 -54t226.5 -155l-100 -131q-76 93 -185 141t-235 48q-107 0 -203.5 -40.5t-171 -113.5t-118.5 -185.5t-44 -246.5
q0 -141 43 -255t117 -187t171.5 -111.5t209.5 -38.5q119 0 227.5 47t184.5 137z" />
    <glyph glyph-name="D" unicode="D" horiz-adv-x="1388" 
d="M195 0v1440h364q211 0 375 -85t258 -249.5t94 -384.5q0 -167 -54.5 -303.5t-151.5 -227.5t-230.5 -140.5t-290.5 -49.5h-364zM565 1292h-211v-1145h209q250 0 402.5 148t152.5 414q0 179 -72.5 312.5t-197 202t-283.5 68.5z" />
    <glyph glyph-name="E" unicode="E" horiz-adv-x="1083" 
d="M195 0v1440h786v-148h-627v-495h537v-148h-537v-502h627v-147h-786z" />
    <glyph glyph-name="F" unicode="F" horiz-adv-x="1048" 
d="M195 0v1440h786v-148h-627v-534h557v-148h-557v-610h-159z" />
    <glyph glyph-name="G" unicode="G" horiz-adv-x="1556" 
d="M872 629v147h613v-74q0 -204 -83.5 -368t-237 -259t-349.5 -95q-208 0 -370.5 92t-253.5 261.5t-91 389.5q0 156 54 293t148 234.5t227 153.5t286 56q310 0 531 -203l-107 -124q-180 176 -428 176q-109 0 -207 -40.5t-173 -113.5t-119 -185t-44 -247q0 -141 43 -255
t118.5 -187t174 -111.5t211.5 -38.5q97 0 183 33t153.5 94.5t111 157t52.5 213.5h-443z" />
    <glyph glyph-name="H" unicode="H" horiz-adv-x="1593" 
d="M195 0v1440h159v-643h885v643h160v-1440h-160v647h-885v-647h-159z" />
    <glyph glyph-name="I" unicode="I" horiz-adv-x="548" 
d="M195 0v1440h159v-1440h-159z" />
    <glyph glyph-name="J" unicode="J" horiz-adv-x="980" 
d="M377 -20q-201 0 -352 104l43 143q133 -96 307 -96q121 0 193.5 69t72.5 201v1039h160v-1032q0 -190 -120 -309t-304 -119z" />
    <glyph glyph-name="K" unicode="K" horiz-adv-x="1153" 
d="M195 0v1440h159v-695l594 695h185l-609 -709l627 -731h-205l-592 692v-692h-159z" />
    <glyph glyph-name="L" unicode="L" horiz-adv-x="991" 
d="M195 0v1440h159v-1293h604v-147h-763z" />
    <glyph glyph-name="M" unicode="M" horiz-adv-x="1755" 
d="M195 0v1440h157v-4l535 -985l516 989h158v-1440h-160v1133l-447 -846h-155l-445 819v-1106h-159z" />
    <glyph glyph-name="N" unicode="N" horiz-adv-x="1572" 
d="M195 0v1440h159l738 -1000l127 -188v1188h159v-1440h-159l-756 1028l-109 158v-1186h-159z" />
    <glyph glyph-name="O" unicode="O" horiz-adv-x="1624" 
d="M815 -20q-208 0 -370.5 92t-253.5 261.5t-91 389.5q0 156 54.5 293t149 234.5t227.5 153.5t284 56q154 0 286 -54.5t225 -151t145.5 -233.5t52.5 -298q0 -207 -93.5 -377.5t-256 -268t-359.5 -97.5zM815 131q104 0 200.5 40t172.5 112.5t122 186t46 249.5
q-1 137 -45 250.5t-119 186.5t-173 113t-208 40q-109 0 -207 -40.5t-173 -113.5t-119 -185t-44 -247q0 -141 43 -255t118 -187t173.5 -111.5t212.5 -38.5z" />
    <glyph glyph-name="P" unicode="P" horiz-adv-x="1095" 
d="M195 0v1440h309q114 0 208 -27t166 -81t112 -142t40 -203q0 -111 -42.5 -198.5t-116 -141t-167 -81t-200.5 -27.5h-150v-539h-159zM508 1292h-154v-606h156q167 0 259.5 82t92.5 209q0 156 -89.5 235.5t-264.5 79.5z" />
    <glyph glyph-name="Q" unicode="Q" horiz-adv-x="1624" 
d="M815 -20q-208 0 -370.5 92t-253.5 261.5t-91 389.5q0 156 54.5 293t149 234.5t227.5 153.5t284 56q154 0 286 -54.5t225 -151t145.5 -233.5t52.5 -298q0 -175 -67.5 -325t-186.5 -253l174 -262h-170l-121 183q-153 -86 -338 -86zM815 131q132 0 254 64l-248 374h166
l195 -290q174 164 174 440q-1 137 -45 249.5t-119 185.5t-173 113t-208 42q-109 -2 -207 -42.5t-173 -113.5t-119 -184.5t-44 -245.5q0 -141 43 -255t118 -187t173.5 -111.5t212.5 -38.5z" />
    <glyph glyph-name="R" unicode="R" horiz-adv-x="1175" 
d="M195 0v1440h329q87 0 161.5 -12.5t142 -42.5t114.5 -76t74.5 -118.5t27.5 -164.5q0 -162 -85.5 -265t-229.5 -145l377 -616h-191l-344 592q-16 -2 -47 -2h-170v-590h-159zM524 1292h-170v-555h172q171 0 261 76.5t90 202.5q0 276 -353 276z" />
    <glyph glyph-name="S" unicode="S" horiz-adv-x="1056" 
d="M485 -20q-99 0 -214.5 27t-182.5 69l51 151q72 -41 164 -68.5t182 -27.5q156 0 240 71.5t84 182.5q0 54 -24 95t-64.5 67.5t-93 47.5t-110.5 40t-116 40t-110.5 52.5t-93 72.5t-64.5 105t-24 146q0 186 127 297.5t327 111.5q105 0 208.5 -28t160.5 -76l-68 -135
q-149 88 -305 88q-140 0 -214.5 -68.5t-74.5 -173.5q0 -63 24 -111.5t64.5 -78.5t93.5 -53.5t111.5 -42.5t116.5 -38.5t111 -47.5t93.5 -65.5t64.5 -96t24 -134.5q0 -124 -66 -220.5t-176.5 -147.5t-245.5 -51z" />
    <glyph glyph-name="T" unicode="T" horiz-adv-x="1169" 
d="M504 0v1292h-473v148h1108v-148h-475v-1292h-160z" />
    <glyph glyph-name="U" unicode="U" horiz-adv-x="1460" 
d="M176 559v881h160v-875q0 -218 113 -326t301 -108q174 0 270.5 105.5t103.5 343.5v860h160v-862q0 -155 -43 -272.5t-119 -187t-172 -104t-211 -34.5q-116 0 -215.5 33.5t-178.5 101t-124 181t-45 263.5z" />
    <glyph glyph-name="V" unicode="V" horiz-adv-x="1234" 
d="M530 0l-507 1440h167l433 -1239l421 1239h173l-517 -1440h-170z" />
    <glyph glyph-name="W" unicode="W" horiz-adv-x="1880" 
d="M451 0l-420 1440h168l336 -1188l356 1188h108l357 -1170l336 1170h161l-430 -1440h-137l-348 1098l-340 -1098h-147z" />
    <glyph glyph-name="X" unicode="X" horiz-adv-x="1155" 
d="M1124 1440l-469 -715l465 -725h-198l-353 588l-354 -588h-182l461 711l-461 729h182l363 -592l366 592h180z" />
    <glyph glyph-name="Y" unicode="Y" horiz-adv-x="1128" 
d="M481 0v573l-456 867h182l362 -721l369 721h178l-475 -873v-567h-160z" />
    <glyph glyph-name="Z" unicode="Z" horiz-adv-x="1071" 
d="M991 1327l-715 -1180h715v-147h-911v113l727 1179h-727v148h911v-113z" />
    <glyph glyph-name="bracketleft" unicode="[" horiz-adv-x="647" 
d="M193 -393v1833h387v-144h-234v-1546h234v-143h-387z" />
    <glyph glyph-name="backslash" unicode="\" horiz-adv-x="698" 
d="M659 -238h-147l-471 1678h147z" />
    <glyph glyph-name="bracketright" unicode="]" horiz-adv-x="647" 
d="M455 -393h-387v143h233v1546h-233v144h387v-1833z" />
    <glyph glyph-name="asciicircum" unicode="^" horiz-adv-x="1239" 
d="M1145 774l-182 2l-336 500l-344 -502h-189l465 666h131z" />
    <glyph glyph-name="underscore" unicode="_" horiz-adv-x="1028" 
d="M926 -258h-824v121h824v-121z" />
    <glyph glyph-name="grave" unicode="`" horiz-adv-x="471" 
d="M389 1210h-143l-205 324h178z" />
    <glyph glyph-name="a" unicode="a" 
d="M94 530q0 131 40.5 238t110.5 177.5t165 108.5t204 38q268 0 410 -236v213h154v-1069h-154v225q-139 -245 -410 -245q-226 0 -373 146.5t-147 403.5zM616 121q161 0 267.5 114.5t140.5 299.5q-27 175 -142 295t-266 120q-163 0 -261.5 -105t-98.5 -313
q0 -192 100.5 -301.5t259.5 -109.5z" />
    <glyph glyph-name="b" unicode="b" 
d="M1253 530q0 -130 -40 -235t-110.5 -173.5t-164.5 -105t-203 -36.5q-272 0 -411 245v-225h-154v1440h154v-604q73 122 178 189t233 67q108 0 201.5 -35.5t164.5 -104t111.5 -177t40.5 -245.5zM324 535q32 -184 138.5 -299t268.5 -115q159 0 260 109.5t101 301.5
q0 208 -99 313t-262 105q-152 0 -266 -119.5t-141 -295.5z" />
    <glyph glyph-name="c" unicode="c" horiz-adv-x="1040" 
d="M934 203l45 -121q-133 -102 -354 -102q-102 0 -195.5 35.5t-169 101.5t-121 172.5t-45.5 236.5q0 135 46 245t122 178.5t169.5 105.5t193.5 37q228 0 352 -105l-55 -137q-67 50 -131 75t-166 25q-70 0 -135.5 -27t-118 -77.5t-84 -131.5t-31.5 -179q0 -188 109.5 -301
t259.5 -113q99 0 169 18t140 64z" />
    <glyph glyph-name="d" unicode="d" 
d="M94 530q0 131 40 238.5t110.5 177.5t164.5 108t203 38q269 0 412 -240v588h154v-1440h-154v227q-142 -247 -412 -247q-109 0 -203 36.5t-164.5 105t-110.5 173.5t-40 235zM614 121q163 0 269.5 114.5t140.5 299.5q-27 176 -141.5 295.5t-268.5 119.5q-162 0 -260 -105
t-98 -313q0 -192 100 -301.5t258 -109.5z" />
    <glyph glyph-name="e" unicode="e" horiz-adv-x="1193" 
d="M1020 215l35 -125q-69 -49 -182.5 -79.5t-227.5 -30.5q-256 0 -403.5 142.5t-147.5 399.5q0 134 41.5 243.5t113 180t165.5 108.5t200 38q103 0 192 -35t157 -103t106.5 -175.5t38.5 -243.5q0 -30 -4 -58h-846q10 -178 111 -267t284 -89q103 0 188.5 19.5t178.5 74.5z
M610 950q-144 0 -237 -87t-113 -255h684q-15 170 -104 256t-230 86z" />
    <glyph glyph-name="f" unicode="f" horiz-adv-x="696" 
d="M68 1069h159v4q0 195 99 291t276 96q79 0 137 -18l-26 -137q-74 14 -115 14q-107 0 -162 -55.5t-55 -190.5v-4h291v-131h-291v-938h-154v938h-159v131z" />
    <glyph glyph-name="g" unicode="g" 
d="M94 541q0 131 40 236.5t110.5 173.5t164.5 104.5t203 36.5q272 0 412 -240v217h154v-1053q0 -140 -74.5 -247.5t-197.5 -162.5t-273 -55q-123 0 -254.5 36.5t-214.5 101.5l31 145q94 -67 216 -104t228 -37q161 0 273 85.5t112 231.5v219q-135 -229 -412 -229
q-109 0 -203 35.5t-164.5 102.5t-110.5 170.5t-40 232.5zM614 141q165 0 271 106t139 288q-27 176 -141.5 295.5t-268.5 119.5q-164 0 -262 -99.5t-98 -307.5q0 -191 100.5 -296.5t259.5 -105.5z" />
    <glyph glyph-name="h" unicode="h" horiz-adv-x="1263" 
d="M170 0v1440h154v-623q162 275 426 275q57 0 106.5 -12t96.5 -42t80 -77.5t53 -122.5t20 -172v-666h-154v645q0 153 -63 228t-170 75q-126 0 -221 -93t-174 -280v-575h-154z" />
    <glyph glyph-name="i" unicode="i" horiz-adv-x="493" 
d="M135 1395q0 47 33.5 79.5t79.5 32.5t80 -32.5t34 -79.5q0 -46 -34 -79.5t-80 -33.5t-79.5 33.5t-33.5 79.5zM170 0v1069h154v-1069h-154z" />
    <glyph glyph-name="j" unicode="j" horiz-adv-x="509" 
d="M150 1395q0 47 33 79.5t79 32.5t80.5 -32.5t34.5 -79.5q0 -46 -34.5 -79.5t-80.5 -33.5t-79 33.5t-33 79.5zM186 -45v1114h154v-1114q0 -196 -100 -300t-275 -104q-169 0 -297 78l47 131q56 -31 127 -48t129 -17q215 0 215 260z" />
    <glyph glyph-name="k" unicode="k" horiz-adv-x="999" 
d="M170 0v1440h154v-873l452 502h191l-492 -520l531 -549h-203l-479 494v-494h-154z" />
    <glyph glyph-name="l" unicode="l" horiz-adv-x="493" 
d="M170 0v1440h154v-1440h-154z" />
    <glyph glyph-name="m" unicode="m" horiz-adv-x="2025" 
d="M170 0v1069h154v-250q79 139 182 206t235 67q60 0 112.5 -14.5t100 -47t81.5 -91.5t50 -140q81 150 186 221.5t242 71.5q56 0 105.5 -12t96 -42t80 -77t53.5 -122.5t20 -172.5v-666h-154v645q0 154 -62.5 228.5t-170.5 74.5q-125 0 -219.5 -90.5t-165.5 -275.5v-582h-154
v645q0 154 -62.5 228.5t-170.5 74.5q-126 0 -219 -90.5t-166 -277.5v-580h-154z" />
    <glyph glyph-name="n" unicode="n" horiz-adv-x="1263" 
d="M170 0v1069h154v-252q162 275 426 275q57 0 106.5 -12t96.5 -42t80 -77.5t53 -122.5t20 -172v-666h-154v645q0 153 -63 228t-170 75q-134 0 -228 -89t-167 -277v-582h-154z" />
    <glyph glyph-name="o" unicode="o" horiz-adv-x="1298" 
d="M92 530q0 135 49 245t129 177.5t176 103.5t197 36q79 0 157.5 -20.5t152 -64.5t129.5 -107t90 -155.5t34 -201.5q0 -135 -48.5 -244.5t-129.5 -177.5t-181 -104.5t-208 -36.5q-104 0 -200 34t-174.5 99t-125.5 173t-47 244zM254 541q0 -106 31.5 -188t87 -131.5t125 -75
t149.5 -25.5q81 0 152 25.5t126 74.5t87 128t32 179q0 102 -33.5 184.5t-90 133t-126.5 77.5t-147 27q-72 0 -140 -24.5t-125.5 -72.5t-92.5 -129t-35 -183z" />
    <glyph glyph-name="p" unicode="p" 
d="M324 1069v-217q140 240 411 240q109 0 203 -38t164.5 -108t110.5 -177.5t40 -238.5q0 -130 -40 -235t-110.5 -173.5t-164.5 -105t-203 -36.5q-273 0 -411 249v-661h-154v1501h154zM324 535q34 -185 140.5 -299.5t268.5 -114.5q159 0 259 109.5t100 301.5q0 208 -98 313
t-261 105q-152 0 -267 -120t-142 -295z" />
    <glyph glyph-name="q" unicode="q" 
d="M94 530q0 131 40 238.5t110.5 177.5t164.5 108t203 38q269 0 412 -240v217h154v-1501h-154v659q-142 -247 -412 -247q-109 0 -203 36.5t-164.5 105t-110.5 173.5t-40 235zM614 121q163 0 269.5 114.5t140.5 299.5q-27 176 -141.5 295.5t-268.5 119.5q-162 0 -260 -105
t-98 -313q0 -192 100 -301.5t258 -109.5z" />
    <glyph glyph-name="r" unicode="r" horiz-adv-x="815" 
d="M170 0v1069h154v-250q155 271 366 271q54 0 109 -21l-33 -135q-46 16 -84 16q-112 0 -205 -98.5t-153 -261.5v-590h-154z" />
    <glyph glyph-name="s" unicode="s" horiz-adv-x="931" 
d="M438 -20q-92 0 -193.5 23.5t-162.5 55.5l43 140q146 -78 315 -78q122 0 189 38t67 128q0 55 -33 89.5t-85 50.5t-115.5 28t-127 30.5t-115.5 48.5t-85 92t-33 152q0 142 103.5 228t288.5 86q79 0 167 -21.5t154 -58.5l-41 -142q-136 80 -278 80q-103 0 -169.5 -42
t-66.5 -122q0 -49 20 -84t54.5 -54.5t78.5 -33t93 -23.5t98 -21.5t93 -31.5t78.5 -49t54.5 -78.5t20 -115.5q0 -143 -120 -229t-292 -86z" />
    <glyph glyph-name="t" unicode="t" horiz-adv-x="849" 
d="M227 356v582h-194v131h194v324h154v-324h397v-131h-397v-557q0 -262 203 -262q118 0 217 57l39 -125q-136 -71 -287 -71q-70 0 -127.5 21.5t-102.5 65t-70.5 117.5t-25.5 172z" />
    <glyph glyph-name="u" unicode="u" horiz-adv-x="1247" 
d="M309 1069v-645q0 -151 63 -226t167 -75q131 0 224 88.5t161 273.5v584h153v-1069h-153v242q-148 -262 -418 -262q-56 0 -104.5 11.5t-94.5 42t-78.5 77.5t-52.5 122t-20 173v663h153z" />
    <glyph glyph-name="v" unicode="v" horiz-adv-x="1054" 
d="M455 0l-428 1069h176l332 -864l319 864h174l-432 -1069h-141z" />
    <glyph glyph-name="w" unicode="w" horiz-adv-x="1718" 
d="M1702 1069l-422 -1069l-141 2l-275 846l-305 -848l-143 2l-383 1067h176l287 -860l297 860h153l273 -862l309 862h174z" />
    <glyph glyph-name="x" unicode="x" horiz-adv-x="1017" 
d="M989 1069l-397 -534l391 -535h-197l-280 414l-295 -414h-178l389 532l-389 537h190l287 -416l287 416h192z" />
    <glyph glyph-name="y" unicode="y" horiz-adv-x="1056" 
d="M459 -14l-434 1083h176l338 -885l313 885h174l-577 -1497h-164l176 414h-2z" />
    <glyph glyph-name="z" unicode="z" horiz-adv-x="966" 
d="M883 950l-602 -813h602v-137h-799v111l612 821h-612v137h799v-119z" />
    <glyph glyph-name="braceleft" unicode="{" horiz-adv-x="731" 
d="M664 1438v-138q-21 3 -82 3q-92 0 -122 -39t-30 -119v-338q0 -92 -48 -165.5t-144 -119.5q97 -40 144.5 -115.5t47.5 -175.5v-327q0 -85 33.5 -121.5t130.5 -36.5q56 0 70 2v-139q-62 -10 -109 -10q-135 0 -207 82.5t-72 218.5v303q0 98 -45.5 166t-152.5 82v139
q102 7 150 72.5t48 175.5v321q0 129 76 208t211 79q49 0 101 -8z" />
    <glyph glyph-name="bar" unicode="|" horiz-adv-x="546" 
d="M350 -238h-153v1678h153v-1678z" />
    <glyph glyph-name="braceright" unicode="}" horiz-adv-x="731" 
d="M68 1438q52 8 100 8q135 0 211 -79t76 -208v-321q0 -110 48 -175.5t150 -72.5v-139q-107 -14 -152.5 -82t-45.5 -166v-303q0 -136 -72 -218.5t-207 -82.5q-46 0 -108 10v139q14 -2 69 -2q97 0 130.5 36.5t33.5 121.5v327q0 100 48 175.5t145 115.5q-96 46 -144.5 120
t-48.5 165v338q0 80 -30 119t-124 39q-58 0 -79 -3v138z" />
    <glyph glyph-name="asciitilde" unicode="~" horiz-adv-x="1165" 
d="M784 645q56 0 104 29.5t81 81.5l75 -72q-36 -85 -107 -131.5t-161 -46.5q-64 0 -135 26.5t-142.5 53t-136.5 26.5q-46 0 -83 -26t-78 -74l-76 70q38 78 101.5 125t142.5 47q53 0 110 -17t98.5 -37.5t97.5 -37.5t109 -17z" />
    <glyph glyph-name="uniF8FF" unicode="&#xf8ff;" horiz-adv-x="1638" 
d="M205 0v1229h1229v-1229h-1229zM528 696h41v287h144v41h-328v-41h143v-287zM897 696h41v123h160q47 0 76.5 29t29.5 74t-29.5 73.5t-76.5 28.5h-201v-328zM938 860v123h160q29 0 47 -16.5t18 -44.5q0 -27 -18 -44.5t-47 -17.5h-160zM1253 143l29 29l-86 86q39 45 39 111
q0 73 -50.5 123.5t-123.5 50.5t-123.5 -50.5t-50.5 -123.5t50.5 -123.5t123.5 -50.5q63 0 106 34zM528 205h41v287h144v40h-328v-40h143v-287zM1061 236q-57 0 -95 38t-38 95t38 95t95 38t95 -38t38 -95t-38 -95t-95 -38z" />
    <glyph glyph-name="uni00690307" horiz-adv-x="493" 
d="M135 1395q0 47 33.5 79.5t79.5 32.5t80 -32.5t34 -79.5q0 -46 -34 -79.5t-80 -33.5t-79.5 33.5t-33.5 79.5zM170 0v1069h154v-1069h-154z" />
    <glyph glyph-name="fraction" horiz-adv-x="327" 
d="M-233 0h-117l915 1440h115z" />
    <glyph glyph-name="uni200A" horiz-adv-x="143" 
 />
    <glyph glyph-name="colon.cap" horiz-adv-x="546" 
d="M152 1163q0 52 34.5 87.5t85.5 35.5q52 0 87.5 -35t35.5 -88q0 -51 -35.5 -87t-87.5 -36q-51 0 -85.5 36t-34.5 87zM152 297q0 52 34.5 87.5t85.5 35.5q52 0 87.5 -35t35.5 -88q0 -51 -35.5 -87t-87.5 -36q-51 0 -85.5 36t-34.5 87z" />
    <glyph glyph-name="hyphen.cap" horiz-adv-x="821" 
d="M707 653h-592v121h592v-121z" />
    <glyph glyph-name="zero.numerator" horiz-adv-x="774" 
d="M387 625q-83 0 -142 28.5t-93 84.5t-49 128.5t-15 169.5q0 420 299 420q83 0 142 -30.5t93 -88.5t49 -131.5t15 -169.5q0 -411 -299 -411zM387 735q92 -1 130 73t38 226q0 156 -37 232t-133 75q-93 -1 -128.5 -77t-35.5 -228q0 -157 34.5 -228.5t131.5 -72.5z" />
    <glyph glyph-name="one.numerator" horiz-adv-x="526" 
d="M262 637v666l-172 -109l-53 92l246 154h104v-803h-125z" />
    <glyph glyph-name="two.numerator" horiz-adv-x="675" 
d="M80 637v84q98 93 152 147t110.5 119.5t80 115.5t23.5 95q-2 63 -42.5 103t-112.5 40q-95 0 -182 -75l-35 96q107 94 239 94q128 0 196.5 -69.5t68.5 -169.5q0 -53 -22 -107.5t-70.5 -115.5t-100.5 -114.5t-135 -131.5h342v-111h-512z" />
    <glyph glyph-name="three.numerator" horiz-adv-x="665" 
d="M125 1288l-39 90q89 78 213 78q115 0 186.5 -57t71.5 -152q0 -61 -35 -110t-100 -78q75 -20 117.5 -71.5t42.5 -121.5q0 -102 -81.5 -171.5t-209.5 -69.5q-145 0 -230 71l43 103q74 -64 181 -64q74 0 121 37.5t47 95.5q0 57 -43.5 92t-124.5 35h-97v105h93q67 0 105 35
t38 88q0 52 -40 85t-110 33q-96 0 -149 -53z" />
    <glyph glyph-name="four.numerator" horiz-adv-x="774" 
d="M453 637v180h-387v90l401 533h115v-518h120v-105h-120v-180h-129zM195 922h258v346z" />
    <glyph glyph-name="five.numerator" horiz-adv-x="677" 
d="M301 625q-132 0 -240 65l29 107q112 -62 207 -62q77 0 125.5 40.5t48.5 109.5q0 66 -48 108.5t-147 42.5q-70 0 -147 -28l-12 12l59 420h395v-109h-297l-30 -201q31 7 65 7q135 0 213 -69t78 -179q0 -118 -85.5 -191t-213.5 -73z" />
    <glyph glyph-name="six.numerator" horiz-adv-x="722" 
d="M401 1440h142l-211 -299q28 4 43 4q117 0 200.5 -66.5t83.5 -193.5q0 -121 -88.5 -191.5t-208.5 -70.5q-55 0 -105 17t-90 48.5t-63.5 82t-23.5 112.5q0 71 28.5 132t84.5 134zM211 885q0 -71 46 -112.5t110 -41.5q65 0 113 41.5t48 112.5q0 72 -49 112.5t-112 40.5
q-80 0 -134 -51q-22 -49 -22 -102z" />
    <glyph glyph-name="seven.numerator" horiz-adv-x="653" 
d="M600 1368l-340 -731h-133l334 694h-404v109h543v-72z" />
    <glyph glyph-name="eight.numerator" horiz-adv-x="733" 
d="M84 862q0 152 152 207q-117 50 -117 170q0 101 74.5 158t177.5 57q102 0 174.5 -54.5t72.5 -154.5q0 -123 -120 -176q151 -56 151 -205q0 -115 -84 -178t-200 -63q-55 0 -104 14.5t-89 42.5t-64 75t-24 107zM244 1237q0 -55 38 -87t87 -32q48 0 86.5 32.5t38.5 86.5
q0 55 -36.5 87t-88.5 32q-50 0 -87.5 -31.5t-37.5 -87.5zM219 870q0 -69 44 -106t106 -37q60 0 103.5 37t43.5 104t-44.5 105.5t-102.5 38.5q-59 0 -104.5 -36t-45.5 -106z" />
    <glyph glyph-name="nine.numerator" horiz-adv-x="729" 
d="M324 637h-144l211 299q-28 -4 -43 -4q-74 0 -137 27t-105.5 87t-42.5 144q0 82 43.5 143.5t110 91t143.5 29.5q118 0 202.5 -69t84.5 -191q0 -71 -29 -130t-88 -138zM197 1192q0 -71 48.5 -113.5t110.5 -42.5q79 0 136 54q22 49 22 100q0 72 -46.5 112.5t-111.5 40.5
t-112 -39.5t-47 -111.5z" />
    <glyph glyph-name="zero.denominator" horiz-adv-x="778" 
d="M389 -12q-83 0 -142 28.5t-93 84.5t-49 128.5t-15 169.5q0 420 299 420q83 0 142 -30.5t93 -88t49 -131.5t15 -170q0 -411 -299 -411zM389 98q92 0 130 74.5t38 226.5q0 155 -36.5 231t-131.5 75q-65 -1 -102.5 -39t-51.5 -101.5t-14 -163.5q0 -157 35 -228.5t133 -74.5z
" />
    <glyph glyph-name="one.denominator" horiz-adv-x="526" 
d="M260 0v668l-172 -109l-51 90l244 156h106v-805h-127z" />
    <glyph glyph-name="two.denominator" horiz-adv-x="673" 
d="M78 0v84q81 78 124 120t97.5 100.5t80.5 97t45 81.5t19 80q-2 63 -42.5 102.5t-112.5 39.5q-95 0 -180 -76l-35 98q105 92 239 92q125 0 193.5 -70t68.5 -169q0 -53 -22 -107.5t-71 -115.5t-100.5 -114.5t-135.5 -131.5h344v-111h-512z" />
    <glyph glyph-name="three.denominator" horiz-adv-x="665" 
d="M125 651l-39 90q85 78 215 78q111 0 182.5 -57t71.5 -150q0 -60 -34.5 -109.5t-98.5 -78.5q75 -20 117.5 -72t42.5 -121q0 -103 -81.5 -173t-209.5 -70q-145 0 -230 71l41 105q80 -64 183 -64q74 0 120 36.5t46 94.5t-43 93.5t-123 35.5h-95v105h91q67 0 105 34t38 87
q0 52 -40 85.5t-110 33.5q-95 0 -149 -54z" />
    <glyph glyph-name="four.denominator" horiz-adv-x="772" 
d="M451 0v180h-388v90l402 535h113v-518h122v-107h-122v-180h-127zM193 287h258v346z" />
    <glyph glyph-name="five.denominator" horiz-adv-x="679" 
d="M301 -12q-135 0 -240 67l29 105q115 -62 207 -62q75 0 123.5 41t48.5 111q0 66 -47 107.5t-146 41.5q-61 0 -147 -28l-12 14l59 420h395v-111h-297l-30 -200q27 6 65 6q135 0 214 -69t79 -179q0 -117 -86.5 -190.5t-214.5 -73.5z" />
    <glyph glyph-name="six.denominator" horiz-adv-x="724" 
d="M403 805h144l-213 -301q28 4 43 4q117 0 201 -66.5t84 -191.5q0 -123 -87.5 -193.5t-207.5 -70.5q-118 0 -201.5 68.5t-83.5 191.5q0 71 28 131.5t85 136.5zM213 250q0 -73 46 -113.5t110 -40.5q65 0 113 40.5t48 111.5q0 72 -49 112.5t-112 40.5q-79 0 -133 -51
q-23 -51 -23 -100z" />
    <glyph glyph-name="seven.denominator" horiz-adv-x="657" 
d="M602 731l-340 -731h-133l332 694h-402v111h543v-74z" />
    <glyph glyph-name="eight.denominator" horiz-adv-x="733" 
d="M84 225q0 152 149 207q-114 50 -114 170q0 103 74.5 159t177.5 56q102 0 174.5 -53.5t72.5 -153.5q0 -125 -120 -178q151 -56 151 -205q0 -115 -84 -178t-200 -63q-114 0 -197.5 62t-83.5 177zM244 602q0 -56 38 -88.5t87 -32.5q48 0 86.5 33t38.5 88q0 53 -36.5 84
t-88.5 31q-51 0 -88 -29.5t-37 -85.5zM221 233q0 -68 43 -104.5t105 -36.5q59 0 103 36.5t44 102.5q0 67 -44.5 106.5t-104.5 39.5q-57 0 -101.5 -37t-44.5 -107z" />
    <glyph glyph-name="nine.denominator" horiz-adv-x="727" 
d="M324 0h-144l211 299q-28 -4 -43 -4q-55 0 -105 16t-91 47t-65 82t-24 115q0 122 88 192t209 70q118 0 201.5 -68.5t83.5 -191.5q0 -69 -28 -128.5t-85 -139.5zM197 555q0 -71 48.5 -112.5t110.5 -41.5q81 0 136 52q22 49 22 102q0 72 -46.5 112t-111.5 40t-112 -40
t-47 -112z" />
    </font>
</defs>
</svg>
