<?xml version="1.0" standalone="no"?>
<!DOCTYPE svg PUBLIC "-//W3C//DTD SVG 1.1//EN" "http://www.w3.org/Graphics/SVG/1.1/DTD/svg11.dtd" >
<svg xmlns="http://www.w3.org/2000/svg" xmlns:xlink="http://www.w3.org/1999/xlink" version="1.1">
<metadata>
Created by FontForge 20201107 at Tue Jun 10 10:09:30 2025
 By 
Copyright 2019-2024 Typotheque. All rights reserved.
</metadata>
<defs>
<font id="PingL-Light" horiz-adv-x="1341" >
  <font-face 
    font-family="Ping xsTRIAL Light"
    font-weight="300"
    font-stretch="normal"
    units-per-em="2048"
    panose-1="0 0 0 0 0 0 0 0 0 0"
    ascent="1638"
    descent="-410"
    x-height="1069"
    cap-height="1440"
    bbox="-362 -449 1862 1608"
    underline-thickness="79"
    underline-position="-201"
    unicode-range="U+0020-F8FF"
  />
<missing-glyph horiz-adv-x="1458" 
d="M1239 1438h55v-56h-55v56zM1085 1438h56v-56h-56v56zM932 1438h55v-56h-55v56zM164 1438h55v-56h-55v56zM317 1438h56v-56h-56v56zM471 1438h55v-56h-55v56zM778 1438h56v-56h-56v56zM625 1438h55v-56h-55v56zM164 1284h55v-55h-55v55zM1239 1284h55v-55h-55v55z
M932 1130h55v-55h-55v55zM164 1130h55v-55h-55v55zM1239 1130h55v-55h-55v55zM471 1130h55v-55h-55v55zM625 1130h55v-55h-55v55zM778 1130h56v-55h-56v55zM932 977h55v-55h-55v55zM164 977h55v-55h-55v55zM1239 977h55v-55h-55v55zM164 823h55v-55h-55v55zM932 823h55v-55
h-55v55zM625 823h55v-55h-55v55zM1239 823h55v-55h-55v55zM778 823h56v-55h-56v55zM625 670h55v-56h-55v56zM1239 670h55v-56h-55v56zM164 670h55v-56h-55v56zM164 516h55v-55h-55v55zM1239 516h55v-55h-55v55zM625 362h55v-55h-55v55zM164 362h55v-55h-55v55zM1239 362h55
v-55h-55v55zM164 209h55v-55h-55v55zM1239 209h55v-55h-55v55zM1239 55h55v-55h-55v55zM1085 55h56v-55h-56v55zM932 55h55v-55h-55v55zM164 55h55v-55h-55v55zM625 55h55v-55h-55v55zM471 55h55v-55h-55v55zM317 55h56v-55h-56v55zM778 55h56v-55h-56v55z" />
    <glyph glyph-name="uniFB01" unicode="fi" horiz-adv-x="1191" 
d="M854 1389q0 44 30.5 74t73.5 30t75 -30t32 -74q0 -43 -32 -74t-75 -31t-73.5 31t-30.5 74zM66 1069h159v8q0 191 95 287t264 96q79 0 137 -18l-21 -105q-90 17 -120 17q-238 0 -238 -277v-8h311v-100h-311v-969h-117v969h-159v100zM958 1343q17 0 31.5 14.5t14.5 31.5
q0 19 -14 32t-32 13q-20 0 -32.5 -12.5t-12.5 -32.5q0 -18 12.5 -32t32.5 -14zM899 0v1069h115v-1069h-115z" />
    <glyph glyph-name="uniFB02" unicode="fl" horiz-adv-x="1191" 
d="M66 1069h159v8q0 191 95 287t264 96q79 0 137 -18l-21 -105q-90 17 -120 17q-238 0 -238 -277v-8h311v-100h-311v-969h-117v969h-159v100zM899 0v1440h115v-1440h-115z" />
    <glyph glyph-name="uni2E28" unicode="&#x28;&#x28;" horiz-adv-x="946" 
d="M557 1440q-157 -188 -242.5 -437.5t-85.5 -478.5q0 -230 82.5 -480.5t233.5 -436.5h-135q-149 188 -225 421.5t-76 487.5q0 256 79.5 496.5t235.5 427.5h133zM928 1440q-158 -188 -244 -437.5t-86 -478.5q0 -230 83 -480t234 -437h-137q-148 189 -225.5 423t-77.5 486
q0 254 81 494.5t237 429.5h135z" />
    <glyph glyph-name="uni2E29" unicode="&#x29;&#x29;" horiz-adv-x="948" 
d="M389 -393q158 187 243 436.5t85 480.5q0 230 -82 480t-234 436h136q149 -188 226 -422.5t77 -487.5q0 -254 -80.5 -493.5t-235.5 -429.5h-135zM20 -393q157 188 242.5 437.5t85.5 479.5q0 228 -83 479t-234 437h137q149 -188 225 -422t76 -488q0 -255 -79.5 -494.5
t-235.5 -428.5h-134z" />
    <glyph glyph-name="uni0030FE00" unicode="0" horiz-adv-x="1189" 
d="M600 -20q-108 0 -189.5 34t-134.5 95t-85.5 155t-46 205t-13.5 254q0 135 14.5 244t48.5 202.5t87.5 156.5t134 98.5t184.5 35.5q106 0 186 -34.5t131.5 -96t83.5 -155.5t45 -202.5t13 -248.5q0 -743 -459 -743zM256 723q0 -242 33 -369l553 869q-78 125 -246 125
q-97 0 -164 -42t-105 -126t-54.5 -194.5t-16.5 -262.5zM600 94q180 0 257 158t77 469q0 260 -45 399l-559 -878q80 -148 270 -148z" />
    <glyph glyph-name="uni301A" unicode="[[" horiz-adv-x="1009" 
d="M199 -393v1833h751v-109h-270v-1616h270v-108h-751zM315 -285h248v1616h-248v-1616z" />
    <glyph glyph-name="uni301B" unicode="]]" horiz-adv-x="1009" 
d="M811 -393h-752v108h271v1616h-271v109h752v-1833zM694 1331h-248v-1616h248v1616z" />
    <glyph glyph-name=".notdef" horiz-adv-x="1458" 
d="M1239 1438h55v-56h-55v56zM1085 1438h56v-56h-56v56zM932 1438h55v-56h-55v56zM164 1438h55v-56h-55v56zM317 1438h56v-56h-56v56zM471 1438h55v-56h-55v56zM778 1438h56v-56h-56v56zM625 1438h55v-56h-55v56zM164 1284h55v-55h-55v55zM1239 1284h55v-55h-55v55z
M932 1130h55v-55h-55v55zM164 1130h55v-55h-55v55zM1239 1130h55v-55h-55v55zM471 1130h55v-55h-55v55zM625 1130h55v-55h-55v55zM778 1130h56v-55h-56v55zM932 977h55v-55h-55v55zM164 977h55v-55h-55v55zM1239 977h55v-55h-55v55zM164 823h55v-55h-55v55zM932 823h55v-55
h-55v55zM625 823h55v-55h-55v55zM1239 823h55v-55h-55v55zM778 823h56v-55h-56v55zM625 670h55v-56h-55v56zM1239 670h55v-56h-55v56zM164 670h55v-56h-55v56zM164 516h55v-55h-55v55zM1239 516h55v-55h-55v55zM625 362h55v-55h-55v55zM164 362h55v-55h-55v55zM1239 362h55
v-55h-55v55zM164 209h55v-55h-55v55zM1239 209h55v-55h-55v55zM1239 55h55v-55h-55v55zM1085 55h56v-55h-56v55zM932 55h55v-55h-55v55zM164 55h55v-55h-55v55zM625 55h55v-55h-55v55zM471 55h55v-55h-55v55zM317 55h56v-55h-56v55zM778 55h56v-55h-56v55z" />
    <glyph glyph-name=".null" horiz-adv-x="0" 
 />
    <glyph glyph-name="nonmarkingreturn" horiz-adv-x="682" 
 />
    <glyph glyph-name="space" unicode=" " horiz-adv-x="516" 
 />
    <glyph glyph-name="exclam" unicode="!" horiz-adv-x="530" 
d="M221 487l-28 953h143l-27 -953h-88zM154 90q0 47 32 79t78 32q47 0 80 -32t33 -79q0 -46 -33 -78t-80 -32q-46 0 -78 32t-32 78zM264 47q19 0 32 13t13 30q0 20 -13 32.5t-32 12.5t-32 -12.5t-13 -32.5q0 -17 13 -30t32 -13z" />
    <glyph glyph-name="quotedbl" unicode="&#x22;" horiz-adv-x="755" 
d="M156 909l-15 531h117l-14 -531h-88zM512 909l-14 531h116l-14 -531h-88z" />
    <glyph glyph-name="numbersign" unicode="#" horiz-adv-x="1308" 
d="M168 0l80 414h-154v102h174l80 422h-201v102h222l75 400h105l-76 -400h473l78 400h102l-73 -400h168v-102h-189l-80 -422h215v-102h-233l-80 -414h-106l79 414h-473l-78 -414h-108zM375 516h471l82 422h-473z" />
    <glyph glyph-name="dollar" unicode="$" horiz-adv-x="1038" 
d="M455 -182v221q-100 3 -203 31t-168 69l39 113q177 -98 358 -98q162 0 256 69t94 180q0 58 -24.5 100.5t-66 68t-95 44t-113 33t-119 31t-113 42t-95 61.5t-66 94.5t-24.5 136.5q0 148 95.5 244t256.5 118v232h119v-226q98 -5 188 -32t144 -70l-52 -100q-163 90 -311 90
q-149 0 -234 -67t-85 -179q0 -61 24.5 -105.5t66.5 -71.5t96 -46.5t113.5 -34.5t119 -31t113.5 -41t96 -59.5t66.5 -91t24.5 -131.5q0 -147 -107 -246t-276 -121v-227h-118z" />
    <glyph glyph-name="percent" unicode="%" horiz-adv-x="1806" 
d="M70 1083q0 91 31.5 164t85.5 118.5t121.5 69t142.5 23.5q73 0 138.5 -22t117.5 -65t83 -113.5t31 -159.5q0 -93 -32.5 -167t-87 -120t-122 -70t-141.5 -24q-69 0 -133.5 22.5t-117.5 66t-85 115.5t-32 162zM301 0l1055 1440h141l-1055 -1440h-141zM186 1092
q0 -123 69 -198t189 -75q107 0 184 70.5t77 197.5q0 116 -69.5 192.5t-189.5 76.5q-114 0 -187 -72.5t-73 -191.5zM985 348q0 91 31.5 164t84.5 118.5t120.5 69t142.5 23.5q74 0 140 -22.5t118.5 -65.5t83.5 -113.5t31 -159.5q0 -93 -33 -167.5t-87.5 -120t-122.5 -70
t-142 -24.5q-55 0 -107.5 14t-99.5 44t-82.5 72.5t-56.5 103.5t-21 134zM1102 356q0 -123 68 -197.5t188 -74.5q107 0 183.5 69.5t76.5 196.5q0 118 -68.5 193t-189.5 75q-114 0 -186 -71.5t-72 -190.5z" />
    <glyph glyph-name="ampersand" unicode="&#x26;" horiz-adv-x="1413" 
d="M1151 782h125q-1 -148 -50.5 -283.5t-138.5 -242.5l265 -256h-172l-174 168q-204 -188 -474 -188q-198 0 -314 101t-116 257q0 71 25 131.5t73.5 109.5t98 84t121.5 76q-95 95 -148 179t-53 186q0 93 45 173.5t130.5 131.5t193.5 51q159 0 263.5 -97.5t104.5 -234.5
q0 -70 -27.5 -129.5t-83 -110.5t-107 -85.5t-132.5 -79.5l400 -387q145 192 145 446zM342 1106q0 -70 44 -138.5t142 -168.5q59 32 95.5 54t81.5 55t70.5 63t43 70.5t17.5 84.5q0 98 -70 161t-176 63q-115 0 -181.5 -69.5t-66.5 -174.5zM229 346q0 -106 84 -177t230 -71
q212 0 381 150l-424 414q-62 -37 -104.5 -67t-84 -69.5t-62 -84.5t-20.5 -95z" />
    <glyph glyph-name="quotesingle" unicode="'" horiz-adv-x="399" 
d="M156 909l-15 531h117l-14 -531h-88z" />
    <glyph glyph-name="parenleft" unicode="(" horiz-adv-x="577" 
d="M557 1440q-156 -187 -241 -437t-85 -479q0 -231 82 -481t234 -436h-137q-149 188 -225 421.5t-76 487.5q0 255 80.5 495.5t236.5 428.5h131z" />
    <glyph glyph-name="parenright" unicode=")" horiz-adv-x="577" 
d="M25 1440h133q154 -190 233.5 -428t79.5 -492t-78.5 -490t-228.5 -423h-135q152 186 235.5 437t83.5 480q0 230 -84.5 478.5t-238.5 437.5z" />
    <glyph glyph-name="asterisk" unicode="*" horiz-adv-x="989" 
d="M174 811l-51 90l280 156l-280 153l51 93l277 -175l-13 332h105l-8 -327l278 172l53 -95l-295 -151l297 -154l-51 -92l-282 170l12 -324h-109l13 330z" />
    <glyph glyph-name="plus" unicode="+" horiz-adv-x="1241" 
d="M561 150v499h-498v117h498v500h117v-500h502v-117h-502v-499h-117z" />
    <glyph glyph-name="comma" unicode="," horiz-adv-x="419" 
d="M92 -221l72 469h121l-92 -469h-101z" />
    <glyph glyph-name="hyphen" unicode="-" horiz-adv-x="815" 
d="M705 545h-592v92h592v-92z" />
    <glyph glyph-name="period" unicode="." horiz-adv-x="471" 
d="M125 90q0 47 31 79t77 32q47 0 80 -32t33 -79q0 -46 -33 -78t-80 -32q-46 0 -77 32t-31 78zM233 47q20 0 34 13t14 30q0 20 -13.5 32.5t-34.5 12.5q-19 0 -32 -12.5t-13 -32.5q0 -17 13 -30t32 -13z" />
    <glyph glyph-name="slash" unicode="/" horiz-adv-x="675" 
d="M45 -238l471 1678h113l-471 -1678h-113z" />
    <glyph glyph-name="zero" unicode="0" horiz-adv-x="1189" 
d="M600 -20q-108 0 -189.5 34t-134.5 95t-85.5 155t-46 205t-13.5 254q0 135 14.5 244t48.5 202.5t87.5 156.5t134 98.5t184.5 35.5q106 0 186 -34.5t131.5 -96t83.5 -155.5t45 -202.5t13 -248.5q0 -743 -459 -743zM600 94q181 0 257.5 157.5t76.5 469.5q-1 125 -10.5 219
t-33 173.5t-61.5 129.5t-96 77.5t-137 27.5q-97 0 -164 -42t-105 -126t-54.5 -194.5t-16.5 -262.5q0 -129 9.5 -224t32.5 -174.5t62 -128.5t98.5 -75.5t141.5 -26.5z" />
    <glyph glyph-name="one" unicode="1" horiz-adv-x="739" 
d="M414 0v1292l-328 -211l-49 97l397 262h101v-1440h-121z" />
    <glyph glyph-name="two" unicode="2" horiz-adv-x="1034" 
d="M104 0v109q180 174 295 296t207.5 241.5t134 217t41.5 187.5q0 123 -80 209t-227 86q-176 0 -344 -154l-47 96q80 77 175.5 124.5t225.5 47.5q87 0 158.5 -23.5t120 -62.5t82 -91.5t48.5 -109.5t15 -118q0 -82 -32.5 -171t-85.5 -174t-140.5 -188.5t-177.5 -195.5
t-217 -213h676v-113h-828z" />
    <glyph glyph-name="three" unicode="3" horiz-adv-x="1038" 
d="M172 1239l-53 88q64 61 156.5 97t197.5 36q192 0 300 -105.5t108 -262.5q0 -117 -65 -205.5t-181 -136.5q133 -36 210 -127t77 -217q0 -80 -30.5 -155.5t-86.5 -136.5t-145.5 -97.5t-198.5 -36.5q-230 0 -383 141l57 100q62 -57 146 -92t176 -35q155 0 247.5 89t92.5 214
q0 127 -92 207t-248 80h-148v113h146q132 0 215.5 78t83.5 198q0 114 -78 193.5t-221 79.5q-86 0 -160.5 -29.5t-122.5 -77.5z" />
    <glyph glyph-name="four" unicode="4" horiz-adv-x="1191" 
d="M780 -20v364h-700v92l719 1004h102v-983h219v-113h-219v-364h-121zM217 457h563v784z" />
    <glyph glyph-name="five" unicode="5" horiz-adv-x="1032" 
d="M449 -20q-103 0 -204.5 33t-176.5 79l32 109q201 -109 353 -109t252 94t100 250q0 64 -21 121t-64 106t-118 78t-174 29q-103 0 -233 -53l-17 12l105 711h610v-109h-514l-74 -475q75 16 150 16q218 0 346.5 -122t128.5 -308q0 -132 -65 -238.5t-175 -165t-241 -58.5z" />
    <glyph glyph-name="six" unicode="6" horiz-adv-x="1095" 
d="M690 1440h141l-409 -574q-17 -23 -19 -26q73 30 162 30q125 0 229 -55t165 -157t61 -230q0 -192 -134 -320t-335 -128q-197 0 -326 122.5t-129 321.5q0 114 54 231t169 271zM223 430q0 -155 95.5 -246.5t236.5 -91.5q146 0 242 94t96 242q0 145 -96 236.5t-242 91.5
q-176 0 -283 -131q-49 -101 -49 -195z" />
    <glyph glyph-name="seven" unicode="7" horiz-adv-x="989" 
d="M936 1352l-617 -1352h-129l615 1329h-752v111h883v-88z" />
    <glyph glyph-name="eight" unicode="8" horiz-adv-x="1126" 
d="M113 399q0 149 75.5 244t196.5 135q-93 40 -150 119t-57 195q0 89 33.5 160.5t90 115.5t125.5 67t144 23q72 0 139 -22t122.5 -63.5t88.5 -110.5t33 -156q0 -121 -59.5 -204t-157.5 -124q57 -19 105 -49t87.5 -74.5t62 -108t22.5 -140.5q0 -102 -39.5 -184.5t-105 -134.5
t-146.5 -79.5t-168 -27.5q-82 0 -159 26t-141.5 75.5t-103 132t-38.5 185.5zM299 1096q0 -82 41.5 -144t101 -90t123.5 -28q104 0 186.5 71t82.5 191t-78.5 188t-188.5 68q-108 0 -188 -67t-80 -189zM240 401q0 -77 28 -137.5t74.5 -97t103 -55.5t117.5 -19q60 0 116.5 19.5
t103.5 57t75.5 99t28.5 138.5q0 76 -29.5 137t-77.5 97.5t-104.5 55.5t-114.5 19q-57 0 -111.5 -18t-102.5 -54t-77.5 -98.5t-29.5 -143.5z" />
    <glyph glyph-name="nine" unicode="9" horiz-adv-x="1099" 
d="M406 0h-142l410 573q3 4 9 13.5t9 13.5q-76 -31 -162 -31q-192 0 -323 124.5t-131 318.5q0 192 133.5 319t335.5 127q196 0 325 -121.5t129 -320.5q0 -114 -55 -231.5t-168 -270.5zM203 1016q0 -147 96.5 -239.5t241.5 -92.5q178 0 286 135q47 100 47 191
q0 154 -95 243.5t-236 89.5q-148 0 -244 -91.5t-96 -235.5z" />
    <glyph glyph-name="colon" unicode=":" horiz-adv-x="512" 
d="M145 981q0 47 32.5 79t78.5 32t78.5 -32t32.5 -79q0 -46 -32.5 -78.5t-78.5 -32.5t-78.5 32.5t-32.5 78.5zM256 938q19 0 32 13t13 30q0 20 -13 32.5t-32 12.5q-20 0 -32.5 -12.5t-12.5 -32.5q0 -18 12.5 -30.5t32.5 -12.5zM145 90q0 47 32.5 79t78.5 32t78.5 -32
t32.5 -79q0 -46 -32.5 -78t-78.5 -32t-78.5 32t-32.5 78zM256 47q19 0 32 13t13 30q0 20 -13 32.5t-32 12.5q-20 0 -32.5 -12.5t-12.5 -32.5q0 -18 12.5 -30.5t32.5 -12.5z" />
    <glyph glyph-name="semicolon" unicode=";" horiz-adv-x="528" 
d="M168 981q0 47 32.5 79t78.5 32q47 0 79.5 -32t32.5 -79q0 -46 -32.5 -78.5t-79.5 -32.5q-46 0 -78.5 32.5t-32.5 78.5zM279 938q19 0 33 13t14 30q0 20 -14 32.5t-33 12.5t-32.5 -12.5t-13.5 -32.5q0 -17 13.5 -30t32.5 -13zM131 -221l72 469h121l-91 -469h-102z" />
    <glyph glyph-name="less" unicode="&#x3c;" horiz-adv-x="1071" 
d="M926 1227v-137l-674 -379l674 -394v-143l-795 483v101z" />
    <glyph glyph-name="equal" unicode="=" horiz-adv-x="1171" 
d="M1047 922h-922v114h922v-114zM1047 381h-922v115h922v-115z" />
    <glyph glyph-name="greater" unicode="&#x3e;" horiz-adv-x="1071" 
d="M145 1090v137l797 -469v-101l-797 -483v143l674 394z" />
    <glyph glyph-name="question" unicode="?" horiz-adv-x="968" 
d="M459 473l-107 27q10 70 38.5 127.5t66 96.5t80.5 73t84 64.5t74.5 63t54 76t20.5 95.5q0 111 -90.5 181.5t-228.5 70.5q-184 0 -349 -156l-47 90q40 38 75.5 65t86.5 55t113.5 43t134.5 15q107 0 192.5 -32.5t135.5 -86t76 -116.5t26 -129q0 -62 -22 -114.5t-58 -90
t-79.5 -72t-88.5 -69t-84 -72t-67.5 -90.5t-36.5 -115zM299 94q0 47 32.5 80t78.5 33q47 0 79.5 -33t32.5 -80q0 -45 -32.5 -77.5t-79.5 -32.5q-46 0 -78.5 33t-32.5 77zM410 51q20 0 33.5 12.5t13.5 30.5q0 20 -13.5 33.5t-33.5 13.5q-19 0 -32 -13.5t-13 -33.5
q0 -17 13 -30t32 -13z" />
    <glyph glyph-name="at" unicode="@" horiz-adv-x="1720" 
d="M479 461q0 205 107 328.5t270 123.5q84 0 138 -44.5t89 -133.5l23 160h115l-74 -551q-20 -143 84 -143q109 0 187.5 134t78.5 331q0 84 -22 163.5t-69 151t-114.5 124.5t-165.5 84.5t-215 31.5q-213 0 -372.5 -104.5t-240.5 -280t-81 -396.5q0 -302 156 -456t434 -154
q183 0 377 59l24 -96q-207 -69 -407 -69q-322 0 -509.5 185t-187.5 523q0 181 56 342t158 283.5t258 194t344 71.5q134 0 247.5 -36.5t194 -99t137.5 -145.5t84 -176.5t27 -191.5q0 -59 -9 -121t-28 -128t-51.5 -123.5t-75 -103.5t-104.5 -73t-134 -27q-102 0 -142 52.5
t-38 142.5q-114 -168 -278 -168q-123 0 -197 86t-74 250zM600 479q0 -123 49 -184.5t129 -63.5q91 0 165.5 84.5t111.5 214.5l2 13q-24 132 -78 198t-129 66q-112 0 -181 -85.5t-69 -242.5z" />
    <glyph glyph-name="A" unicode="A" horiz-adv-x="1251" 
d="M23 0l544 1440h119l543 -1440h-133l-166 449h-613l-161 -449h-133zM358 561h531l-268 727z" />
    <glyph glyph-name="B" unicode="B" horiz-adv-x="1173" 
d="M203 0v1440h309q101 0 183 -20.5t147.5 -63t102 -117t36.5 -174.5q0 -120 -55.5 -201.5t-155.5 -122.5q144 -35 225.5 -124t81.5 -226q0 -122 -64.5 -211.5t-174 -134.5t-248.5 -45h-387zM510 1327h-186v-547h188q162 0 252 74.5t90 210.5q0 134 -90 198t-254 64z
M573 680h-249v-567h272q167 0 260.5 80t93.5 204q0 129 -102.5 206t-274.5 77z" />
    <glyph glyph-name="C" unicode="C" horiz-adv-x="1390" 
d="M1247 285l80 -84q-97 -105 -229 -163t-283 -58q-316 0 -513.5 205t-197.5 538q0 156 54 293t147.5 234.5t226 153.5t283.5 56q313 0 510 -203l-78 -98q-166 187 -436 187q-118 0 -223.5 -44.5t-184.5 -124t-125.5 -197.5t-46.5 -257q0 -146 45 -266t124 -199
t185.5 -121.5t229.5 -42.5q125 0 238 49.5t194 141.5z" />
    <glyph glyph-name="D" unicode="D" horiz-adv-x="1380" 
d="M203 0v1440h350q211 0 373.5 -85t255 -249.5t92.5 -384.5q0 -222 -92.5 -386.5t-254.5 -249.5t-372 -85h-352zM557 1327h-233v-1214h233q267 0 428.5 158.5t161.5 441.5t-164 448.5t-426 165.5z" />
    <glyph glyph-name="E" unicode="E" horiz-adv-x="1073" 
d="M203 0v1440h772v-113h-651v-549h561v-112h-561v-553h651v-113h-772z" />
    <glyph glyph-name="F" unicode="F" horiz-adv-x="1038" 
d="M203 0v1440h772v-113h-651v-586h575v-112h-575v-629h-121z" />
    <glyph glyph-name="G" unicode="G" horiz-adv-x="1560" 
d="M1487 709q0 -206 -81.5 -371t-234.5 -261.5t-352 -96.5q-208 0 -370.5 92t-253.5 261.5t-91 389.5q0 156 54 293t148 234.5t227 153.5t286 56q307 0 524 -203l-81 -94q-183 183 -447 183q-119 0 -225.5 -44.5t-186 -124t-126 -197.5t-46.5 -257q0 -146 45 -266
t124.5 -199t186.5 -121.5t232 -42.5q148 0 267 67t191 194t81 296h-500v113h610v-2h19v-53z" />
    <glyph glyph-name="H" unicode="H" horiz-adv-x="1581" 
d="M203 0v1440h121v-662h933v662h121v-1440h-121v666h-933v-666h-121z" />
    <glyph glyph-name="I" unicode="I" horiz-adv-x="526" 
d="M203 0v1440h121v-1440h-121z" />
    <glyph glyph-name="J" unicode="J" horiz-adv-x="948" 
d="M356 -20q-187 0 -329 98l34 108q132 -92 293 -92q128 0 206.5 71t78.5 210v1065h123v-1061q0 -182 -115 -290.5t-291 -108.5z" />
    <glyph glyph-name="K" unicode="K" horiz-adv-x="1130" 
d="M203 0v1440h121v-701l641 701h141l-653 -711l671 -729h-155l-645 698v-698h-121z" />
    <glyph glyph-name="L" unicode="L" horiz-adv-x="983" 
d="M203 0v1440h121v-1327h628v-113h-749z" />
    <glyph glyph-name="M" unicode="M" horiz-adv-x="1746" 
d="M203 0v1440h119v-2l557 -1024l546 1026h119v-1440h-121v1208l-493 -919h-115l-491 899v-1188h-121z" />
    <glyph glyph-name="N" unicode="N" horiz-adv-x="1548" 
d="M203 0v1440h121l725 -994l178 -256v1250h121v-1440h-121l-742 1014l-161 233v-1247h-121z" />
    <glyph glyph-name="O" unicode="O" horiz-adv-x="1632" 
d="M819 -20q-208 0 -370.5 92t-253.5 261.5t-91 389.5q0 156 54.5 293t149 234.5t227.5 153.5t284 56q154 0 286 -54.5t225 -151t145.5 -233.5t52.5 -298q0 -207 -93.5 -377.5t-256 -268t-359.5 -97.5zM819 94q115 0 220.5 45t185.5 124.5t128 198.5t48 259
q-1 143 -47 261.5t-125 197.5t-186 122.5t-228 43.5q-119 0 -225.5 -44.5t-186 -124t-126 -197.5t-46.5 -257q0 -146 45 -266t124.5 -199t186.5 -121.5t232 -42.5z" />
    <glyph glyph-name="P" unicode="P" horiz-adv-x="1075" 
d="M203 0v1440h297q109 0 200 -26.5t160.5 -79t108.5 -137t39 -193.5q0 -141 -70.5 -244t-184 -152t-253.5 -49h-176v-559h-121zM502 1327h-178v-655h182q175 0 275 92t100 233q0 160 -99.5 245t-279.5 85z" />
    <glyph glyph-name="Q" unicode="Q" horiz-adv-x="1632" 
d="M819 -20q-208 0 -370.5 92t-253.5 261.5t-91 389.5q0 156 54.5 293t149 234.5t227.5 153.5t284 56q154 0 286 -54.5t225 -151t145.5 -233.5t52.5 -298q0 -181 -72 -334.5t-199 -255.5l166 -250h-129l-125 189q-159 -92 -350 -92zM819 94q152 0 285 76l-242 362h127
l201 -301q99 85 155 210t56 280q-1 142 -47 260t-125.5 197t-186 123t-227.5 45q-119 -1 -225.5 -46t-186 -124.5t-126 -197t-46.5 -255.5q0 -146 45 -266t124.5 -199t186.5 -121.5t232 -42.5z" />
    <glyph glyph-name="R" unicode="R" horiz-adv-x="1150" 
d="M203 0v1440h311q84 0 157 -13t138 -43t110.5 -75.5t72 -115t26.5 -157.5q0 -165 -91 -268.5t-245 -140.5l395 -627h-143l-373 608q-8 0 -23.5 -1t-23.5 -1h-190v-606h-121zM514 1327h-190v-608h194q177 0 275 85.5t98 225.5q0 145 -98 221t-279 76z" />
    <glyph glyph-name="S" unicode="S" horiz-adv-x="1046" 
d="M483 -20q-103 0 -215 28.5t-182 71.5l39 113q175 -99 358 -99q161 0 257 79t96 200q0 61 -24.5 107.5t-66 76t-95.5 53t-114 43t-119.5 40.5t-113.5 52t-95.5 71t-66 102.5t-24.5 142.5q0 181 122.5 290t319.5 109q103 0 202.5 -27.5t158.5 -74.5l-52 -103
q-151 91 -311 91q-148 0 -233.5 -76.5t-85.5 -198.5q0 -66 24.5 -116.5t66.5 -82t96 -56t113.5 -43.5t119 -39.5t113.5 -49t96 -66.5t66.5 -97.5t24.5 -137.5q0 -118 -64 -211t-172 -142.5t-239 -49.5z" />
    <glyph glyph-name="T" unicode="T" horiz-adv-x="1140" 
d="M510 0v1327h-481v113h1083v-113h-481v-1327h-121z" />
    <glyph glyph-name="U" unicode="U" horiz-adv-x="1447" 
d="M182 553v887h121v-881q0 -121 32 -212t91.5 -145.5t137 -81t173.5 -26.5q186 0 294 114.5t112 364.5v867h121v-869q0 -152 -41.5 -268t-116 -185t-169 -103.5t-208.5 -34.5q-116 0 -212.5 32.5t-172.5 99.5t-119 179.5t-43 261.5z" />
    <glyph glyph-name="V" unicode="V" horiz-adv-x="1220" 
d="M543 0l-518 1440h127l462 -1290l457 1290h129l-528 -1440h-129z" />
    <glyph glyph-name="W" unicode="W" horiz-adv-x="1857" 
d="M457 0l-422 1440h127l356 -1250l373 1250h84l368 -1237l363 1237h123l-434 -1440h-107l-360 1182l-359 -1182h-112z" />
    <glyph glyph-name="X" unicode="X" horiz-adv-x="1136" 
d="M1102 1440l-473 -717l471 -723h-152l-385 621l-387 -621h-139l467 715l-467 725h139l393 -623l396 623h137z" />
    <glyph glyph-name="Y" unicode="Y" horiz-adv-x="1079" 
d="M477 0v573l-450 867h137l381 -756l385 756h135l-467 -873v-567h-121z" />
    <glyph glyph-name="Z" unicode="Z" horiz-adv-x="1056" 
d="M983 1354l-760 -1241h760v-113h-909v86l770 1241h-770v113h909v-86z" />
    <glyph glyph-name="bracketleft" unicode="[" horiz-adv-x="645" 
d="M199 -393v1833h387v-109h-271v-1616h271v-108h-387z" />
    <glyph glyph-name="backslash" unicode="\" horiz-adv-x="675" 
d="M631 -238h-113l-471 1678h113z" />
    <glyph glyph-name="bracketright" unicode="]" horiz-adv-x="645" 
d="M446 -393h-387v108h271v1616h-271v109h387v-1833z" />
    <glyph glyph-name="asciicircum" unicode="^" horiz-adv-x="1208" 
d="M1112 774l-139 2l-361 541l-374 -543h-142l463 666h103z" />
    <glyph glyph-name="underscore" unicode="_" horiz-adv-x="997" 
d="M911 -246h-823v92h823v-92z" />
    <glyph glyph-name="grave" unicode="`" horiz-adv-x="440" 
d="M350 1210h-108l-193 324h133z" />
    <glyph glyph-name="a" unicode="a" 
d="M98 532q0 256 145.5 408t368.5 152q146 0 256.5 -73.5t178.5 -207.5v258h116v-1069h-116v272q-68 -139 -178.5 -215.5t-258.5 -76.5q-106 0 -198.5 37t-162.5 105t-110.5 174t-40.5 236zM612 86q117 0 210.5 62t148.5 161.5t76 225.5q-27 195 -148 322.5t-287 127.5
q-173 0 -282 -116t-109 -334q0 -206 110 -327.5t281 -121.5z" />
    <glyph glyph-name="b" unicode="b" horiz-adv-x="1339" 
d="M1241 532q0 -130 -40 -236t-109.5 -174t-161.5 -105t-197 -37q-296 0 -440 292v-272h-115v1440h115v-643q71 139 183 217t255 78q106 0 197.5 -36t161.5 -105t110.5 -176.5t40.5 -242.5zM293 535q21 -126 76.5 -225.5t149 -161.5t210.5 -62q170 0 280.5 121.5
t110.5 327.5q0 217 -109.5 333.5t-283.5 116.5q-166 0 -286.5 -127.5t-147.5 -322.5z" />
    <glyph glyph-name="c" unicode="c" horiz-adv-x="1046" 
d="M944 178l37 -90q-133 -108 -352 -108q-105 0 -200.5 37.5t-169.5 105.5t-117.5 173t-43.5 232q0 129 44.5 237.5t118.5 178.5t169.5 109t198.5 39q219 0 350 -111l-43 -102q-68 52 -138.5 79t-168.5 27q-81 0 -154.5 -31.5t-130 -88.5t-90 -143.5t-33.5 -189.5
q0 -198 119 -322t289 -124q98 0 172.5 21.5t142.5 70.5z" />
    <glyph glyph-name="d" unicode="d" 
d="M98 532q0 130 40 237t110 177t163 108t199 38q146 0 258 -74t179 -209v631h116v-1440h-116v274q-68 -141 -178.5 -217.5t-260.5 -76.5q-105 0 -197.5 37t-162 105t-110 174t-40.5 236zM610 86q175 0 289.5 127t147.5 322q-27 196 -147.5 323t-287.5 127q-173 0 -282 -116
t-109 -334q0 -206 109.5 -327.5t279.5 -121.5z" />
    <glyph glyph-name="e" unicode="e" horiz-adv-x="1187" 
d="M1014 186l28 -94q-72 -53 -179 -82.5t-224 -29.5q-247 0 -394 146.5t-147 397.5q0 129 40.5 237t111 179.5t165 111.5t201.5 40q216 0 351 -149.5t135 -410.5q0 -23 -4 -43h-877q10 -193 121.5 -298t302.5 -105q105 0 192.5 22.5t176.5 77.5zM614 985
q-163 0 -268.5 -104.5t-122.5 -292.5h756q-12 190 -108.5 293.5t-256.5 103.5z" />
    <glyph glyph-name="f" unicode="f" horiz-adv-x="671" 
d="M66 1069h159v8q0 191 95 287t264 96q79 0 137 -18l-21 -105q-90 17 -120 17q-238 0 -238 -277v-8h311v-100h-311v-969h-117v969h-159v100z" />
    <glyph glyph-name="g" unicode="g" 
d="M98 539q0 131 40.5 237t110.5 174.5t162.5 105t198.5 36.5q148 0 260 -74t179 -209v260h114v-1051q0 -145 -71.5 -252.5t-189.5 -161t-263 -53.5q-130 0 -258 37t-217 103l24 110q97 -69 218 -105t237 -36q111 0 201.5 40t147.5 121.5t57 192.5v262q-141 -278 -439 -278
q-106 0 -198.5 35.5t-162.5 102t-110.5 170.5t-40.5 233zM610 104q177 0 291 119t148 312q-27 196 -148.5 323t-288.5 127q-84 0 -154.5 -27.5t-124 -80.5t-84 -139t-30.5 -197q0 -204 110.5 -320.5t280.5 -116.5z" />
    <glyph glyph-name="h" unicode="h" horiz-adv-x="1255" 
d="M178 0v1440h115v-664q173 316 450 316q57 0 105.5 -12t94.5 -42t78 -77.5t51.5 -122.5t19.5 -172v-666h-117v651q0 173 -69 252.5t-185 79.5q-258 0 -428 -399v-584h-115z" />
    <glyph glyph-name="i" unicode="i" horiz-adv-x="471" 
d="M133 1389q0 44 31 74t74 30t74.5 -30t31.5 -74q0 -43 -31.5 -74t-74.5 -31t-74 31t-31 74zM238 1343q18 0 31.5 14t13.5 32q0 20 -13 32.5t-32 12.5q-20 0 -32.5 -12.5t-12.5 -32.5q0 -18 12.5 -32t32.5 -14zM178 0v1069h115v-1069h-115z" />
    <glyph glyph-name="j" unicode="j" horiz-adv-x="487" 
d="M150 1389q0 44 30.5 74t73.5 30t74.5 -30t31.5 -74q0 -43 -31.5 -74t-74.5 -31t-73.5 31t-30.5 74zM254 1343q18 0 32.5 14.5t14.5 31.5q0 20 -14 32.5t-33 12.5q-20 0 -32.5 -12.5t-12.5 -32.5q0 -18 12.5 -32t32.5 -14zM195 -66v1135h114v-1135q0 -188 -91 -285.5
t-259 -97.5q-144 0 -256 64l35 100q107 -55 225 -55q114 0 173 65.5t59 208.5z" />
    <glyph glyph-name="k" unicode="k" horiz-adv-x="962" 
d="M178 0v1440h115v-883l489 512h146l-520 -526l557 -543h-156l-516 502v-502h-115z" />
    <glyph glyph-name="l" unicode="l" horiz-adv-x="471" 
d="M178 0v1440h115v-1440h-115z" />
    <glyph glyph-name="m" unicode="m" horiz-adv-x="2025" 
d="M178 0v1069h115v-291q166 314 438 314q133 0 225.5 -75t114.5 -249q167 324 445 324q56 0 104.5 -12t94 -42t77.5 -77.5t51 -122.5t19 -172v-666h-115v651q0 173 -69 252.5t-185 79.5q-263 0 -416 -391v-592h-114v651q0 173 -69.5 252.5t-186.5 79.5q-258 0 -414 -391
v-592h-115z" />
    <glyph glyph-name="n" unicode="n" horiz-adv-x="1255" 
d="M178 0v1069h115v-293q173 316 450 316q57 0 105.5 -12t94.5 -42t78 -77.5t51.5 -122.5t19.5 -172v-666h-117v651q0 173 -69 252.5t-185 79.5q-273 0 -428 -391v-592h-115z" />
    <glyph glyph-name="o" unicode="o" horiz-adv-x="1294" 
d="M96 530q0 130 46.5 238t123.5 178t174 108t201 38t202 -37t178 -104.5t128.5 -175t48.5 -236.5t-46.5 -236t-124 -177t-178 -108t-210.5 -38q-85 0 -164.5 22.5t-148 68.5t-120 110.5t-81 154t-29.5 194.5zM219 539q0 -213 121.5 -333t304.5 -120q184 0 307 119t123 323
q0 140 -60.5 245.5t-157.5 158.5t-212 53q-111 0 -206.5 -50t-157.5 -153.5t-62 -242.5z" />
    <glyph glyph-name="p" unicode="p" horiz-adv-x="1339" 
d="M293 1069v-260q67 135 178.5 209t259.5 74q106 0 198.5 -38t162 -108t109.5 -177t40 -237t-40 -236t-109.5 -174t-161.5 -105t-197 -37q-295 0 -440 294v-706h-115v1501h115zM293 535q22 -127 77.5 -226t149 -161t211.5 -62q170 0 279.5 121.5t109.5 327.5
q0 218 -109 334t-282 116q-166 0 -288 -127.5t-148 -322.5z" />
    <glyph glyph-name="q" unicode="q" 
d="M98 532q0 130 40 237t110 177t163 108t199 38q146 0 258 -74t179 -209v260h116v-1501h-116v706q-68 -141 -178.5 -217.5t-260.5 -76.5q-105 0 -197.5 37t-162 105t-110 174t-40.5 236zM610 86q175 0 289.5 127t147.5 322q-27 196 -147.5 323t-287.5 127q-173 0 -282 -116
t-109 -334q0 -206 109.5 -327.5t279.5 -121.5z" />
    <glyph glyph-name="r" unicode="r" horiz-adv-x="798" 
d="M178 0v1069h115v-289q74 142 173 226t218 84q50 0 100 -17l-26 -104q-43 16 -80 16q-119 0 -217.5 -104t-167.5 -285v-596h-115z" />
    <glyph glyph-name="s" unicode="s" horiz-adv-x="927" 
d="M436 -20q-93 0 -192.5 23t-159.5 56l33 107q150 -80 321 -80q132 0 210.5 48.5t78.5 144.5q0 60 -34 99t-89 58t-121 33t-132.5 33t-121.5 49t-89 89.5t-34 145.5q0 136 101 221t285 85q80 0 167 -20.5t152 -57.5l-33 -107q-138 78 -284 78q-122 0 -195.5 -51.5
t-73.5 -142.5q0 -51 21 -88t57 -58t82 -36.5t97.5 -26.5t102.5 -23.5t97 -33t82 -49.5t57 -77.5t21 -113.5q0 -137 -117.5 -221t-288.5 -84z" />
    <glyph glyph-name="t" unicode="t" horiz-adv-x="811" 
d="M225 348v621h-194v100h194v324h117v-324h416v-100h-416v-602q0 -283 227 -283q105 0 205 53l29 -96q-122 -61 -254 -61q-148 0 -236 90t-88 278z" />
    <glyph glyph-name="u" unicode="u" horiz-adv-x="1236" 
d="M279 1069v-649q0 -165 66.5 -248.5t180.5 -83.5q137 0 239.5 97.5t176.5 293.5v590h117v-1069h-117v285q-156 -305 -438 -305q-72 0 -131.5 22.5t-108 71t-75.5 133t-27 199.5v663h117z" />
    <glyph glyph-name="v" unicode="v" horiz-adv-x="1034" 
d="M459 0l-428 1069h133l356 -917l354 917h132l-437 -1069h-110z" />
    <glyph glyph-name="w" unicode="w" horiz-adv-x="1685" 
d="M1665 1069l-418 -1069l-110 2l-285 899l-322 -901l-110 2l-383 1067h131l313 -909l316 909h116l285 -911l338 911h129z" />
    <glyph glyph-name="x" unicode="x" horiz-adv-x="985" 
d="M950 1069l-395 -534l389 -535h-147l-308 444l-315 -444h-135l389 532l-389 537h145l310 -444l311 444h145z" />
    <glyph glyph-name="y" unicode="y" horiz-adv-x="1036" 
d="M463 -10l-432 1079h131l362 -930l350 930h130l-594 -1499h-123z" />
    <glyph glyph-name="z" unicode="z" horiz-adv-x="942" 
d="M860 979l-633 -875h637v-104h-782v86l639 879h-643v104h782v-90z" />
    <glyph glyph-name="braceleft" unicode="{" horiz-adv-x="722" 
d="M662 1438v-105q-16 4 -89 4q-106 0 -144 -48.5t-38 -143.5v-332q0 -96 -47 -174t-141 -119q188 -70 188 -289v-327q0 -91 40.5 -142t148.5 -51q54 0 82 4v-106q-62 -10 -109 -10q-135 0 -207 82.5t-72 218.5v315q0 64 -16.5 114t-62.5 89.5t-119 48.5v106q100 7 149 80
t49 185v321q0 129 76 208t211 79q49 0 101 -8z" />
    <glyph glyph-name="bar" unicode="|" horiz-adv-x="522" 
d="M319 -238h-116v1678h116v-1678z" />
    <glyph glyph-name="braceright" unicode="}" horiz-adv-x="722" 
d="M61 1438q49 8 103 8q135 0 210 -80t75 -211v-328q0 -108 47.5 -175.5t150.5 -76.5v-106q-54 -6 -94 -31t-62 -63t-32 -80t-10 -90v-309q0 -133 -73.5 -215t-207.5 -82q-45 0 -107 10v106q16 -4 78 -4q109 0 151 47.5t42 145.5v323q0 102 46.5 181t141.5 114
q-188 78 -188 287v334q0 41 -7 72.5t-25 60.5t-56 45t-94 16q-61 0 -89 -4v105z" />
    <glyph glyph-name="asciitilde" unicode="~" horiz-adv-x="1150" 
d="M791 627q105 0 174 114l61 -55q-36 -78 -99.5 -122t-144.5 -44q-52 0 -110 18t-102 39.5t-102.5 39.5t-111.5 18q-89 0 -168 -109l-59 54q35 73 96 118t135 45q68 0 142 -29l148 -58t141 -29z" />
    <glyph glyph-name="uniF8FF" unicode="&#xf8ff;" horiz-adv-x="1638" 
d="M205 0v1229h1229v-1229h-1229zM528 696h41v287h144v41h-328v-41h143v-287zM897 696h41v123h160q47 0 76.5 29t29.5 74t-29.5 73.5t-76.5 28.5h-201v-328zM938 860v123h160q29 0 47 -16.5t18 -44.5q0 -27 -18 -44.5t-47 -17.5h-160zM1253 143l29 29l-86 86q39 45 39 111
q0 73 -50.5 123.5t-123.5 50.5t-123.5 -50.5t-50.5 -123.5t50.5 -123.5t123.5 -50.5q63 0 106 34zM528 205h41v287h144v40h-328v-40h143v-287zM1061 236q-57 0 -95 38t-38 95t38 95t95 38t95 -38t38 -95t-38 -95t-95 -38z" />
    <glyph glyph-name="uni00690307" horiz-adv-x="471" 
d="M133 1389q0 44 31 74t74 30t74.5 -30t31.5 -74q0 -43 -31.5 -74t-74.5 -31t-74 31t-31 74zM238 1343q18 0 31.5 14t13.5 32q0 20 -13 32.5t-32 12.5q-20 0 -32.5 -12.5t-12.5 -32.5q0 -18 12.5 -32t32.5 -14zM178 0v1069h115v-1069h-115z" />
    <glyph glyph-name="fraction" horiz-adv-x="303" 
d="M-272 0h-90l940 1440h90z" />
    <glyph glyph-name="uni200A" horiz-adv-x="143" 
 />
    <glyph glyph-name="colon.cap" horiz-adv-x="532" 
d="M156 1176q0 47 32 78.5t78 31.5t78.5 -31.5t32.5 -78.5q0 -46 -32.5 -78.5t-78.5 -32.5t-78 32.5t-32 78.5zM266 1133q19 0 32 13t13 30q0 20 -13 32.5t-32 12.5q-20 0 -32.5 -12.5t-12.5 -32.5q0 -18 12.5 -30.5t32.5 -12.5zM156 285q0 47 32 78.5t78 31.5t78.5 -31.5
t32.5 -78.5q0 -46 -32.5 -78.5t-78.5 -32.5t-78 32.5t-32 78.5zM266 242q19 0 32 13t13 30q0 20 -13 32.5t-32 12.5q-20 0 -32.5 -12.5t-12.5 -32.5q0 -18 12.5 -30.5t32.5 -12.5z" />
    <glyph glyph-name="hyphen.cap" horiz-adv-x="821" 
d="M707 670h-592v92h592v-92z" />
    <glyph glyph-name="zero.numerator" horiz-adv-x="770" 
d="M387 627q-156 0 -225.5 105t-69.5 304q0 195 71.5 307.5t223.5 112.5q291 0 291 -420q0 -192 -70.5 -300.5t-220.5 -108.5zM387 711q191 -3 191 325q0 165 -44.5 248t-148.5 82q-102 0 -146 -84t-44 -246q0 -167 43 -246t149 -79z" />
    <glyph glyph-name="one.numerator" horiz-adv-x="505" 
d="M266 637v698l-184 -116l-41 69l240 152h81v-803h-96z" />
    <glyph glyph-name="two.numerator" horiz-adv-x="665" 
d="M82 637v65q99 93 159.5 154.5t117.5 128.5t82.5 121t25.5 102q-2 66 -48 112t-128 46q-101 0 -191 -78l-28 74q102 94 235 94q125 0 192.5 -69.5t67.5 -165.5q0 -55 -24.5 -113t-76.5 -123.5t-108.5 -123.5t-144.5 -140h367v-84h-498z" />
    <glyph glyph-name="three.numerator" horiz-adv-x="661" 
d="M121 1309l-31 69q38 34 93 56t116 22q113 0 181.5 -58.5t68.5 -150.5q0 -64 -39 -113.5t-107 -76.5q78 -21 124 -72.5t46 -122.5q0 -98 -78 -166.5t-204 -68.5q-137 0 -225 73l34 78q80 -69 187 -69q84 0 136 44.5t52 108.5t-52 105t-136 41h-90v82h88q70 0 117 40
t47 101q0 58 -45.5 96.5t-122.5 38.5q-103 0 -160 -57z" />
    <glyph glyph-name="four.numerator" horiz-adv-x="755" 
d="M465 637v192h-397v70l407 541h88v-529h125v-82h-125v-192h-98zM168 911h297v396z" />
    <glyph glyph-name="five.numerator" horiz-adv-x="667" 
d="M297 627q-65 0 -128.5 17.5t-105.5 43.5l23 80q105 -59 207 -59q85 0 139.5 48t54.5 126q0 70 -52.5 120t-155.5 50q-61 0 -146 -29l-10 10l59 406h379v-84h-303l-37 -236q33 8 82 8q130 0 207.5 -69t77.5 -174q0 -115 -83.5 -186.5t-207.5 -71.5z" />
    <glyph glyph-name="six.numerator" horiz-adv-x="698" 
d="M412 1440h110l-231 -322q27 8 69 8q112 0 192.5 -64.5t80.5 -184.5q0 -114 -83.5 -183t-199.5 -69q-111 0 -191.5 65.5t-80.5 183.5q0 69 30.5 130t90.5 139zM178 877q0 -79 52 -124.5t122 -45.5q74 0 127 46.5t53 123.5t-54 123.5t-124 46.5q-88 0 -149 -64
q-27 -64 -27 -106z" />
    <glyph glyph-name="seven.numerator" horiz-adv-x="632" 
d="M580 1384l-347 -747h-100l340 719h-418v84h525v-56z" />
    <glyph glyph-name="eight.numerator" horiz-adv-x="722" 
d="M86 860q0 81 44.5 133t117.5 78q-123 47 -123 172q0 99 71.5 155t170.5 56q95 0 165 -54t70 -151q0 -127 -127 -178q71 -24 115.5 -76t44.5 -133q0 -113 -82 -175t-195 -62q-111 0 -191 60t-81 175zM221 1241q0 -62 42.5 -97.5t98.5 -35.5t100 37t44 100q0 61 -41.5 97
t-99.5 36q-59 0 -101.5 -36t-42.5 -101zM190 866q0 -78 50.5 -119.5t119.5 -41.5q70 0 122.5 42t52.5 117q0 76 -53 119t-120 43q-68 0 -120 -41t-52 -119z" />
    <glyph glyph-name="nine.numerator" horiz-adv-x="702" 
d="M289 637h-111l228 321q-40 -8 -68 -8q-110 0 -191 65.5t-81 184.5q0 115 83.5 184.5t198.5 69.5q112 0 193.5 -66.5t81.5 -183.5q0 -49 -19 -99.5t-41 -84t-63 -88.5zM168 1202q0 -78 53.5 -125t122.5 -47q92 0 152 66q26 61 26 104q0 80 -52.5 124t-123.5 44
q-74 0 -126 -45t-52 -121z" />
    <glyph glyph-name="zero.denominator" horiz-adv-x="774" 
d="M389 -12q-156 0 -225.5 106t-69.5 305q0 94 16.5 168.5t51 131.5t92 87.5t135.5 30.5q291 0 291 -418q0 -191 -71 -301t-220 -110zM389 74q100 0 145.5 82.5t45.5 242.5q0 165 -44.5 248.5t-148.5 83.5q-102 -1 -148 -85.5t-46 -244.5q0 -168 43.5 -247t152.5 -80z" />
    <glyph glyph-name="one.denominator" horiz-adv-x="505" 
d="M264 0v698l-184 -116l-41 69l240 152h81v-803h-96z" />
    <glyph glyph-name="two.denominator" horiz-adv-x="663" 
d="M82 0v66q82 79 129.5 125.5t103.5 107.5t84.5 102.5t48 86.5t19.5 83q-2 67 -48 113.5t-128 46.5q-98 0 -191 -80l-28 74q105 92 237 92q122 0 190 -69t68 -164q0 -55 -25 -113t-78.5 -124t-109 -122.5t-145.5 -140.5h371v-84h-498z" />
    <glyph glyph-name="three.denominator" horiz-adv-x="661" 
d="M121 672l-31 69q83 76 211 76q110 0 179 -57.5t69 -147.5q0 -66 -38 -114.5t-105 -75.5q76 -21 121.5 -73.5t45.5 -123.5q0 -98 -78.5 -167.5t-203.5 -69.5q-135 0 -225 75l32 80q82 -69 189 -69q84 0 135 43.5t51 107.5t-50.5 106t-135.5 42h-88v80h86q71 0 117.5 39
t46.5 100q0 58 -45 98.5t-121 40.5q-103 0 -162 -59z" />
    <glyph glyph-name="four.denominator" horiz-adv-x="753" 
d="M463 0v193h-395v69l405 541h86v-529h127v-81h-127v-193h-96zM166 274h297v398z" />
    <glyph glyph-name="five.denominator" horiz-adv-x="669" 
d="M297 -12q-65 0 -128 18t-106 45l23 80q108 -57 207 -57q84 0 139 47t55 125q0 70 -52.5 119t-155.5 49q-66 0 -146 -27l-10 10l59 406h379v-84h-303l-37 -236q56 9 82 9q130 0 207.5 -69t77.5 -175q0 -114 -84 -187t-207 -73z" />
    <glyph glyph-name="six.denominator" horiz-adv-x="700" 
d="M414 803h110l-231 -322q27 8 69 8q112 0 192.5 -64.5t80.5 -184.5q0 -114 -83.5 -183t-199.5 -69q-112 0 -192 66t-80 184q0 69 30 129t91 141zM180 240q0 -79 52 -123.5t122 -44.5q73 0 127 45.5t54 120.5q0 78 -55 124t-124 46q-93 0 -149 -62q-27 -56 -27 -106z" />
    <glyph glyph-name="seven.denominator" horiz-adv-x="634" 
d="M582 745l-346 -745h-101l338 719h-416v84h525v-58z" />
    <glyph glyph-name="eight.denominator" horiz-adv-x="722" 
d="M88 223q0 80 44 132.5t114 76.5q-121 52 -121 174q0 100 71 154.5t171 54.5q96 0 165.5 -52t69.5 -149q0 -127 -127 -182q71 -24 115.5 -75t44.5 -132q0 -113 -82 -176t-195 -63q-70 0 -129.5 24.5t-100 80t-40.5 132.5zM219 606q0 -63 43.5 -99t99.5 -36t100 37t44 100
q0 60 -42 95.5t-99 35.5q-59 0 -102.5 -35t-43.5 -98zM190 227q0 -77 50 -117t120 -40q69 0 122 41.5t53 115.5q0 76 -53.5 119t-121.5 43q-67 0 -118.5 -41t-51.5 -121z" />
    <glyph glyph-name="nine.denominator" horiz-adv-x="702" 
d="M289 0h-111l228 322q-30 -9 -68 -9q-111 0 -191.5 65.5t-80.5 184.5q0 115 83.5 183.5t198.5 68.5q112 0 192.5 -66t80.5 -184q0 -69 -30 -129t-91 -141zM168 563q0 -76 53.5 -122t122.5 -46q93 0 152 62q26 54 26 106q0 80 -52.5 124t-123.5 44q-74 0 -126 -45t-52 -123
z" />
    </font>
</defs>
</svg>
