<?xml version="1.0" standalone="no"?>
<!DOCTYPE svg PUBLIC "-//W3C//DTD SVG 1.1//EN" "http://www.w3.org/Graphics/SVG/1.1/DTD/svg11.dtd" >
<svg xmlns="http://www.w3.org/2000/svg" xmlns:xlink="http://www.w3.org/1999/xlink" version="1.1">
<metadata>
Created by FontForge 20201107 at Wed Jun 11 15:15:55 2025
 By 
Copyright 2019-2024 Typotheque. All rights reserved.
</metadata>
<defs>
<font id="PingL-Medium" horiz-adv-x="1169" >
  <font-face 
    font-family="Ping xsTRIAL Medium"
    font-weight="550"
    font-stretch="normal"
    units-per-em="2048"
    panose-1="0 0 0 0 0 0 0 0 0 0"
    ascent="1638"
    descent="-410"
    x-height="1075"
    cap-height="1440"
    bbox="-336 -453 1923 1608"
    underline-thickness="102"
    underline-position="-204"
    unicode-range="U+0020-F8FF"
  />
<missing-glyph horiz-adv-x="1458" 
d="M1239 1438h55v-56h-55v56zM1085 1438h56v-56h-56v56zM932 1438h55v-56h-55v56zM164 1438h55v-56h-55v56zM317 1438h56v-56h-56v56zM471 1438h55v-56h-55v56zM778 1438h56v-56h-56v56zM625 1438h55v-56h-55v56zM164 1284h55v-55h-55v55zM1239 1284h55v-55h-55v55z
M932 1130h55v-55h-55v55zM164 1130h55v-55h-55v55zM1239 1130h55v-55h-55v55zM471 1130h55v-55h-55v55zM625 1130h55v-55h-55v55zM778 1130h56v-55h-56v55zM932 977h55v-55h-55v55zM164 977h55v-55h-55v55zM1239 977h55v-55h-55v55zM164 823h55v-55h-55v55zM932 823h55v-55
h-55v55zM625 823h55v-55h-55v55zM1239 823h55v-55h-55v55zM778 823h56v-55h-56v55zM625 670h55v-56h-55v56zM1239 670h55v-56h-55v56zM164 670h55v-56h-55v56zM164 516h55v-55h-55v55zM1239 516h55v-55h-55v55zM625 362h55v-55h-55v55zM164 362h55v-55h-55v55zM1239 362h55
v-55h-55v55zM164 209h55v-55h-55v55zM1239 209h55v-55h-55v55zM1239 55h55v-55h-55v55zM1085 55h56v-55h-56v55zM932 55h55v-55h-55v55zM164 55h55v-55h-55v55zM625 55h55v-55h-55v55zM471 55h55v-55h-55v55zM317 55h56v-55h-56v55zM778 55h56v-55h-56v55z" />
    <glyph glyph-name="uniFB01" unicode="fi" horiz-adv-x="1275" 
d="M883 1403q0 58 39.5 95.5t97.5 37.5q55 0 96 -38t41 -95q0 -56 -40.5 -95.5t-96.5 -39.5t-96.5 38.5t-40.5 96.5zM61 1075h166q4 196 109 292.5t295 96.5q93 0 157 -20l-26 -164q-85 18 -125 18q-101 0 -153 -51t-52 -172h287v-164h-287v-911h-205v911h-166v164zM915 0
v1075h205v-1075h-205z" />
    <glyph glyph-name="uniFB02" unicode="fl" horiz-adv-x="1273" 
d="M61 1075h166q4 196 109 292.5t295 96.5q93 0 157 -20l-26 -164q-85 18 -125 18q-101 0 -153 -51t-52 -172h287v-164h-287v-911h-205v911h-166v164zM913 0v1440h205v-1440h-205z" />
    <glyph glyph-name="uni2E28" unicode="&#x28;&#x28;" horiz-adv-x="1050" 
d="M633 1440q-150 -176 -241 -429.5t-91 -486.5q0 -234 88 -489.5t234 -427.5h-222q-149 179 -227 417.5t-78 493.5q0 253 81.5 495t236.5 427h219zM1044 1440q-151 -175 -242 -428.5t-91 -487.5q0 -235 88 -490t235 -427h-223q-148 180 -226.5 418.5t-78.5 492.5
q0 253 81 495t236 427h221z" />
    <glyph glyph-name="uni2E29" unicode="&#x29;&#x29;" horiz-adv-x="1052" 
d="M418 -393q151 176 242.5 429t91.5 488q0 233 -88.5 488.5t-235.5 427.5h221q149 -180 228 -419t79 -493q0 -252 -81.5 -493.5t-235.5 -427.5h-221zM8 -393q150 176 241 429t91 488q0 233 -88.5 488.5t-233.5 427.5h222q149 -179 227 -418t78 -494q0 -253 -81.5 -494.5
t-236.5 -426.5h-219z" />
    <glyph glyph-name="uni0030FE00" unicode="0" horiz-adv-x="1253" 
d="M629 -23q-117 0 -205.5 35t-147 97t-95 156.5t-51.5 205t-15 250.5q0 743 514 743q116 0 204 -36t146 -99t94.5 -157.5t52 -204.5t15.5 -246q0 -167 -27.5 -298.5t-86 -233.5t-159.5 -157t-239 -55zM332 721q0 -173 20 -287l471 752q-69 84 -196 84q-70 0 -121.5 -25
t-84.5 -69.5t-53 -114.5t-28 -151t-8 -189zM629 170q161 0 228 137.5t67 411.5q-3 195 -31 315l-479 -766q67 -98 215 -98z" />
    <glyph glyph-name="uni301A" unicode="[[" horiz-adv-x="1073" 
d="M176 -393v1833h834v-170h-248v-1493h248v-170h-834zM365 -223h210v1493h-210v-1493z" />
    <glyph glyph-name="uni301B" unicode="]]" horiz-adv-x="1073" 
d="M895 -393h-832v170h246v1493h-246v170h832v-1833zM709 1270h-211v-1493h211v1493z" />
    <glyph glyph-name=".notdef" horiz-adv-x="1458" 
d="M1239 1438h55v-56h-55v56zM1085 1438h56v-56h-56v56zM932 1438h55v-56h-55v56zM164 1438h55v-56h-55v56zM317 1438h56v-56h-56v56zM471 1438h55v-56h-55v56zM778 1438h56v-56h-56v56zM625 1438h55v-56h-55v56zM164 1284h55v-55h-55v55zM1239 1284h55v-55h-55v55z
M932 1130h55v-55h-55v55zM164 1130h55v-55h-55v55zM1239 1130h55v-55h-55v55zM471 1130h55v-55h-55v55zM625 1130h55v-55h-55v55zM778 1130h56v-55h-56v55zM932 977h55v-55h-55v55zM164 977h55v-55h-55v55zM1239 977h55v-55h-55v55zM164 823h55v-55h-55v55zM932 823h55v-55
h-55v55zM625 823h55v-55h-55v55zM1239 823h55v-55h-55v55zM778 823h56v-55h-56v55zM625 670h55v-56h-55v56zM1239 670h55v-56h-55v56zM164 670h55v-56h-55v56zM164 516h55v-55h-55v55zM1239 516h55v-55h-55v55zM625 362h55v-55h-55v55zM164 362h55v-55h-55v55zM1239 362h55
v-55h-55v55zM164 209h55v-55h-55v55zM1239 209h55v-55h-55v55zM1239 55h55v-55h-55v55zM1085 55h56v-55h-56v55zM932 55h55v-55h-55v55zM164 55h55v-55h-55v55zM625 55h55v-55h-55v55zM471 55h55v-55h-55v55zM317 55h56v-55h-56v55zM778 55h56v-55h-56v55z" />
    <glyph glyph-name=".null" horiz-adv-x="0" 
 />
    <glyph glyph-name="nonmarkingreturn" horiz-adv-x="682" 
 />
    <glyph glyph-name="space" unicode=" " horiz-adv-x="481" 
 />
    <glyph glyph-name="exclam" unicode="!" horiz-adv-x="559" 
d="M203 489l-47 951h245l-47 -951h-151zM137 117q0 61 42 101t102 40q61 0 102 -39.5t41 -101.5q0 -60 -41 -101t-102 -41q-58 0 -101 41t-43 101z" />
    <glyph glyph-name="quotedbl" unicode="&#x22;" horiz-adv-x="815" 
d="M145 891l-22 549h203l-29 -549h-152zM516 891l-22 549h202l-28 -549h-152z" />
    <glyph glyph-name="numbersign" unicode="#" horiz-adv-x="1335" 
d="M162 0l76 395h-146v152h174l68 352h-189v154h220l73 387h158l-72 -387h402l73 387h158l-72 -387h162v-154h-190l-66 -352h205v-152h-233l-74 -395h-166l76 395h-398l-75 -395h-164zM428 547h399l68 352h-399z" />
    <glyph glyph-name="dollar" unicode="$" horiz-adv-x="1093" 
d="M469 -182v219q-104 5 -209 32.5t-176 71.5l49 193q192 -111 373 -111q145 0 223 53.5t78 141.5q0 49 -24 84t-65 55t-94 34t-111 26.5t-116.5 27.5t-111.5 41.5t-94 64.5t-65 100t-24 144q0 153 99.5 256t267.5 131v226h162v-219q102 -6 198 -35.5t150 -71.5l-64 -178
q-172 96 -329 96q-134 0 -204.5 -52t-70.5 -134q0 -68 39 -112.5t101.5 -67t137.5 -39t150.5 -39t138 -57t101.5 -101.5t39 -164q0 -154 -107 -257t-280 -132v-227h-162z" />
    <glyph glyph-name="percent" unicode="%" horiz-adv-x="1849" 
d="M63 1085q0 91 32 164.5t86 119t123.5 69.5t146.5 24t144.5 -23t120.5 -66.5t84 -115t31 -161.5q0 -91 -32.5 -165t-87 -120.5t-123.5 -71t-146 -24.5q-73 0 -139.5 23t-121 67.5t-86.5 117t-32 162.5zM287 0l1054 1440h209l-1054 -1440h-209zM248 1092q0 -104 56 -161
t145 -57q87 0 142.5 56.5t55.5 156.5q0 99 -57.5 157.5t-143.5 58.5q-81 0 -139.5 -55.5t-58.5 -155.5zM1020 348q0 92 31.5 165t86 118.5t123.5 69.5t146 24q104 0 188.5 -39t138.5 -124t54 -204q0 -121 -56.5 -210t-144 -131t-190.5 -42q-72 0 -138.5 23.5t-120.5 68.5
t-86 118t-32 163zM1204 354q0 -104 55 -160.5t144 -56.5t145 56.5t56 156.5q0 98 -57.5 156.5t-143.5 58.5q-82 0 -140.5 -55.5t-58.5 -155.5z" />
    <glyph glyph-name="ampersand" unicode="&#x26;" horiz-adv-x="1474" 
d="M1135 782h200q-1 -137 -49 -265.5t-133 -233.5l293 -283h-275l-153 147q-102 -81 -222.5 -126.5t-244.5 -45.5q-208 0 -332.5 109t-124.5 276q0 71 22.5 131.5t65.5 108.5t90.5 83.5t112.5 72.5q-84 82 -132 164t-48 176q0 150 113.5 259t287.5 109q169 0 282 -99.5
t113 -246.5q0 -55 -18 -105t-45.5 -87.5t-72 -75t-85 -64t-96.5 -57.5l336 -319q115 160 115 372zM403 1100q0 -58 38 -114t120 -138q47 24 79 43.5t66.5 45t55 50t34 56t13.5 65.5q0 79 -56.5 130.5t-144.5 51.5q-99 0 -152 -57.5t-53 -132.5zM301 379q0 -89 72 -153
t194 -64q169 0 320 110l-377 361q-100 -58 -154.5 -117.5t-54.5 -136.5z" />
    <glyph glyph-name="quotesingle" unicode="'" horiz-adv-x="444" 
d="M145 891l-22 549h203l-29 -549h-152z" />
    <glyph glyph-name="parenleft" unicode="(" horiz-adv-x="641" 
d="M633 1440q-150 -176 -241 -429.5t-91 -486.5q0 -234 88 -489.5t234 -427.5h-222q-149 179 -227 417.5t-78 493.5q0 253 81.5 495t236.5 427h219z" />
    <glyph glyph-name="parenright" unicode=")" horiz-adv-x="641" 
d="M8 1440h219q155 -185 236.5 -427t81.5 -495q0 -255 -78 -493.5t-227 -417.5h-222q146 173 235 428.5t89 488.5t-92 486.5t-242 429.5z" />
    <glyph glyph-name="asterisk" unicode="*" horiz-adv-x="987" 
d="M182 788l-76 134l261 137l-261 133l76 137l250 -166l-18 301h153l-12 -295l248 162l80 -137l-271 -133l273 -135l-78 -133l-250 157l14 -295h-157l18 301z" />
    <glyph glyph-name="plus" unicode="+" horiz-adv-x="1267" 
d="M535 141v473h-467v189h467v471h192v-471h471v-189h-471v-473h-192z" />
    <glyph glyph-name="comma" unicode="," horiz-adv-x="464" 
d="M80 -238l65 519h207l-119 -519h-153z" />
    <glyph glyph-name="hyphen" unicode="-" horiz-adv-x="802" 
d="M696 514h-587v154h587v-154z" />
    <glyph glyph-name="period" unicode="." horiz-adv-x="493" 
d="M102 117q0 61 41.5 101t102.5 40t102 -39.5t41 -101.5q0 -60 -41 -101t-102 -41q-59 0 -101.5 40.5t-42.5 101.5z" />
    <glyph glyph-name="slash" unicode="/" horiz-adv-x="727" 
d="M35 -238l471 1678h184l-471 -1678h-184z" />
    <glyph glyph-name="zero" unicode="0" horiz-adv-x="1253" 
d="M629 -23q-117 0 -205.5 35t-147 97t-95 156.5t-51.5 205t-15 250.5q0 743 514 743q116 0 204 -36t146 -99t94.5 -157.5t52 -204.5t15.5 -246q0 -167 -27.5 -298.5t-86 -233.5t-159.5 -157t-239 -55zM629 170q162 0 228.5 137t66.5 412q-1 109 -9.5 191.5t-29 152.5
t-54 114t-84.5 68.5t-120 24.5q-70 0 -121.5 -25t-84.5 -69.5t-53 -114.5t-28 -151t-8 -189q0 -113 7.5 -195t27 -152t52.5 -113t85.5 -67t124.5 -24z" />
    <glyph glyph-name="one" unicode="1" horiz-adv-x="806" 
d="M416 0v1198l-299 -188l-86 157l424 273h170v-1440h-209z" />
    <glyph glyph-name="two" unicode="2" horiz-adv-x="1095" 
d="M96 0v154q93 90 143 139t124.5 124t114.5 120t92 105.5t78.5 103t53.5 91.5t37.5 91.5t10.5 83.5q0 112 -75 185t-204 73q-175 0 -324 -137l-59 165q183 166 418 166q113 0 203.5 -35.5t146.5 -96t85.5 -136.5t29.5 -160q0 -65 -18.5 -131t-58.5 -135t-87 -132
t-121.5 -142.5t-142.5 -146.5t-168 -161h618v-188h-897z" />
    <glyph glyph-name="three" unicode="3" horiz-adv-x="1085" 
d="M184 1174l-71 155q67 62 164 98.5t210 36.5q197 0 322 -102t125 -268q0 -108 -63.5 -196t-180.5 -140q134 -36 212.5 -125.5t78.5 -216.5q0 -183 -143.5 -311t-368.5 -128q-114 0 -217 34.5t-180 99.5l71 174q142 -115 320 -115q134 0 217.5 70t83.5 176
q0 104 -79.5 167.5t-223.5 63.5h-164v180h158q119 0 189.5 64t70.5 158q0 97 -71 159t-195 62q-80 0 -151.5 -25.5t-113.5 -70.5z" />
    <glyph glyph-name="four" unicode="4" horiz-adv-x="1265" 
d="M766 -23v349h-686v151l713 963h186v-930h211v-184h-211v-349h-213zM301 510h465v633z" />
    <glyph glyph-name="five" unicode="5" horiz-adv-x="1091" 
d="M481 -23q-113 0 -222 35.5t-189 85.5l47 185q199 -113 360 -113q133 0 218 75.5t85 203.5q0 121 -82 199.5t-258 78.5q-110 0 -252 -53l-24 20l106 746h676v-185h-512l-57 -372q62 10 119 10q232 0 366.5 -121.5t134.5 -318.5q0 -138 -69 -247.5t-186.5 -169
t-260.5 -59.5z" />
    <glyph glyph-name="six" unicode="6" 
d="M664 1440h237l-373 -533q40 6 80 6q216 0 354 -129.5t138 -334.5q0 -138 -67 -246.5t-183 -168t-260 -59.5q-215 0 -353.5 129t-138.5 340q0 112 45.5 222t153.5 262zM315 453q0 -133 78.5 -211t202.5 -78q123 0 204 79t81 208q0 124 -78.5 200t-206.5 76
q-147 0 -238 -94q-43 -87 -43 -180z" />
    <glyph glyph-name="seven" unicode="7" horiz-adv-x="1052" 
d="M1001 1311l-598 -1311h-223l592 1253h-711v187h940v-129z" />
    <glyph glyph-name="eight" unicode="8" horiz-adv-x="1177" 
d="M104 406q0 140 70 231.5t186 136.5q-196 92 -196 307q0 93 36.5 167t98 120t137.5 70t160 24q65 0 125.5 -14t115 -43.5t95 -72t64.5 -104.5t24 -136q0 -114 -56 -194t-151 -124q117 -43 188.5 -133.5t71.5 -230.5q0 -105 -41.5 -189.5t-111.5 -137t-156.5 -80.5
t-181.5 -28q-92 0 -175.5 26.5t-152 77.5t-109.5 135.5t-41 191.5zM371 1079q0 -102 67.5 -161.5t153.5 -59.5q85 0 152 59.5t67 157.5q0 99 -64 157t-155 58q-90 0 -155.5 -54.5t-65.5 -156.5zM326 418q0 -84 39.5 -143.5t97.5 -86t127 -26.5q106 0 183 66t77 190
q0 122 -78.5 190t-183.5 68q-48 0 -92.5 -14.5t-83.5 -44t-62.5 -81t-23.5 -118.5z" />
    <glyph glyph-name="nine" unicode="9" 
d="M506 0h-240l373 532q-37 -6 -76 -6q-217 0 -356 130t-139 335q0 208 145.5 339.5t364.5 131.5q215 0 354 -128t139 -339q0 -113 -46.5 -223.5t-154.5 -259.5zM287 993q0 -124 80 -202t208 -78q142 0 238 96q41 93 41 178q0 133 -77.5 210t-201.5 77q-126 0 -207 -78
t-81 -203z" />
    <glyph glyph-name="colon" unicode=":" horiz-adv-x="546" 
d="M131 963q0 61 41 101t100 40q61 0 102.5 -40t41.5 -101t-41 -102.5t-103 -41.5q-58 0 -99.5 41.5t-41.5 102.5zM131 117q0 61 41 101t100 40q61 0 102.5 -39.5t41.5 -101.5q0 -60 -41.5 -101t-102.5 -41q-58 0 -99.5 40.5t-41.5 101.5z" />
    <glyph glyph-name="semicolon" unicode=";" horiz-adv-x="557" 
d="M154 961q0 62 41 101.5t102 39.5t102 -39.5t41 -101.5q0 -60 -41.5 -101t-101.5 -41q-59 0 -101 40.5t-42 101.5zM113 -238l67 519h207l-119 -519h-155z" />
    <glyph glyph-name="less" unicode="&#x3c;" horiz-adv-x="1083" 
d="M944 1241v-215l-616 -317l616 -322v-221l-821 469v145z" />
    <glyph glyph-name="equal" unicode="=" 
d="M1049 881h-928v186h928v-186zM1049 346h-928v189h928v-189z" />
    <glyph glyph-name="greater" unicode="&#x3e;" horiz-adv-x="1083" 
d="M139 1026v215l822 -461v-145l-822 -469v221l617 322z" />
    <glyph glyph-name="question" unicode="?" horiz-adv-x="985" 
d="M510 469l-178 35q10 66 36 122t59.5 94.5t72 72.5t74.5 63t65.5 58.5t47.5 67t18 81.5q0 94 -80.5 151.5t-196.5 57.5q-167 0 -317 -135l-60 159q181 168 414 168q89 0 165 -22t129 -60t90.5 -87.5t55 -105t17.5 -112.5q0 -59 -20.5 -109.5t-54 -88t-74.5 -72.5
t-83.5 -69.5t-79.5 -72t-64.5 -88t-35.5 -108.5zM287 117q0 61 41 101t102 40t102 -39.5t41 -101.5q0 -60 -41.5 -101t-101.5 -41q-59 0 -101 40.5t-42 101.5z" />
    <glyph glyph-name="at" unicode="@" horiz-adv-x="1736" 
d="M459 459q0 205 117.5 329.5t283.5 124.5q146 0 209 -135l16 117h175l-74 -545q-12 -112 63 -112q57 0 111 59.5t87.5 158.5t33.5 206q0 106 -35 198.5t-101.5 165.5t-175 115.5t-245.5 42.5q-159 0 -288 -58.5t-212 -160t-127.5 -235.5t-44.5 -288q0 -284 147 -431.5
t420 -147.5q169 0 363 57l35 -133q-216 -72 -410 -72q-213 0 -372.5 80.5t-251 243t-91.5 389.5q0 183 59 345.5t165.5 284.5t267 193.5t352.5 71.5q135 0 250.5 -36t198 -97.5t140.5 -143.5t86.5 -175.5t28.5 -192.5q0 -71 -14 -146.5t-47 -154.5t-81 -140.5t-123 -101
t-165 -39.5q-186 0 -200 164q-109 -135 -265 -135q-125 0 -205.5 85t-80.5 249zM643 487q0 -106 44 -154t108 -48q75 0 140 65.5t99 177.5l2 15q-49 215 -180 215q-91 0 -152 -66t-61 -205z" />
    <glyph glyph-name="A" unicode="A" horiz-adv-x="1314" 
d="M12 0l539 1440h219l530 -1440h-229l-139 397h-559l-137 -397h-224zM436 580h430l-217 612z" />
    <glyph glyph-name="B" unicode="B" horiz-adv-x="1224" 
d="M178 0v1440h389q84 0 156 -13t134 -42.5t105.5 -73.5t68 -110t24.5 -148q0 -216 -187 -310q129 -42 201 -131t72 -213q0 -182 -141.5 -290.5t-366.5 -108.5h-455zM567 1260h-178v-453h178q131 0 201 64.5t70 175.5q0 213 -271 213zM614 651h-225v-471h250q137 0 211 69
t74 165q0 104 -82 170.5t-228 66.5z" />
    <glyph glyph-name="C" unicode="C" horiz-adv-x="1378" 
d="M1198 340l129 -143q-97 -106 -228.5 -163t-287.5 -57q-319 0 -519 206.5t-200 539.5q0 210 93 379.5t258.5 265.5t371.5 96q319 0 512 -202l-129 -164q-70 84 -171 127t-216 43q-99 0 -188.5 -36.5t-159.5 -103.5t-111 -172t-41 -233q0 -131 40.5 -237.5t110.5 -174
t160.5 -103.5t192.5 -36q109 0 211 43.5t172 124.5z" />
    <glyph glyph-name="D" unicode="D" horiz-adv-x="1415" 
d="M178 0v1440h412q211 0 376 -86.5t260 -251.5t95 -383t-95.5 -383t-260.5 -250.5t-375 -85.5h-412zM594 1253h-205v-1067h203q227 0 368.5 140t141.5 385q0 247 -143.5 394.5t-364.5 147.5z" />
    <glyph glyph-name="E" unicode="E" horiz-adv-x="1114" 
d="M178 0v1440h840v-187h-629v-440h537v-182h-537v-445h629v-186h-840z" />
    <glyph glyph-name="F" unicode="F" horiz-adv-x="1077" 
d="M178 0v1440h836v-187h-625v-487h553v-186h-553v-580h-211z" />
    <glyph glyph-name="G" unicode="G" horiz-adv-x="1560" 
d="M854 606v187h639v-95q-1 -153 -51.5 -286t-139 -229t-215.5 -151t-276 -55q-207 0 -371 92.5t-257 262.5t-93 389q0 211 94 381t259.5 266t369.5 96q337 0 551 -221l-154 -143q-164 168 -397 168q-103 0 -194 -37t-159.5 -104.5t-108.5 -172t-40 -231.5q0 -130 40 -235.5
t109 -174t159.5 -105t193.5 -36.5q183 0 310.5 114t150.5 320h-420z" />
    <glyph glyph-name="H" unicode="H" horiz-adv-x="1607" 
d="M178 0v1440h211v-625h830v625h211v-1440h-211v623h-830v-623h-211z" />
    <glyph glyph-name="I" unicode="I" horiz-adv-x="567" 
d="M178 0v1440h211v-1440h-211z" />
    <glyph glyph-name="J" unicode="J" horiz-adv-x="1007" 
d="M383 -23q-212 0 -365 105l56 182q136 -94 303 -94q119 0 186.5 67t67.5 191v1012h213v-1006q0 -107 -37 -194.5t-100 -144.5t-146.5 -87.5t-177.5 -30.5z" />
    <glyph glyph-name="K" unicode="K" horiz-adv-x="1208" 
d="M178 0v1440h211v-684l565 684h242l-588 -705l604 -735h-268l-555 682v-682h-211z" />
    <glyph glyph-name="L" unicode="L" horiz-adv-x="1015" 
d="M178 0v1440h211v-1252h594v-188h-805z" />
    <glyph glyph-name="M" unicode="M" horiz-adv-x="1781" 
d="M178 0v1440h203v-2l516 -912l506 914h201v-1440h-209v1055l-424 -770h-166l-420 747v-1032h-207z" />
    <glyph glyph-name="N" unicode="N" horiz-adv-x="1595" 
d="M178 0v1440h205l696 -932l133 -191l-2 250v873h207v-1440h-205l-723 958l-106 160l2 -270v-848h-207z" />
    <glyph glyph-name="O" unicode="O" horiz-adv-x="1628" 
d="M817 -23q-158 0 -292.5 54t-230 150.5t-149 236t-53.5 305.5q0 211 94 380.5t260 265t371 95.5q156 0 290 -55t229 -152t148.5 -235t53.5 -299q0 -158 -55.5 -297t-151.5 -237t-229.5 -155t-284.5 -57zM817 172q97 0 187 37.5t160 105.5t111.5 173t41.5 231
q-1 128 -41.5 233.5t-110 174t-160 106t-192.5 37.5q-101 0 -191.5 -37.5t-160 -106t-110 -173.5t-40.5 -230q0 -130 39.5 -235.5t109 -174t161 -105t196.5 -36.5z" />
    <glyph glyph-name="P" unicode="P" horiz-adv-x="1150" 
d="M178 0v1440h381q112 0 207 -28.5t169 -84t115.5 -146.5t41.5 -208q0 -114 -43.5 -204.5t-118.5 -147t-169.5 -86t-201.5 -29.5h-170v-506h-211zM535 1257h-146v-567h148q161 0 248 76t87 197q0 294 -337 294z" />
    <glyph glyph-name="Q" unicode="Q" horiz-adv-x="1630" 
d="M817 -23q-158 0 -292.5 54t-230 150.5t-149 236t-53.5 305.5q0 211 94 380.5t260 265t371 95.5q156 0 290 -55t229 -152t148.5 -235t53.5 -299q0 -175 -66 -323t-184 -250l180 -256h-188l-117 167q-156 -84 -346 -84zM817 172q122 0 230 57l-240 349h182l180 -256
q148 151 148 397q-1 128 -41.5 233t-110 173t-160 105.5t-192.5 39.5q-101 -2 -191.5 -40t-160 -106t-110 -172t-40.5 -229q0 -130 39.5 -235.5t109 -174t161 -105t196.5 -36.5z" />
    <glyph glyph-name="R" unicode="R" horiz-adv-x="1220" 
d="M178 0v1440h397q87 0 162.5 -14t144 -47t117 -82t77 -124t28.5 -169q0 -160 -83.5 -265.5t-223.5 -152.5l362 -586h-241l-322 551h-21h-186v-551h-211zM549 1255h-160v-520h162q163 0 248.5 70t85.5 190q0 260 -336 260z" />
    <glyph glyph-name="S" unicode="S" horiz-adv-x="1103" 
d="M510 -23q-111 0 -230 29t-196 76l49 192q81 -48 180 -78t195 -30q144 0 223.5 63t79.5 162q0 50 -24.5 87t-65.5 61t-94.5 43.5t-112.5 38t-117.5 39t-112 52.5t-94.5 73.5t-65.5 106t-24.5 146.5q0 191 136 308.5t350 117.5q115 0 228 -29.5t173 -78.5l-65 -180
q-168 98 -334 98q-133 0 -203 -61t-70 -154q0 -56 24.5 -99t65.5 -70.5t94 -49.5t112 -41t117.5 -39.5t111.5 -50t94 -68t65.5 -98.5t24.5 -137q0 -192 -147.5 -310.5t-366.5 -118.5z" />
    <glyph glyph-name="T" unicode="T" horiz-adv-x="1204" 
d="M496 0v1251h-465v189h1143v-189h-467v-1251h-211z" />
    <glyph glyph-name="U" unicode="U" horiz-adv-x="1482" 
d="M160 575v865h211v-860q0 -203 104 -306.5t283 -103.5q343 0 354 420v850h211v-850q0 -158 -47 -279t-128.5 -192t-182 -106.5t-217.5 -35.5q-120 0 -223.5 35t-186.5 105t-130.5 187.5t-47.5 270.5z" />
    <glyph glyph-name="V" unicode="V" horiz-adv-x="1280" 
d="M526 0l-512 1440h224l409 -1190l400 1190h221l-516 -1440h-226z" />
    <glyph glyph-name="W" unicode="W" horiz-adv-x="1943" 
d="M440 0l-415 1440h217l313 -1147l348 1147h152l342 -1133l319 1133h207l-428 -1440h-195l-329 1053l-328 -1053h-203z" />
    <glyph glyph-name="X" unicode="X" horiz-adv-x="1202" 
d="M1182 1440l-477 -715l473 -725h-256l-330 547l-334 -547h-235l469 707l-469 733h241l340 -555l344 555h234z" />
    <glyph glyph-name="Y" unicode="Y" horiz-adv-x="1175" 
d="M481 0v563l-467 877h234l344 -697l350 697h225l-475 -881v-559h-211z" />
    <glyph glyph-name="Z" unicode="Z" horiz-adv-x="1110" 
d="M1034 1311l-692 -1123h692v-188h-958v125l706 1126h-706v189h958v-129z" />
    <glyph glyph-name="bracketleft" unicode="[" horiz-adv-x="673" 
d="M176 -393v1833h434v-170h-245v-1493h245v-170h-434z" />
    <glyph glyph-name="backslash" unicode="\" horiz-adv-x="727" 
d="M692 -238h-184l-471 1678h184z" />
    <glyph glyph-name="bracketright" unicode="]" horiz-adv-x="673" 
d="M498 -393h-435v170h246v1493h-246v170h435v-1833z" />
    <glyph glyph-name="asciicircum" unicode="^" horiz-adv-x="1218" 
d="M1139 754l-211 2l-312 485l-319 -487h-217l452 686h162z" />
    <glyph glyph-name="underscore" unicode="_" horiz-adv-x="1019" 
d="M926 -287h-832v148h832v-148z" />
    <glyph glyph-name="grave" unicode="`" horiz-adv-x="491" 
d="M420 1210h-174l-215 332h221z" />
    <glyph glyph-name="a" unicode="a" horiz-adv-x="1370" 
d="M86 537q0 132 41 240.5t112.5 178.5t166.5 108t204 38q256 0 400 -217v190h204v-1075h-204v211q-142 -234 -400 -234q-108 0 -202.5 37t-166.5 106.5t-113.5 177t-41.5 239.5zM301 539q0 -177 92.5 -279t237.5 -102q146 0 245.5 105.5t133.5 273.5v8q-34 166 -139 271.5
t-240 105.5q-148 0 -239 -97.5t-91 -285.5z" />
    <glyph glyph-name="b" unicode="b" horiz-adv-x="1363" 
d="M1280 532q0 -131 -41.5 -238t-113.5 -176t-166.5 -106t-202.5 -37q-260 0 -402 234v-209h-200v1440h204v-566q73 109 174.5 168.5t223.5 59.5q108 0 202 -36.5t166.5 -106t114 -179.5t41.5 -248zM733 922q-137 0 -242.5 -108.5t-136.5 -272.5v-9q35 -169 135.5 -272.5
t243.5 -103.5q145 0 238.5 102t93.5 279q0 188 -92 286.5t-240 98.5z" />
    <glyph glyph-name="c" unicode="c" horiz-adv-x="1048" 
d="M944 233l43 -159q-135 -97 -354 -97q-110 0 -208 36.5t-174.5 104t-121.5 174t-45 236.5q0 135 46 246t124 181.5t176.5 108.5t206.5 38q224 0 356 -103l-59 -170q-71 47 -134 70t-155 23q-143 0 -243.5 -103t-100.5 -282q0 -174 99 -277.5t243 -103.5q91 0 161 17
t140 60z" />
    <glyph glyph-name="d" unicode="d" horiz-adv-x="1366" 
d="M86 537q0 132 41 240.5t112.5 178.5t166.5 108t204 38q256 0 398 -215v553h204v-1440h-202v211q-142 -234 -400 -234q-108 0 -202.5 37t-166.5 106.5t-113.5 177t-41.5 239.5zM301 539q0 -177 92 -279t236 -102q147 0 247 105.5t134 273.5v8q-34 166 -138.5 271.5
t-242.5 105.5q-146 0 -237 -97.5t-91 -285.5z" />
    <glyph glyph-name="e" unicode="e" horiz-adv-x="1216" 
d="M1044 242l39 -154q-79 -53 -192.5 -83t-239.5 -30q-267 0 -416 146t-149 407q0 131 42 240t114.5 181.5t170.5 112.5t210 40q109 0 201 -35t162.5 -103t110.5 -177t40 -248q0 -42 -7 -70h-829q30 -319 375 -319q101 0 187.5 20.5t180.5 71.5zM618 928q-131 0 -214 -79.5
t-101 -232.5h619q-15 155 -93.5 233.5t-210.5 78.5z" />
    <glyph glyph-name="f" unicode="f" horiz-adv-x="741" 
d="M61 1075h166q4 196 109 292.5t295 96.5q93 0 157 -20l-26 -164q-85 18 -125 18q-101 0 -153 -51t-52 -172h287v-164h-287v-911h-205v911h-166v164z" />
    <glyph glyph-name="g" unicode="g" horiz-adv-x="1370" 
d="M86 549q0 177 71.5 304t188.5 188t264 61q257 0 400 -219v192h204v-1067q0 -137 -75 -242.5t-204 -162t-290 -56.5q-131 0 -267 37t-222 99l32 186q96 -63 223.5 -99t235.5 -36q100 0 180.5 31.5t131.5 99.5t51 162v198q-136 -217 -400 -217q-108 0 -202 34.5
t-166.5 100.5t-114 170.5t-41.5 235.5zM299 553q0 -173 92.5 -269t237.5 -96q148 0 248 95t133 258v6q-34 166 -138.5 270.5t-242.5 104.5q-148 0 -239 -92t-91 -277z" />
    <glyph glyph-name="h" unicode="h" horiz-adv-x="1292" 
d="M154 0v1440h204v-594q158 256 418 256q80 0 144.5 -22.5t117.5 -72t82 -139t29 -213.5v-655h-205v637q0 144 -56.5 213.5t-158.5 69.5q-117 0 -207 -85.5t-164 -256.5v-578h-204z" />
    <glyph glyph-name="i" unicode="i" horiz-adv-x="514" 
d="M121 1403q0 57 40 95t97 38t97 -38t40 -95q0 -56 -40.5 -95.5t-96.5 -39.5q-55 0 -96 39t-41 96zM154 0v1075h204v-1075h-204z" />
    <glyph glyph-name="j" unicode="j" horiz-adv-x="530" 
d="M135 1403q0 57 40 95t97 38t97.5 -38t40.5 -95q0 -56 -41 -95.5t-97 -39.5q-55 0 -96 39t-41 96zM170 -27v1104h205v-1108q0 -203 -108 -311.5t-302 -108.5q-162 0 -282 66l43 170q111 -57 237 -57q102 0 154.5 59t52.5 186z" />
    <glyph glyph-name="k" unicode="k" horiz-adv-x="1054" 
d="M154 0v1440h204v-865l430 500h244l-471 -520l506 -555h-262l-447 494v-494h-204z" />
    <glyph glyph-name="l" unicode="l" horiz-adv-x="514" 
d="M154 0v1440h204v-1440h-204z" />
    <glyph glyph-name="m" unicode="m" horiz-adv-x="2050" 
d="M154 0v1075h204v-227q154 252 412 252q283 0 346 -281q78 143 182 212t240 69q78 0 141.5 -23t116 -72.5t82 -139.5t29.5 -214v-651h-205v633q0 145 -56.5 216t-158.5 71q-114 0 -200.5 -84t-153.5 -256v-580h-205v633q0 145 -55.5 216t-155.5 71q-117 0 -203.5 -84.5
t-155.5 -257.5v-578h-204z" />
    <glyph glyph-name="n" unicode="n" horiz-adv-x="1292" 
d="M154 0v1075h204v-229q157 254 418 254q80 0 144.5 -22t117.5 -71.5t82 -138.5t29 -213v-655h-205v635q0 145 -56.5 215t-158.5 70q-124 0 -213.5 -82.5t-157.5 -255.5v-582h-204z" />
    <glyph glyph-name="o" unicode="o" horiz-adv-x="1316" 
d="M84 535q0 135 48 245t129 179t182 106t210 37q86 0 169 -21.5t158 -67.5t131.5 -110.5t90 -157t33.5 -200.5q0 -135 -48.5 -245t-131 -179.5t-187 -106.5t-219.5 -37q-111 0 -211.5 35.5t-180 103t-126.5 176t-47 243.5zM299 543q0 -189 100.5 -288t255.5 -99
q157 0 260 99t103 280q0 94 -30 169.5t-80.5 122.5t-114.5 72t-136 25q-69 0 -131.5 -23.5t-114 -68.5t-82 -119.5t-30.5 -169.5z" />
    <glyph glyph-name="p" unicode="p" horiz-adv-x="1363" 
d="M354 1075v-194q142 221 400 221q109 0 204 -38t167 -108t113.5 -179t41.5 -242q0 -132 -42 -239.5t-114.5 -176t-167 -105.5t-202.5 -37q-255 0 -396 226v-635h-204v1507h200zM735 922q-138 0 -244 -108.5t-137 -276.5q36 -171 136.5 -276t242.5 -105q146 0 238 101.5
t92 279.5q0 188 -90.5 286.5t-237.5 98.5z" />
    <glyph glyph-name="q" unicode="q" horiz-adv-x="1366" 
d="M86 537q0 132 41 240.5t112.5 178.5t166.5 108t204 38q257 0 400 -219v192h202v-1507h-204v641q-140 -232 -398 -232q-108 0 -202.5 37t-166.5 106.5t-113.5 177t-41.5 239.5zM301 539q0 -177 92 -279t236 -102q147 0 247 105.5t134 273.5v8q-34 166 -138.5 271.5
t-242.5 105.5q-146 0 -237 -97.5t-91 -285.5z" />
    <glyph glyph-name="r" unicode="r" horiz-adv-x="841" 
d="M154 0v1075h204v-225q152 246 361 246q58 0 108 -17l-34 -178q-49 17 -91 17q-106 0 -195.5 -90t-148.5 -244v-584h-204z" />
    <glyph glyph-name="s" unicode="s" horiz-adv-x="974" 
d="M455 -23q-102 0 -206 25.5t-173 60.5l45 177q156 -93 338 -93q237 0 237 148q0 44 -26 73.5t-68 43t-96.5 26.5t-110.5 22.5t-110.5 32t-96.5 54t-68 89t-26 136.5q0 150 111.5 240t308.5 90q91 0 185.5 -23t164.5 -63l-43 -174q-150 88 -301 88q-96 0 -157.5 -39
t-61.5 -107q0 -48 25.5 -81.5t67.5 -49.5t96 -30t110 -23.5t110 -30.5t96 -49.5t67.5 -82t25.5 -126.5q0 -151 -127 -242.5t-317 -91.5z" />
    <glyph glyph-name="t" unicode="t" horiz-adv-x="888" 
d="M223 360v551h-192v164h192v311h205v-311h397v-164h-397v-508q0 -245 193 -245q116 0 219 53l41 -162q-147 -72 -308 -72q-160 0 -255 95t-95 288z" />
    <glyph glyph-name="u" unicode="u" horiz-adv-x="1275" 
d="M346 1075v-633q0 -143 56 -212.5t157 -69.5q119 0 207.5 83t151.5 253v579h204v-1075h-204v221q-147 -241 -408 -241q-79 0 -142.5 22t-116 71t-81.5 138t-29 213v651h205z" />
    <glyph glyph-name="v" unicode="v" horiz-adv-x="1120" 
d="M457 0l-439 1075h238l307 -827l311 827h230l-449 -1075h-198z" />
    <glyph glyph-name="w" unicode="w" horiz-adv-x="1777" 
d="M1767 1075l-421 -1075l-199 2l-254 809l-285 -811l-202 2l-381 1073h231l258 -821l281 821h209l256 -823l284 823h223z" />
    <glyph glyph-name="x" unicode="x" horiz-adv-x="1091" 
d="M1069 1075l-407 -526l409 -549h-266l-266 393l-277 -393h-242l404 535l-401 540h256l270 -391l270 391h250z" />
    <glyph glyph-name="y" unicode="y" horiz-adv-x="1122" 
d="M459 -12l-443 1087h238l313 -842l305 842h230l-606 -1503h-220z" />
    <glyph glyph-name="z" unicode="z" horiz-adv-x="1007" 
d="M928 938l-594 -770h594v-168h-848v131l596 776h-596v168h848v-137z" />
    <glyph glyph-name="braceleft" unicode="{" horiz-adv-x="747" 
d="M684 1444v-166q-14 2 -74 2q-90 0 -120.5 -39.5t-30.5 -118.5v-315q0 -91 -49.5 -165.5t-143.5 -121.5q95 -41 144 -116t49 -173v-303q0 -83 33 -120t126 -37q52 0 66 2v-168q-72 -11 -111 -11q-146 0 -224.5 88.5t-78.5 233.5v287q0 210 -198 239v156q198 22 198 240
v305q0 140 82.5 225.5t229.5 85.5q37 0 102 -10z" />
    <glyph glyph-name="bar" unicode="|" horiz-adv-x="548" 
d="M369 -270h-189v1710h189v-1710z" />
    <glyph glyph-name="braceright" unicode="}" horiz-adv-x="747" 
d="M66 1444q65 10 102 10q147 0 228 -85.5t81 -225.5v-305q0 -218 199 -240v-156q-199 -29 -199 -239v-287q0 -145 -78 -233.5t-225 -88.5q-40 0 -108 11v168q14 -2 63 -2q94 0 128 37t34 120v303q0 99 47.5 174t142.5 115q-93 46 -141.5 121t-48.5 166v315
q0 79 -31.5 118.5t-124.5 39.5q-55 0 -69 -2v166z" />
    <glyph glyph-name="asciitilde" unicode="~" horiz-adv-x="1179" 
d="M784 674q115 0 168 112l115 -61q-28 -109 -104.5 -165t-178.5 -56q-51 0 -107.5 17t-98 38t-96 38t-103.5 17q-86 0 -150 -104l-112 59q29 102 98.5 158.5t163.5 56.5q66 0 136.5 -27.5t139 -55t129.5 -27.5z" />
    <glyph glyph-name="uniF8FF" unicode="&#xf8ff;" horiz-adv-x="1638" 
d="M205 0v1229h1229v-1229h-1229zM528 696h41v287h144v41h-328v-41h143v-287zM897 696h41v123h160q47 0 76.5 29t29.5 74t-29.5 73.5t-76.5 28.5h-201v-328zM938 860v123h160q29 0 47 -16.5t18 -44.5q0 -27 -18 -44.5t-47 -17.5h-160zM1253 143l29 29l-86 86q39 45 39 111
q0 73 -50.5 123.5t-123.5 50.5t-123.5 -50.5t-50.5 -123.5t50.5 -123.5t123.5 -50.5q63 0 106 34zM528 205h41v287h144v40h-328v-40h143v-287zM1061 236q-57 0 -95 38t-38 95t38 95t95 38t95 -38t38 -95t-38 -95t-95 -38z" />
    <glyph glyph-name="uni00690307" horiz-adv-x="514" 
d="M121 1403q0 57 40 95t97 38t97 -38t40 -95q0 -56 -40.5 -95.5t-96.5 -39.5q-55 0 -96 39t-41 96zM154 0v1075h204v-1075h-204z" />
    <glyph glyph-name="fraction" horiz-adv-x="370" 
d="M-188 0h-148l899 1440h148z" />
    <glyph glyph-name="uni200A" horiz-adv-x="143" 
 />
    <glyph glyph-name="colon.cap" horiz-adv-x="565" 
d="M139 1153q0 61 41.5 101t102.5 40t102 -40t41 -101t-41 -102t-102 -41q-60 0 -102 40.5t-42 102.5zM139 307q0 61 41.5 101.5t102.5 40.5t102 -40t41 -102q0 -60 -41 -100.5t-102 -40.5q-60 0 -102 40t-42 101z" />
    <glyph glyph-name="hyphen.cap" horiz-adv-x="808" 
d="M698 641h-587v156h587v-156z" />
    <glyph glyph-name="zero.numerator" horiz-adv-x="817" 
d="M410 616q-170 0 -250 109.5t-80 304.5q0 197 81.5 313.5t248.5 116.5q169 0 248 -115.5t79 -314.5q0 -190 -81.5 -302t-245.5 -112zM410 754q85 0 121 70t36 208q0 141 -34.5 213.5t-124.5 71.5q-88 0 -122 -72.5t-34 -212.5q0 -70 6.5 -118t24 -85.5t48.5 -55.5t79 -19z
" />
    <glyph glyph-name="one.numerator" horiz-adv-x="557" 
d="M266 631v637l-170 -105l-67 113l262 164h139v-809h-164z" />
    <glyph glyph-name="two.numerator" horiz-adv-x="692" 
d="M70 631v90q76 72 112 107t93.5 95.5t84.5 97.5t48.5 81.5t21.5 79.5q-3 57 -40.5 94t-106.5 37q-99 0 -179 -68l-34 127q103 86 249 86q135 0 209 -71t74 -173q0 -97 -74 -197.5t-227 -244.5h313v-141h-544z" />
    <glyph glyph-name="three.numerator" horiz-adv-x="692" 
d="M121 1264l-41 116q110 78 233 78q121 0 199 -55t78 -154q0 -61 -34.5 -110t-98.5 -80q75 -24 117 -75.5t42 -123.5q0 -109 -90 -176.5t-227 -67.5q-145 0 -242 72l43 131q77 -61 189 -61q68 0 111.5 31.5t43.5 82.5t-41 80t-114 29h-103v123h97q61 0 97 30t36 78
q0 46 -38 75.5t-102 29.5q-96 0 -155 -53z" />
    <glyph glyph-name="four.numerator" horiz-adv-x="800" 
d="M442 631v172h-383v115l398 522h153v-512h127v-125h-127v-172h-168zM207 928h235v313z" />
    <glyph glyph-name="five.numerator" horiz-adv-x="710" 
d="M313 616q-141 0 -256 66l33 133q109 -59 213 -59q74 0 119 35t45 94t-46 95t-138 36q-78 0 -160 -27l-17 17l62 434h442v-137h-317l-27 -170q18 4 62 4q147 0 229 -69.5t82 -182.5q0 -120 -92 -194.5t-234 -74.5z" />
    <glyph glyph-name="six.numerator" horiz-adv-x="751" 
d="M391 1440h180l-202 -293h24q81 0 147.5 -26.5t111 -88t44.5 -149.5q0 -64 -27 -116.5t-72 -85t-101.5 -50t-118.5 -17.5q-127 0 -216 70.5t-89 198.5q0 66 26.5 124.5t77.5 129.5zM240 885q0 -63 41 -100t100 -37q58 0 101.5 37t43.5 100q0 65 -43.5 101t-101.5 36
q-70 0 -119 -41q-22 -46 -22 -96z" />
    <glyph glyph-name="seven.numerator" horiz-adv-x="677" 
d="M629 1356l-332 -725h-176l323 669h-391v140h576v-84z" />
    <glyph glyph-name="eight.numerator" horiz-adv-x="776" 
d="M76 858q0 146 153 205q-120 53 -120 172q0 108 83 164.5t199 56.5q74 0 134.5 -21t102.5 -72t42 -124q0 -122 -121 -176q151 -54 151 -205q0 -49 -17.5 -90.5t-47.5 -69.5t-70.5 -47t-85 -28t-92.5 -9q-83 0 -150.5 23.5t-114 80.5t-46.5 140zM274 1231q0 -51 35 -79
t80 -28q46 0 81.5 29.5t35.5 77.5q0 50 -34 78t-83 28q-47 0 -81 -27.5t-34 -78.5zM254 870q0 -61 40 -94t95 -33t95 33t40 92q0 60 -39.5 93.5t-93.5 33.5q-55 0 -96 -32t-41 -93z" />
    <glyph glyph-name="nine.numerator" horiz-adv-x="755" 
d="M362 631h-182l203 295q-8 -2 -25 -2q-126 0 -214.5 67.5t-88.5 194.5q0 86 47 149t118 92t155 29q129 0 219 -70t90 -198q0 -46 -17 -93.5t-36 -78.5t-56 -84zM227 1186q0 -63 44 -101t100 -38q69 0 121 43q22 46 22 94q0 64 -41.5 100.5t-99.5 36.5q-60 0 -103 -35.5
t-43 -99.5z" />
    <glyph glyph-name="zero.denominator" horiz-adv-x="821" 
d="M410 -14q-169 0 -248.5 108.5t-79.5 304.5q0 195 81.5 311.5t248.5 116.5q169 0 248 -114t79 -314q0 -190 -82 -301.5t-247 -111.5zM410 123q86 0 121.5 70t35.5 208q0 142 -34 214t-123 71q-47 -1 -78.5 -20.5t-48.5 -59t-24 -88.5t-7 -117q0 -141 33.5 -209t124.5 -69z
" />
    <glyph glyph-name="one.denominator" horiz-adv-x="557" 
d="M264 0v637l-170 -102l-65 108l258 166h143v-809h-166z" />
    <glyph glyph-name="two.denominator" horiz-adv-x="690" 
d="M68 0v88q67 64 94 90.5t81 81t77.5 84.5t54 72t42 74.5t11.5 62.5q-3 56 -40.5 92.5t-106.5 36.5q-100 0 -177 -68l-34 127q99 86 249 86q133 0 207 -70.5t74 -172.5q0 -52 -21 -105t-65 -110.5t-92.5 -108.5t-122.5 -121h313v-139h-544z" />
    <glyph glyph-name="three.denominator" horiz-adv-x="692" 
d="M121 633l-39 117q99 77 233 77q118 0 196.5 -55t78.5 -154q0 -61 -35 -110t-98 -78q74 -24 116.5 -76t42.5 -123q0 -112 -89.5 -178.5t-227.5 -66.5q-145 0 -242 69l41 133q83 -61 191 -61q68 0 111.5 31t43.5 82q0 53 -41 82.5t-114 29.5h-101v123h95q61 0 97 29.5
t36 77.5q0 46 -38 75t-102 29q-92 0 -155 -53z" />
    <glyph glyph-name="four.denominator" horiz-adv-x="798" 
d="M440 0v172h-383v113l398 524h151v-512h129v-125h-129v-172h-166zM205 297h235v313z" />
    <glyph glyph-name="five.denominator" horiz-adv-x="712" 
d="M313 -14q-143 0 -256 65l33 131q118 -59 213 -59q73 0 117.5 35.5t44.5 97.5q0 59 -45 94t-137 35q-57 0 -160 -27l-17 19l62 432h442v-137h-319l-25 -170q36 4 62 4q147 0 229 -69.5t82 -182.5q0 -120 -91.5 -194t-234.5 -74z" />
    <glyph glyph-name="six.denominator" horiz-adv-x="753" 
d="M393 809h182l-204 -295q8 2 24 2q126 0 214.5 -67t88.5 -195q0 -86 -46 -149t-116.5 -92t-154.5 -29q-129 0 -218 70t-89 198q0 66 26 124t78 132zM242 256q0 -64 40.5 -100.5t98.5 -36.5q60 0 103 35.5t42 99.5q1 63 -42.5 100t-100.5 37q-72 0 -121 -41
q-20 -48 -20 -94z" />
    <glyph glyph-name="seven.denominator" horiz-adv-x="679" 
d="M631 725l-332 -725h-176l321 670h-391v139h578v-84z" />
    <glyph glyph-name="eight.denominator" horiz-adv-x="776" 
d="M76 227q0 146 153 205q-120 53 -120 172q0 109 82.5 165t199.5 56q73 0 134 -21t103 -71.5t42 -122.5q0 -124 -121 -178q151 -58 151 -205q0 -62 -26.5 -110t-71.5 -76.5t-99.5 -42.5t-115.5 -14q-60 0 -114 14t-99 42t-71.5 76t-26.5 111zM274 600q0 -51 35 -79.5
t82 -28.5q45 0 80 29.5t35 80.5q0 47 -34.5 75t-82.5 28q-47 0 -81 -27t-34 -78zM256 240q0 -61 39 -93t94 -32q54 0 94.5 32t40.5 91q0 58 -40 92.5t-95 34.5q-53 0 -93 -32t-40 -93z" />
    <glyph glyph-name="nine.denominator" horiz-adv-x="755" 
d="M362 0h-182l203 293h-25q-126 0 -214.5 68t-88.5 196q0 126 94.5 197t225.5 71q129 0 218 -70t89 -198q0 -65 -26.5 -122.5t-80.5 -133.5zM227 555q0 -64 43.5 -100.5t100.5 -36.5q74 0 121 41q22 46 22 96q0 64 -41.5 99.5t-99.5 35.5q-60 0 -103 -35.5t-43 -99.5z" />
    </font>
</defs>
</svg>
