<svg width="119" height="13" viewBox="0 0 119 13" fill="none" xmlns="http://www.w3.org/2000/svg">
<g clip-path="url(#clip0_34_521)">
<path d="M1.47693 7.13267V12.074H0V0.214844H7.90416V1.53969H1.47693V5.86512H7.16941V7.13267H1.47693Z" fill="white"/>
<path d="M10.1152 12.074V0.214844H11.5922V12.074H10.1152Z" fill="white"/>
<path d="M13.418 0.214844H23.1701V1.53969H19.0362V12.074H17.5593V1.53969H13.4254V0.214844H13.418Z" fill="white"/>
<path d="M28.9601 5.72905C28.1214 4.42569 27.2976 2.84305 26.689 1.56117H26.2215C26.3476 3.22259 26.407 5.5715 26.407 7.34751V12.0668H24.9746V0.214844H27.1863L30.771 5.78634C31.7952 7.42628 32.7749 9.22377 33.3909 10.4913H33.7991C33.6952 8.90868 33.6135 6.69583 33.6135 4.94131V0.214844H35.0311V12.074H33.042L28.9675 5.72905H28.9601Z" fill="white"/>
<path d="M37.9688 0.214844H46.244V1.49672H39.4679V5.39247H45.5315V6.66002H39.4679V10.7921H46.244V12.074H37.9688V0.214844Z" fill="white"/>
<path d="M47.9668 8.29996L49.3844 8.00635C49.7332 10.0044 50.9207 11.0857 53.2733 11.0857C55.4257 11.0857 56.346 10.255 56.346 9.00893C56.346 7.76286 55.485 7.13267 52.9691 6.69583C49.6293 6.12292 48.5457 4.91982 48.5457 3.20111C48.5457 1.26755 50.0004 0 52.9097 0C55.819 0 57.0288 1.38213 57.5186 3.5162L56.0417 3.80982C55.6335 2.0911 54.8913 1.2031 52.8429 1.2031C50.9207 1.2031 50.0004 1.93355 50.0004 3.12233C50.0004 4.21085 50.6535 4.9413 53.4589 5.47124C56.9174 6.10144 57.8229 7.26873 57.8229 8.90867C57.8229 10.921 56.4944 12.2888 53.2362 12.2888C49.8742 12.2673 48.323 10.6918 47.9742 8.29996H47.9668Z" fill="white"/>
<path d="M59.2324 8.29996L60.65 8.00635C60.9988 10.0044 62.1863 11.0857 64.539 11.0857C66.6913 11.0857 67.6116 10.255 67.6116 9.00893C67.6116 7.76286 66.7507 7.13267 64.2347 6.69583C60.8949 6.12292 59.8113 4.91982 59.8113 3.20111C59.8113 1.26755 61.266 0 64.1753 0C67.0846 0 68.2944 1.38213 68.7842 3.5162L67.3073 3.80982C66.8991 2.0911 66.1569 1.2031 64.1085 1.2031C62.1863 1.2031 61.266 1.93355 61.266 3.12233C61.266 4.21085 61.9191 4.9413 64.7245 5.47124C68.183 6.10144 69.0885 7.26873 69.0885 8.90867C69.0885 10.921 67.76 12.2888 64.5019 12.2888C61.1472 12.2673 59.5887 10.6918 59.2398 8.29996H59.2324Z" fill="white"/>
<path d="M74.6328 6.12292C74.6328 2.39188 76.7851 0 80.4515 0C83.5463 0 85.4463 1.69723 85.899 4.40421L84.5037 4.6835C84.0362 2.51362 82.7448 1.28187 80.4515 1.28187C77.505 1.28187 76.1097 3.21543 76.1097 6.12292C76.1097 9.03041 77.505 11.0213 80.4069 11.0213C82.8635 11.0213 84.1104 9.75371 84.5631 7.50505L85.9732 7.78435C85.5205 10.5343 83.6205 12.2888 80.4069 12.2888C76.6812 12.2888 74.6328 9.86113 74.6328 6.12292Z" fill="white"/>
<path d="M89.6468 10.7706H95.562V12.074H88.1699V0.214844H89.6468V10.7635V10.7706Z" fill="white"/>
<path d="M105.084 7.56951V0.214844H106.576V7.6268C106.576 10.6704 104.899 12.2888 101.744 12.2888C98.5902 12.2888 96.7051 10.7062 96.7051 7.6268V0.214844H98.182V7.44777C98.182 9.52455 99.0207 11.0069 101.744 11.0069C104.327 11.0069 105.084 9.62481 105.084 7.56951Z" fill="white"/>
<path d="M109.553 0.214844H114.384C117.086 0.214844 118.333 1.24607 118.333 3.23692C118.333 4.75511 117.435 5.65028 115.958 5.9797V6.15873C117.962 6.37357 118.971 7.22577 118.971 8.86571C118.971 10.742 117.761 12.0668 114.815 12.0668H109.553V0.214844ZM111.03 1.40362V5.5715H114.347C115.824 5.5715 116.885 4.9986 116.885 3.41595C116.885 2.06962 116.188 1.40362 114.466 1.40362H111.03ZM111.03 6.69583V10.9067H114.755C116.64 10.9067 117.501 10.0402 117.501 8.79409C117.501 7.46925 116.767 6.70299 114.637 6.70299H111.037L111.03 6.69583Z" fill="white"/>
</g>
<defs>
<clipPath id="clip0_34_521">
<rect width="118.978" height="12.2888" fill="white"/>
</clipPath>
</defs>
</svg>
