<?xml version="1.0" encoding="UTF-8"?>
<svg id="Layer_1" data-name="Layer 1" xmlns="http://www.w3.org/2000/svg" viewBox="0 0 966 966">
  <defs>
    <style>
      .cls-1 {
        fill: #f4f5f5;
      }
    </style>
  </defs>
  <path class="cls-1" d="M824.78,141.32c-4.26-4.26-8.52-8.34-12.84-12.36l-24.66,154.88-1.92,11.88v.18c84.84,137.06,68.04,319.72-50.82,438.53-138.66,138.68-364.26,138.68-502.92,0-32.88-32.88-57.9-70.63-75.18-111.01l.18,6.78,12.78,220.47c189.66,162.02,475.98,153.32,655.26-25.98,188.46-188.42,188.46-495.06,0-683.36l.12-.12v.12Z"/>
  <path class="cls-1" d="M156.38,623.06c-55.44-129.68-30.42-285.81,75.3-391.55,138.66-138.68,364.26-138.68,502.92,0,19.62,19.62,36.36,41.1,50.46,63.67l-40.08-171.26-13.02-55.33C546.2-42.72,301.28-18.6,141.32,141.32-32.38,315.04-46,589.21,100.7,778.6l55.62-155.6.06.06Z"/>
</svg>