<svg width="1197" height="163" viewBox="0 0 1197 163" fill="none" xmlns="http://www.w3.org/2000/svg">
<path d="M231.981 8.59109H306.119C326.323 8.59109 340.704 13.733 349.248 24.0167C354.263 30.0921 356.763 37.1008 356.763 45.0589C356.763 54.3459 353.662 61.9559 347.476 67.9047C344.264 71.0372 339.644 73.9167 333.616 76.5272C342.46 79.4066 349.089 82.6342 353.472 86.2414C361.224 92.649 365.1 101.509 365.1 112.789C365.1 122.282 361.62 130.857 354.643 138.546C344.217 150.032 327.652 155.775 304.933 155.775H231.965V8.59109H231.981ZM297.433 70.7999C307.306 70.7999 314.979 69.6292 320.469 67.2876C329.091 63.6171 333.395 57.0039 333.395 47.4479C333.395 37.8919 328.807 31.3578 319.646 28.0037C314.473 26.1368 306.799 25.2033 296.611 25.2033H254.89V70.7841H297.433V70.7999ZM305.312 138.736C319.646 138.736 329.867 135.192 335.99 128.12C339.834 123.643 341.748 118.232 341.748 111.888C341.748 101.208 336.148 93.9147 324.946 90.0385C318.998 87.9659 311.119 86.9375 301.325 86.9375H254.906V138.736H305.312Z" fill="#F4F5F5"/>
<path d="M457.101 108.28C457.655 116.634 459.965 123.405 464.031 128.626C471.783 138.372 485.453 143.261 505.039 143.261C513.804 143.261 521.794 142.185 529.008 140.049C542.947 135.904 549.924 128.5 549.924 117.804C549.924 109.783 546.981 104.072 541.111 100.67C535.163 97.3319 525.844 94.4208 513.14 91.9527L489.756 87.4437C474.473 84.5009 463.667 81.2576 457.323 77.7295C446.358 71.5909 440.869 62.3988 440.869 50.1848C440.869 36.9583 446.232 26.105 456.974 17.6249C467.701 9.14471 482.905 4.90463 502.571 4.90463C520.671 4.90463 536.033 8.62261 548.69 16.0744C561.347 23.5261 567.659 35.4237 567.659 51.7986H545.684C544.513 43.9196 541.997 37.8759 538.169 33.6675C531.033 25.9943 518.93 22.1497 501.859 22.1497C488.079 22.1497 478.159 24.6178 472.131 29.5698C466.103 34.506 463.081 40.2649 463.081 46.7991C463.081 54.0135 466.61 59.2978 473.65 62.6361C478.27 64.7719 488.728 67.4457 505.023 70.6574L529.23 75.3721C540.906 77.6345 549.908 80.7513 556.252 84.6908C567.216 91.573 572.706 101.556 572.706 114.64C572.706 130.936 565.761 142.596 551.854 149.605C537.947 156.614 521.794 160.126 503.378 160.126C481.909 160.126 465.107 155.459 452.972 146.093C440.821 136.806 434.872 124.212 435.11 108.328H457.085L457.101 108.28Z" fill="#F4F5F5"/>
<path d="M642.715 8.59109H666.336V155.775H642.715V8.59109Z" fill="#F4F5F5"/>
<path d="M948.966 8.59109H972.587V155.775H948.966V8.59109Z" fill="#F4F5F5"/>
<path d="M1107.56 8.59109H1133.99L1196.63 155.775H1171.02L1153.5 111.698H1085.23L1066.55 155.775H1042.58L1107.56 8.59109ZM1145.99 95.4493L1119.79 30.4243L1091.94 95.4493H1145.99Z" fill="#F4F5F5"/>
<path d="M861.474 30.1237C851.808 19.5077 839.23 12.8312 823.741 10.0624L835.955 34.9017C838.344 36.642 840.495 38.6038 842.378 40.8346C850.874 50.9127 855.13 65.0885 855.13 83.3145C855.13 88.0608 854.545 93.2027 853.374 98.7401C851.333 108.027 848.01 115.637 843.391 121.586C837.6 129.006 830.148 134.005 821.067 136.616C815.973 138.024 809.47 138.72 801.559 138.72H759.839V25.7096H801.322C812.017 25.7096 821.035 27.3233 828.392 30.5667L801.449 8.57526H736.345V155.76H806.021C835.638 155.76 856.506 144.606 868.657 122.298C875.555 109.673 879.004 95.5442 879.004 79.9129C879.004 59.6776 873.166 43.0812 861.49 30.1237H861.474Z" fill="#F4F5F5"/>
<path d="M138.32 24.618C137.608 23.9061 136.896 23.2258 136.168 22.5455L132.039 48.4922L131.722 50.4857V50.5173C145.93 73.4738 143.114 104.072 123.211 123.975C99.9852 147.2 62.2043 147.2 38.9788 123.975C33.473 118.469 29.2804 112.141 26.3851 105.385L26.4168 106.524L28.5526 143.451C60.3215 170.584 108.276 169.129 138.304 139.1C169.867 107.537 169.867 56.1813 138.304 24.6339L138.32 24.618Z" fill="#F4F5F5"/>
<path d="M26.3693 105.306C17.0823 83.5836 21.2749 57.4312 38.9788 39.7273C62.2043 16.5019 99.9852 16.5019 123.211 39.7273C126.501 43.0182 129.302 46.6096 131.659 50.3908L124.951 21.707L122.768 12.4358C91.6633 -6.21733 50.639 -2.16711 23.8537 24.6181C-5.24139 53.7133 -7.51964 99.6421 17.0506 131.364L26.3693 105.306Z" fill="#F4F5F5"/>
</svg>
