<?xml version="1.0" encoding="UTF-8"?>
<svg id="Layer_2" data-name="Layer 2" xmlns="http://www.w3.org/2000/svg" viewBox="0 0 1276.67 269.2">
  <defs>
    <style>
      .cls-1 {
        fill: #fff;
      }
    </style>
  </defs>
  <g id="Layer_1-2" data-name="Layer 1">
    <g>
      <g>
        <path class="cls-1" d="M242.37,268.89h-3.67l-20.28-26.27v26.27h-3.67v-31.23h3.67l20.28,26.23v-26.23h3.67v31.23Z"/>
        <path class="cls-1" d="M273.65,267.17c-2.76-1.36-4.93-3.25-6.52-5.67-1.59-2.43-2.38-5.17-2.38-8.24s.79-5.82,2.38-8.24c1.59-2.43,3.76-4.32,6.52-5.67,2.76-1.35,5.83-2.03,9.22-2.03s6.51.68,9.27,2.03c2.76,1.36,4.93,3.25,6.5,5.67,1.57,2.43,2.36,5.18,2.36,8.24s-.79,5.82-2.36,8.24c-1.57,2.43-3.74,4.32-6.5,5.67s-5.85,2.03-9.27,2.03-6.46-.68-9.22-2.03ZM290.21,264.87c2.17-1.07,3.88-2.61,5.13-4.62,1.26-2.01,1.89-4.34,1.89-6.99s-.63-4.97-1.89-6.97c-1.26-2-2.97-3.53-5.13-4.6-2.17-1.07-4.61-1.61-7.34-1.61s-5.17.54-7.34,1.61-3.88,2.61-5.13,4.6c-1.26,2-1.89,4.32-1.89,6.97s.63,4.98,1.89,6.99c1.26,2.01,2.97,3.55,5.13,4.62s4.61,1.61,7.34,1.61,5.17-.54,7.34-1.61Z"/>
        <path class="cls-1" d="M344.86,237.66v2.59h-10.17v28.64h-3.67v-28.64h-10.22v-2.59h24.05Z"/>
        <path class="cls-1" d="M417.69,261.48h-16.66l-3.2,7.42h-3.88l13.36-30.83h4.14l13.31,30.83h-3.88l-3.2-7.42ZM416.59,258.88l-7.23-16.89-7.23,16.89h14.46Z"/>
        <path class="cls-1" d="M505.24,246.78c-1.05-2.06-2.65-3.67-4.79-4.85-2.15-1.18-4.67-1.76-7.57-1.76-2.72,0-5.17.54-7.34,1.61s-3.88,2.6-5.13,4.58c-1.26,1.98-1.89,4.28-1.89,6.9s.63,4.93,1.89,6.92c1.26,2,2.97,3.53,5.13,4.6s4.61,1.61,7.34,1.61c2.55,0,4.85-.47,6.89-1.41,2.04-.94,3.68-2.28,4.93-4.02,1.24-1.74,1.95-3.77,2.12-6.1h-15.41v-2.55h19.28v2.28c-.17,2.74-1.05,5.22-2.62,7.44-1.57,2.22-3.68,3.97-6.31,5.25-2.64,1.28-5.6,1.92-8.88,1.92s-6.46-.68-9.22-2.03c-2.76-1.36-4.93-3.25-6.52-5.67-1.59-2.43-2.38-5.17-2.38-8.24s.79-5.82,2.38-8.24c1.59-2.43,3.76-4.32,6.52-5.67,2.76-1.35,5.83-2.03,9.22-2.03,3.91,0,7.34.83,10.27,2.5,2.93,1.67,5.06,3.99,6.39,6.97h-4.3Z"/>
        <path class="cls-1" d="M557.33,237.66l-11.74,19.08v12.15h-3.67v-12.15l-11.84-19.08h4.14l9.54,16.22,9.48-16.22h4.09Z"/>
        <path class="cls-1" d="M614.18,238.06v30.83h-3.67v-24.62l-12.89,24.62h-2.67l-12.89-24.53v24.53h-3.67v-30.83h3.88l13.99,26.72,13.99-26.72h3.93Z"/>
        <path class="cls-1" d="M689.53,261.48h-16.66l-3.2,7.42h-3.88l13.36-30.83h4.14l13.31,30.83h-3.88l-3.2-7.42ZM688.43,258.88l-7.23-16.89-7.23,16.89h14.46Z"/>
        <path class="cls-1" d="M765.19,237.66v23.63c0,2.38-.86,4.3-2.57,5.74-1.71,1.45-4,2.17-6.86,2.17s-5.34-.77-7.1-2.3c-1.76-1.53-2.65-3.61-2.65-6.23h3.72c.03,1.7.53,3.08,1.49,4.16.96,1.07,2.47,1.61,4.53,1.61s3.41-.49,4.35-1.47c.94-.98,1.41-2.2,1.41-3.66v-23.63h3.67Z"/>
        <path class="cls-1" d="M797.36,267.17c-2.76-1.36-4.93-3.25-6.52-5.67-1.59-2.43-2.38-5.17-2.38-8.24s.79-5.82,2.38-8.24c1.59-2.43,3.76-4.32,6.52-5.67,2.76-1.35,5.83-2.03,9.22-2.03s6.51.68,9.27,2.03c2.76,1.36,4.93,3.25,6.5,5.67,1.57,2.43,2.36,5.18,2.36,8.24s-.79,5.82-2.36,8.24c-1.57,2.43-3.74,4.32-6.5,5.67s-5.85,2.03-9.27,2.03-6.46-.68-9.22-2.03ZM813.92,264.87c2.17-1.07,3.88-2.61,5.13-4.62,1.26-2.01,1.89-4.34,1.89-6.99s-.63-4.97-1.89-6.97c-1.26-2-2.97-3.53-5.13-4.6-2.17-1.07-4.61-1.61-7.34-1.61s-5.17.54-7.34,1.61-3.88,2.61-5.13,4.6c-1.26,2-1.89,4.32-1.89,6.97s.63,4.98,1.89,6.99c1.26,2.01,2.97,3.55,5.13,4.62s4.61,1.61,7.34,1.61,5.17-.54,7.34-1.61Z"/>
        <path class="cls-1" d="M850.65,237.66v19.66c0,3.1.87,5.39,2.59,6.88,1.73,1.49,4.1,2.23,7.1,2.23s5.35-.74,7.05-2.21,2.54-3.78,2.54-6.9v-19.66h3.67v19.61c0,3.96-1.23,6.94-3.69,8.94-2.46,2-5.67,2.99-9.62,2.99s-7.15-1-9.62-2.99c-2.46-2-3.69-4.97-3.69-8.94v-19.61h3.67Z"/>
        <path class="cls-1" d="M916.98,268.89l-9.06-13.05h-6.76v13.05h-3.67v-31.23h11c4.09,0,7.19.83,9.3,2.5,2.11,1.67,3.17,3.86,3.17,6.57,0,2.26-.76,4.19-2.28,5.79s-3.76,2.63-6.73,3.1l9.43,13.27h-4.4ZM901.16,253.3h7.39c2.86,0,5.02-.59,6.47-1.79,1.45-1.19,2.17-2.78,2.17-4.78s-.7-3.64-2.1-4.76c-1.4-1.12-3.6-1.68-6.6-1.68h-7.34v13Z"/>
        <path class="cls-1" d="M971.58,268.89h-3.67l-20.28-26.27v26.27h-3.67v-31.23h3.67l20.28,26.23v-26.23h3.67v31.23Z"/>
        <path class="cls-1" d="M999.3,240.21v11.66h13.89v2.59h-13.89v11.84h15.46v2.59h-19.13v-31.27h19.13v2.59h-15.46Z"/>
        <path class="cls-1" d="M1061.91,237.66l-11.74,19.08v12.15h-3.67v-12.15l-11.84-19.08h4.14l9.54,16.22,9.48-16.22h4.09Z"/>
      </g>
      <g>
        <path class="cls-1" d="M247.35,8.15h79.12c21.57,0,36.91,5.49,46.02,16.46,5.35,6.49,8.02,13.97,8.02,22.45,0,9.91-3.3,18.03-9.91,24.38-3.43,3.35-8.36,6.41-14.79,9.19,9.44,3.06,16.51,6.52,21.19,10.37,8.28,6.84,12.41,16.29,12.41,28.33,0,10.12-3.72,19.28-11.16,27.48-11.12,12.26-28.8,18.39-53.04,18.39h-77.86V8.15ZM317.19,74.54c10.53,0,18.72-1.25,24.57-3.74,9.19-3.92,13.79-10.98,13.79-21.17s-4.89-17.17-14.67-20.74c-5.52-1.99-13.71-2.99-24.57-2.99h-44.51v48.64h45.39ZM325.59,147.02c15.3,0,26.21-3.78,32.73-11.33,4.09-4.77,6.14-10.55,6.14-17.32,0-11.4-5.98-19.17-17.93-23.31-6.35-2.21-14.75-3.31-25.2-3.31h-49.53v55.27h53.79Z"/>
        <path class="cls-1" d="M487.55,114.52c.58,8.91,3.05,16.14,7.4,21.7,8.28,10.41,22.86,15.61,43.76,15.61,9.36,0,17.89-1.14,25.58-3.42,14.88-4.42,22.32-12.33,22.32-23.74,0-8.55-3.14-14.65-9.41-18.28-6.35-3.56-16.3-6.66-29.84-9.3l-24.95-4.81c-16.3-3.14-27.84-6.59-34.61-10.37-11.7-6.56-17.56-16.36-17.56-29.4,0-14.11,5.72-25.69,17.18-34.75,11.45-9.05,27.67-13.58,48.65-13.58,19.31,0,35.71,3.97,49.22,11.92,13.5,7.95,20.25,20.65,20.25,38.11h-23.45c-1.25-8.41-3.93-14.86-8.02-19.35-7.61-8.19-20.52-12.29-38.75-12.29-14.71,0-25.29,2.64-31.72,7.91-6.44,5.27-9.65,11.41-9.65,18.39,0,7.7,3.76,13.33,11.28,16.89,4.93,2.28,16.09,5.13,33.48,8.55l25.83,5.03c12.46,2.42,22.07,5.74,28.84,9.94,11.7,7.34,17.55,18,17.55,31.96,0,17.39-7.42,29.83-22.26,37.31-14.84,7.48-32.08,11.23-51.72,11.23-22.9,0-40.84-4.99-53.79-14.97-12.96-9.91-19.31-23.34-19.06-40.31h23.45Z"/>
        <path class="cls-1" d="M685.61,8.15h25.2v157.05h-25.2V8.15Z"/>
        <path class="cls-1" d="M1012.4,8.15h25.2v157.05h-25.2V8.15Z"/>
        <path class="cls-1" d="M1181.62,8.15h28.21l66.83,157.05h-27.34l-18.68-47.04h-72.85l-19.94,47.04h-25.58l69.34-157.05ZM1222.63,100.84l-27.96-69.38-29.72,69.38h57.68Z"/>
        <path class="cls-1" d="M919.03,31.13c-10.32-11.32-23.74-18.45-40.26-21.41l13.04,26.51c2.55,1.85,4.84,3.96,6.85,6.34,9.07,10.76,13.6,25.87,13.6,45.33,0,5.06-.63,10.55-1.88,16.46-2.18,9.91-5.73,18.03-10.66,24.38-6.19,7.91-14.13,13.26-23.82,16.04-5.44,1.5-12.37,2.25-20.81,2.25h-44.51V26.43h44.26c11.41,0,21.04,1.73,28.89,5.18l-28.76-23.46h-69.47v157.05h74.35c31.6,0,53.87-11.9,66.83-35.71,7.36-13.47,11.03-28.55,11.03-45.22,0-21.6-6.23-39.31-18.68-53.13Z"/>
        <g>
          <path class="cls-1" d="M147.4,25.25c-.75-.75-1.52-1.49-2.3-2.21l-4.41,27.69-.34,2.12h0s0,.03,0,.03c15.17,24.5,12.15,57.14-9.09,78.38-24.78,24.78-65.09,24.78-89.87,0-5.88-5.88-10.34-12.63-13.43-19.84l.04,1.22,2.29,39.41c33.9,28.95,85.07,27.4,117.11-4.65,33.68-33.68,33.68-88.47,0-122.15Z"/>
          <path class="cls-1" d="M27.94,111.36c-9.9-23.18-5.43-51.08,13.46-69.97,24.78-24.78,65.09-24.78,89.87,0,3.51,3.51,6.5,7.34,9.02,11.38l-7.16-30.61-2.33-9.9C97.61-7.64,53.83-3.32,25.26,25.25c-31.05,31.05-33.47,80.06-7.26,113.91l9.94-27.8Z"/>
        </g>
      </g>
    </g>
  </g>
</svg>