<?xml version="1.0" encoding="UTF-8"?>
<svg id="Layer_1" data-name="Layer 1" xmlns="http://www.w3.org/2000/svg" xmlns:xlink="http://www.w3.org/1999/xlink" viewBox="0 0 65.4 14.97">
  <defs>
    <style>
      .cls-1 {
        fill: #efefef;
      }

      .cls-2 {
        fill: url(#radial-gradient);
      }
    </style>
    <radialGradient id="radial-gradient" cx="6.63" cy="-.06" fx="6.63" fy="-.06" r="15.13" gradientUnits="userSpaceOnUse">
      <stop offset="0" stop-color="#ff3143"/>
      <stop offset=".49" stop-color="#ff00c6"/>
      <stop offset="1" stop-color="#a942d4"/>
    </radialGradient>
  </defs>
  <path class="cls-2" d="M12.1,7.11c-1-1.39-2.25-.93-3.25-2.96-.38-.78-.93-1.23-1.06-1.33h0c.76.15,1.49.57,2.2,1.06.91.64,1.57,1.53,1.68,1.68h.01c-.05-1.23-.77-1.99-1.37-2.36-.85-.52-1.78-.2-2.78-.75-.39-.21-.65-.4-.65-.72,0-.46.32-.65.32-1S7.01,0,6.63,0h0s0,0,0,0,0,0,0,0h0c-.38,0-.57.38-.57.72s.32.54.32,1c0,.32-.27.51-.65.72-1.01.55-1.93.23-2.78.75-.6.36-1.32,1.13-1.37,2.35h.01c.11-.15.77-1.04,1.68-1.68.7-.49,1.44-.91,2.2-1.07h0c-.13.12-.68.57-1.06,1.35-1,2.03-2.24,1.58-3.25,2.96-.87,1.2-.46,1.72-1.16,2.65h0c.17-.07,1.09-.55,1.56-1.61.77-1.75,2.08-2.59,2.21-2.68h.01c0,.16.07,1.72-.99,3.44h.01c.19-.1,1.31-.84,1.83-2.8.21-.79.17-1.38.63-2.36.4-.86.99-1.38,1.17-1.66h.01c0,.15.05.95-.19,2.09-.39,1.86-.95,2.14-1.23,3.8-.34,1.97-1.33,2.21-1.82,3.01-.7,1.16-.58,2.19-.23,3.05h.02c.02-.23.17-1.62.79-2.62.71-1.16,1.01-1.95,1.09-2.15h.02c-.11,2.2.87,2.94.13,5.7h.01c.16-.21.98-1.48.82-3.43-.1-1.23-.28-3.3.76-5.97h.01c1.05,2.66.87,4.73.76,5.97-.16,1.95.66,3.22.82,3.44h.01c-.74-2.77.24-3.51.13-5.71h.02c.07.2.37.99,1.09,2.15.62,1.01.77,2.39.79,2.62h.02c.35-.86.47-1.89-.23-3.05-.49-.81-1.48-1.04-1.82-3.01-.29-1.65-.85-1.94-1.23-3.8-.24-1.14-.2-1.94-.19-2.08h.01c.18.27.76.8,1.17,1.65.46.98.42,1.57.63,2.36.52,1.97,1.65,2.7,1.83,2.81h.01c-1.06-1.73-1-3.29-.99-3.44h.01c.13.08,1.44.92,2.21,2.67.47,1.06,1.39,1.54,1.56,1.62h0c-.7-.94-.29-1.46-1.16-2.66Z"/>
  <g>
    <path class="cls-1" d="M51.52,3.79s-.34,2.67-.34,3.75c0,1.13.34,3.75.34,3.75h.44s.38-2.4.38-3.75c0-1.1-.38-3.75-.38-3.75h-.44Z"/>
    <path class="cls-1" d="M59.1,4.48v-.69h-5.93v.69h2.64c-.1.87-.26,2.33-.26,3.06,0,1.13.34,3.75.34,3.75h.44s.38-2.4.38-3.75c0-.75-.17-2.2-.29-3.06h2.68Z"/>
    <path class="cls-1" d="M32.79,3.79c-.4.92-1.55,2.67-1.91,3.83-.28.89-.49,1.81-.63,2.43h-.29c-.14-.62-.35-1.54-.63-2.43-.36-1.16-1.51-2.92-1.91-3.83h-1.33v7.51h.84v-6.92h.16c.27.52.6,2.12,1.01,3.26.41,1.16,1.15,2.48,1.37,3h1.28c.21-.51.96-1.84,1.37-3,.4-1.14.74-2.74,1.01-3.26h.16v6.92h.84V3.79h-1.33Z"/>
    <path class="cls-1" d="M48.69,3.79v6.92s-.16,0-.16,0c-.37-.86-1.02-2.36-1.43-3.27-.51-1.11-2-2.79-2.51-3.65h-1.19v7.51h.84v-6.92h.19c.47.96,1.09,2.56,1.52,3.42.55,1.1,2.14,3.02,2.42,3.5h1.17V3.79h-.84Z"/>
    <path class="cls-1" d="M22.15,3.79h-1.38c-.4.92-1.55,2.72-1.91,3.88-.39,1.25-.8,3.18-.92,3.62h.47c.16-.37.76-1.53,1.24-2.58h3.63c.47,1.05,1.08,2.21,1.24,2.58h.47c-.12-.45-.53-2.37-.92-3.62-.36-1.16-1.51-2.97-1.91-3.88ZM21.46,8.02h-1.52c.05-.14.1-.26.15-.38.4-1.14.74-2.74,1.01-3.26h.72c.27.52.6,2.12,1.01,3.26.04.12.09.25.15.38h-1.52Z"/>
    <path class="cls-1" d="M39.44,3.79h-1.38c-.4.92-1.55,2.72-1.91,3.88-.39,1.25-.8,3.18-.92,3.62h.47c.16-.37.76-1.53,1.24-2.58h3.63c.47,1.05,1.08,2.21,1.24,2.58h.47c-.12-.45-.53-2.37-.92-3.62-.36-1.16-1.51-2.97-1.91-3.88ZM38.75,8.02h-1.52c.05-.14.1-.26.15-.38.4-1.14.74-2.74,1.01-3.26h.72c.27.52.6,2.12,1.01,3.26.04.12.09.25.15.38h-1.52Z"/>
    <path class="cls-1" d="M64.48,7.67c-.36-1.16-1.51-2.97-1.91-3.88h-1.38c-.4.92-1.55,2.72-1.91,3.88-.39,1.25-.8,3.18-.92,3.62h.47c.16-.37.76-1.53,1.24-2.58h3.63c.47,1.05,1.08,2.21,1.24,2.58h.47c-.12-.45-.53-2.37-.92-3.62ZM61.88,8.02h-1.52c.05-.14.1-.26.15-.38.4-1.14.74-2.74,1.01-3.26h.72c.27.52.6,2.12,1.01,3.26.04.12.09.25.15.38h-1.52Z"/>
  </g>
</svg>